<svg 
 xmlns="http://www.w3.org/2000/svg"
 xmlns:xlink="http://www.w3.org/1999/xlink"
 width="0.681in" height="0.569in">
<defs>
<filter id="Filter_0">
    <feFlood flood-color="rgb(241, 200, 84)" flood-opacity="1" result="floodOut" />
    <feComposite operator="atop" in="floodOut" in2="SourceGraphic" result="compOut" />
    <feBlend mode="normal" in="compOut" in2="SourceGraphic" />
</filter>

</defs>
<g filter="url(#Filter_0)">
<path fill-rule="evenodd"  fill="rgb(248, 184, 100)"
 d="M15.474,30.717 C15.474,32.178 14.956,33.426 13.920,34.462 C12.884,35.498 11.636,36.016 10.176,36.016 C8.715,36.016 7.467,35.498 6.432,34.462 C5.396,33.426 4.878,32.178 4.878,30.717 L4.878,6.668 C4.878,6.227 5.039,5.844 5.362,5.522 C5.684,5.199 6.066,5.038 6.508,5.038 C6.950,5.038 7.332,5.199 7.654,5.522 C7.977,5.844 8.138,6.227 8.138,6.668 L8.138,27.048 L12.214,27.048 L12.214,6.668 C12.214,5.106 11.657,3.764 10.545,2.643 C9.433,1.522 8.087,0.961 6.508,0.961 C4.929,0.961 3.583,1.522 2.471,2.643 C1.359,3.764 0.803,5.106 0.803,6.668 L0.803,30.717 C0.803,33.299 1.720,35.506 3.554,37.341 C5.388,39.175 7.595,40.092 10.176,40.092 L10.583,40.092 L38.703,40.092 C41.284,40.092 43.491,39.175 45.325,37.341 C47.159,35.506 48.076,33.299 48.076,30.717 L48.076,0.961 L15.474,0.961 L15.474,30.717 ZM42.447,34.462 C41.411,35.498 40.163,36.016 38.703,36.016 L17.893,36.016 C18.997,34.420 19.549,32.653 19.549,30.717 L19.549,5.038 L44.001,5.038 L44.001,30.717 C44.001,32.178 43.482,33.426 42.447,34.462 ZM22.809,27.048 L22.809,31.124 L40.740,31.124 L40.740,27.048 L22.809,27.048 ZM22.809,8.298 L22.809,23.788 L40.740,23.788 L40.740,8.298 L22.809,8.298 ZM36.665,12.374 L36.665,19.711 L26.885,19.711 L26.885,12.374 L36.665,12.374 Z"/>
</g>
</svg>