<svg 
 xmlns="http://www.w3.org/2000/svg"
 xmlns:xlink="http://www.w3.org/1999/xlink"
 width="0.569in" height="0.639in">
<defs>
<filter id="Filter_0">
    <feFlood flood-color="rgb(241, 200, 84)" flood-opacity="1" result="floodOut" />
    <feComposite operator="atop" in="floodOut" in2="SourceGraphic" result="compOut" />
    <feBlend mode="normal" in="compOut" in2="SourceGraphic" />
</filter>

</defs>
<g filter="url(#Filter_0)">
<path fill-rule="evenodd"  fill="rgb(248, 184, 100)"
 d="M31.341,0.013 C29.676,0.013 28.259,0.578 27.087,1.707 C25.915,2.837 25.330,4.251 25.330,5.949 L25.330,45.665 L37.555,45.665 L37.555,27.782 C39.729,23.638 40.816,19.672 40.816,15.884 C40.816,12.607 40.259,9.707 39.147,7.185 C38.035,4.663 36.698,2.739 35.136,1.414 C34.066,0.480 32.801,0.013 31.341,0.013 L31.341,0.013 ZM33.480,26.584 L33.480,41.589 L29.405,41.589 L29.405,5.949 C29.405,5.457 29.596,5.024 29.978,4.650 C30.360,4.276 30.814,4.089 31.341,4.089 C31.799,4.089 32.190,4.225 32.512,4.497 C33.650,5.465 34.643,6.951 35.492,8.955 C36.341,10.959 36.766,13.269 36.766,15.884 C36.766,16.921 36.664,17.982 36.460,19.069 C36.256,20.156 36.014,21.094 35.734,21.884 C35.454,22.674 35.161,23.400 34.856,24.062 C34.550,24.724 34.304,25.217 34.117,25.540 C33.930,25.863 33.820,26.041 33.786,26.075 L33.480,26.584 ZM16.912,16.980 C16.733,17.540 16.538,17.973 16.326,18.279 C16.113,18.585 15.859,18.861 15.562,19.107 C15.264,19.354 15.052,19.511 14.925,19.578 C14.798,19.646 14.666,19.706 14.530,19.757 L13.104,20.190 L13.104,41.589 L9.029,41.589 L9.029,20.190 L7.602,19.757 L7.577,19.731 C5.828,19.001 4.953,17.473 4.953,15.146 L4.953,2.459 L0.878,2.459 L0.878,15.146 C0.878,18.678 2.236,21.277 4.953,22.941 L4.953,45.665 L17.179,45.665 L17.179,22.941 C19.896,21.277 21.254,18.678 21.254,15.146 L21.254,2.459 L17.179,2.459 L17.179,15.146 C17.179,15.808 17.090,16.419 16.912,16.980 ZM9.029,2.459 L9.029,15.502 L13.104,15.502 L13.104,2.459 L9.029,2.459 Z"/>
</g>
</svg>