<svg 
 xmlns="http://www.w3.org/2000/svg"
 xmlns:xlink="http://www.w3.org/1999/xlink"
 width="0.681in" height="0.667in">
<path fill-rule="evenodd"  fill="rgb(255, 255, 255)"
 d="M10.953,43.832 C10.953,44.953 11.352,45.912 12.151,46.710 C12.948,47.509 13.908,47.908 15.029,47.908 C16.149,47.908 17.108,47.509 17.907,46.710 C18.705,45.912 19.104,44.953 19.104,43.832 C19.104,42.711 18.705,41.751 17.907,40.953 C17.108,40.155 16.149,39.756 15.029,39.756 C13.908,39.756 12.948,40.155 12.151,40.953 C11.352,41.751 10.953,42.711 10.953,43.832 ZM37.035,43.832 C37.035,44.953 37.434,45.912 38.232,46.710 C39.030,47.509 39.990,47.908 41.110,47.908 C42.231,47.908 43.190,47.509 43.988,46.710 C44.786,45.912 45.186,44.953 45.186,43.832 C45.186,42.711 44.786,41.751 43.988,40.953 C43.190,40.155 42.231,39.756 41.110,39.756 C39.990,39.756 39.030,40.155 38.232,40.953 C37.434,41.751 37.035,42.711 37.035,43.832 ZM12.138,2.001 C10.890,1.084 9.493,0.625 7.948,0.625 L0.358,0.625 L0.358,4.701 L7.948,4.701 C8.746,4.701 9.446,4.981 10.049,5.542 C10.652,6.102 10.953,6.756 10.953,7.503 L10.953,30.763 C10.953,32.631 11.599,34.189 12.889,35.437 C14.179,36.686 15.793,37.310 17.728,37.310 L45.186,37.310 L45.186,33.234 L17.728,33.234 C16.896,33.234 16.238,33.009 15.755,32.559 C15.271,32.109 15.029,31.510 15.029,30.763 L15.029,9.592 L44.039,9.592 C43.564,15.792 43.233,19.494 43.046,20.700 C42.927,21.447 42.545,22.075 41.900,22.585 C41.254,23.095 40.431,23.409 39.429,23.528 C38.767,23.630 37.226,23.825 34.806,24.114 C32.387,24.403 29.649,24.725 26.592,25.082 C23.536,25.438 21.311,25.702 19.919,25.871 L19.919,29.973 C33.248,28.377 39.930,27.578 39.964,27.578 C41.883,27.307 43.487,26.606 44.778,25.477 C46.068,24.347 46.832,22.959 47.070,21.311 C47.223,20.343 47.452,18.012 47.758,14.318 C48.064,10.624 48.233,8.421 48.267,7.707 L48.446,5.516 L14.697,5.516 C14.239,4.090 13.386,2.918 12.138,2.001 Z"/>
</svg>