<svg 
 xmlns="http://www.w3.org/2000/svg"
 xmlns:xlink="http://www.w3.org/1999/xlink"
 width="0.597in" height="0.639in">
<path fill-rule="evenodd"  fill="rgb(255, 255, 255)"
 d="M32.850,11.901 C32.850,9.863 32.332,7.953 31.296,6.169 C30.260,4.386 28.864,2.972 27.107,1.928 C25.349,0.883 23.460,0.361 21.439,0.361 C19.418,0.361 17.530,0.883 15.772,1.928 C14.015,2.972 12.618,4.386 11.582,6.169 C10.546,7.953 10.029,9.863 10.029,11.901 C10.029,15.808 11.119,19.073 13.302,21.697 C15.483,24.321 18.196,25.633 21.439,25.633 C24.682,25.633 27.395,24.321 29.577,21.697 C31.759,19.073 32.850,15.808 32.850,11.901 L32.850,11.901 ZM28.877,11.901 C28.877,14.687 28.168,17.014 26.750,18.882 C25.332,20.750 23.562,21.684 21.439,21.684 C19.317,21.684 17.546,20.750 16.129,18.882 C14.711,17.014 14.002,14.687 14.002,11.901 C14.002,9.881 14.749,8.110 16.243,6.590 C17.737,5.070 19.469,4.310 21.439,4.310 C23.409,4.310 25.141,5.070 26.635,6.590 C28.129,8.110 28.877,9.881 28.877,11.901 L28.877,11.901 ZM4.705,42.217 C4.858,40.740 5.312,39.440 6.068,38.320 C6.823,37.199 7.745,36.303 8.832,35.632 C9.918,34.961 11.196,34.413 12.665,33.989 C14.133,33.564 15.568,33.275 16.969,33.123 C18.370,32.970 19.860,32.893 21.439,32.893 C23.019,32.893 24.508,32.970 25.909,33.123 C27.310,33.275 28.745,33.564 30.214,33.989 C31.682,34.413 32.960,34.957 34.047,35.619 C35.134,36.282 36.055,37.178 36.811,38.307 C37.566,39.437 38.021,40.731 38.173,42.192 L38.530,46.013 L42.605,46.013 L42.249,41.810 C41.807,37.632 39.799,34.435 36.225,32.218 C32.650,30.002 27.722,28.894 21.439,28.894 C15.157,28.894 10.228,30.006 6.654,32.231 C3.079,34.456 1.071,37.657 0.630,41.835 L0.273,46.013 L4.349,46.013 L4.705,42.217 Z"/>
</svg>