<svg 
 xmlns="http://www.w3.org/2000/svg"
 xmlns:xlink="http://www.w3.org/1999/xlink"
 width="0.625in" height="0.639in">
<defs>
<filter id="Filter_0">
    <feFlood flood-color="rgb(241, 200, 84)" flood-opacity="1" result="floodOut" />
    <feComposite operator="atop" in="floodOut" in2="SourceGraphic" result="compOut" />
    <feBlend mode="normal" in="compOut" in2="SourceGraphic" />
</filter>

</defs>
<g filter="url(#Filter_0)">
<path fill-rule="evenodd"  fill="rgb(248, 184, 100)"
 d="M41.401,2.473 C40.399,1.437 39.160,0.919 37.683,0.919 C36.205,0.919 34.966,1.437 33.964,2.473 L15.702,20.739 L11.474,34.342 L25.075,30.139 L32.665,22.547 L32.665,41.679 L4.953,41.679 L4.953,7.440 L24.184,7.440 L27.495,3.848 L28.004,3.364 L0.878,3.364 L0.878,45.756 L36.740,45.756 L36.740,18.471 L43.337,11.873 C44.373,10.837 44.891,9.593 44.891,8.141 C44.891,6.689 44.373,5.445 43.337,4.409 L41.401,2.473 ZM18.937,27.795 L18.020,26.904 L19.268,22.904 L31.672,10.497 L35.339,14.166 L22.935,26.572 L18.937,27.795 ZM38.218,11.287 L34.550,7.619 L36.817,5.326 C37.037,5.105 37.326,4.995 37.683,4.995 C38.039,4.995 38.328,5.105 38.549,5.326 L40.484,7.287 C40.705,7.526 40.816,7.814 40.816,8.154 C40.816,8.494 40.705,8.774 40.484,8.994 L38.218,11.287 Z"/>
</g>
</svg>