<svg 
 xmlns="http://www.w3.org/2000/svg"
 xmlns:xlink="http://www.w3.org/1999/xlink"
 width="0.639in" height="0.681in">
<defs>
<filter id="Filter_0">
    <feFlood flood-color="rgb(241, 200, 84)" flood-opacity="1" result="floodOut" />
    <feComposite operator="atop" in="floodOut" in2="SourceGraphic" result="compOut" />
    <feBlend mode="normal" in="compOut" in2="SourceGraphic" />
</filter>

</defs>
<g filter="url(#Filter_0)">
<path fill-rule="evenodd"  fill="rgb(248, 184, 100)"
 d="M41.090,17.831 L33.500,34.951 L29.145,34.951 L29.145,29.244 L25.069,29.244 L25.069,41.421 L20.179,38.313 L15.289,41.421 L15.289,29.244 L11.214,29.244 L11.214,34.951 L7.750,34.951 C7.393,34.951 7.117,34.938 6.922,34.912 C6.726,34.887 6.463,34.785 6.132,34.607 C5.801,34.428 5.550,34.170 5.381,33.830 C5.211,33.490 5.054,32.972 4.910,32.276 C4.765,31.579 4.693,30.730 4.693,29.728 C4.693,28.709 4.765,27.839 4.910,27.117 C5.054,26.395 5.215,25.860 5.394,25.512 C5.572,25.164 5.827,24.897 6.158,24.709 C6.489,24.523 6.752,24.416 6.947,24.391 C7.142,24.366 7.410,24.353 7.750,24.353 L33.602,24.353 L45.191,0.711 L19.542,0.711 C18.099,0.711 16.851,0.920 15.798,1.336 C14.745,1.752 13.858,2.316 13.137,3.030 C12.415,3.743 11.629,4.728 10.781,5.985 C7.911,10.282 4.812,16.388 1.484,24.302 C0.906,25.677 0.618,27.503 0.618,29.779 C0.618,35.944 2.995,39.027 7.750,39.027 L11.214,39.027 L11.214,48.860 L20.179,43.154 L29.145,48.860 L29.145,39.027 L36.174,39.027 L45.548,17.831 L41.090,17.831 ZM16.575,5.437 C17.229,5.004 18.218,4.788 19.542,4.788 L38.645,4.788 L31.055,20.277 L7.750,20.277 L7.673,20.277 C10.033,15.182 12.198,11.156 14.168,8.201 C15.119,6.792 15.921,5.870 16.575,5.437 Z"/>
</g>
</svg>