<?xml version="1.0"?>
<svg xmlns="http://www.w3.org/2000/svg" height="512px" viewBox="-149 -17 546 546.66586" width="512px"><path d="m-8.527344 89.175781v412.085938c0 6.203125 5.035156 11.238281 11.238282 11.238281h224.773437c6.207031 0 11.238281-5.035156 11.238281-11.238281v-412.085938c0-6.203125-5.03125-11.238281-11.238281-11.238281h-43.703125v-66.699219c0-3.828125-1.953125-7.394531-5.175781-9.464843-3.226563-2.0625-7.277344-2.34375-10.757813-.75l-168.4375 77.40625c-4.722656 1.449218-7.941406 5.8125-7.9375 10.746093zm224.773438 400.847657h-202.292969v-389.609376h202.292969zm-54.945313-412.085938h-106.984375l106.984375-49.164062zm0 0" fill="#FFDA44"/><path d="m52.664062 288.714844h124.871094c6.207032 0 11.238282-5.03125 11.238282-11.238282-.042969-36.335937-26.535157-67.226562-62.4375-72.816406v-7.101562c0-6.203125-5.03125-11.238282-11.238282-11.238282-6.203125 0-11.238281 5.035157-11.238281 11.238282v7.101562c-35.898437 5.589844-62.390625 36.480469-62.4375 72.816406 0 6.207032 5.035156 11.238282 11.242187 11.238282zm62.433594-62.433594c23.9375.03125 44.664063 16.617188 49.949219 39.957031h-99.898437c5.289062-23.339843 26.015624-39.925781 49.949218-39.957031zm0 0" fill="#FFDA44"/><path d="m167.546875 303.703125h-104.894531c-6.203125 0-11.238282 5.03125-11.238282 11.238281 0 6.203125 5.035157 11.238282 11.238282 11.238282h104.894531c6.203125 0 11.238281-5.035157 11.238281-11.238282 0-6.207031-5.035156-11.238281-11.238281-11.238281zm0 0" fill="#FFDA44"/><path d="m43.921875 423.582031h142.355469c6.203125 0 11.238281-5.035156 11.238281-11.242187 0-6.203125-5.035156-11.238282-11.238281-11.238282h-142.355469c-6.207031 0-11.238281 5.035157-11.238281 11.238282 0 6.207031 5.03125 11.242187 11.238281 11.242187zm0 0" fill="#FFDA44"/><path d="m43.921875 471.03125h142.355469c6.203125 0 11.238281-5.03125 11.238281-11.238281 0-6.203125-5.035156-11.238281-11.238281-11.238281h-142.355469c-6.207031 0-11.238281 5.035156-11.238281 11.238281 0 6.207031 5.03125 11.238281 11.238281 11.238281zm0 0" fill="#FFDA44"/></svg>
