<?xml version="1.0" encoding="UTF-8"?>
<!DOCTYPE svg PUBLIC "-//W3C//DTD SVG 1.1//EN" "http://www.w3.org/Graphics/SVG/1.1/DTD/svg11.dtd">
<!-- Creator: CorelDRAW 2017 -->
<svg xmlns="http://www.w3.org/2000/svg" xml:space="preserve" width="297mm" height="127mm" version="1.1" style="shape-rendering:geometricPrecision; text-rendering:geometricPrecision; image-rendering:optimizeQuality; fill-rule:evenodd; clip-rule:evenodd"
viewBox="0 0 29700 12700"
 xmlns:xlink="http://www.w3.org/1999/xlink">
 <defs>
  <style type="text/css">
   <![CDATA[
    .fil1 {fill:#FEFEFE;fill-rule:nonzero}
    .fil0 {fill:#2B2A29;fill-rule:nonzero}
    .fil2 {fill:#F0C858;fill-rule:nonzero}
   ]]>
  </style>
 </defs>
 <g id="Слой_x0020_1">
  <metadata id="CorelCorpID_0Corel-Layer"/>
  <path class="fil0" d="M28866.74 9327.01c62.31,33.77 118,64.33 174.05,93.51 8.92,4.59 23.44,7.66 30.3,3.07 49.34,-32 96.58,-66.89 132.27,-128.83 -42.55,-28.14 -84.59,-54.14 -124.72,-82.93 -25.35,-18.23 -43.84,-11.59 -65.62,7.01 -32.25,27.78 -67.04,52.73 -101.17,78.34 -13.65,10.08 -28.17,18.74 -45.11,29.83zm-356 -232.16c121.42,35.29 222.84,85.89 306.96,170.73 7.62,7.65 30.19,10.07 38.35,3.97 53.24,-39.37 104.96,-81.05 156.06,-123.48 20.01,-16.8 17.34,-36.56 0.65,-57.21 -67.14,-83.18 -151.87,-138.98 -249.1,-175.17 -8.92,-3.33 -25.35,-3.72 -29.68,1.77 -59.13,74.9 -132.37,130.6 -223.24,179.39zm51.1 519.08c9.03,6.64 15.17,13.51 22.68,16.32 76.43,28.79 146.03,69.46 206.92,126.41 5.49,5.2 19.5,6.86 26,3.18 94.67,-52.12 174.16,-122.44 231.12,-218.65 13.5,-22.94 12.35,-42.04 -11.09,-55.55 -56.31,-32.11 -113.26,-62.7 -168.81,-95.68 -21.78,-13 -31.5,-3.46 -46.27,12.36 -41.53,44.2 -82.92,89.31 -129.33,127.42 -39.23,32.21 -85.35,55.4 -131.22,84.19zm-896.1 -927.67c62.44,9.03 123.34,17.44 183.98,27.12 64.36,10.33 124.75,32.36 173.4,79.75 16.32,15.82 30.73,19.39 49.44,8.16 54.43,-32.87 111.64,-61.8 162.85,-99.5 47.64,-35.04 89.32,-79.24 134.04,-119.91 -148.3,-149.82 -587.88,-80.9 -703.71,104.38zm814.55 1461.41c-105.1,-90.58 -223.1,-151.23 -352.69,-180.3 -94.51,122.08 -226.27,153.79 -361.85,179.68 172.02,188.17 569.53,161.81 714.54,0.62zm-282.47 -227.94c93.14,51.97 183.98,103.08 275.72,152.78 10.32,5.6 26.61,6.1 37.7,1.91 104.24,-39.76 192.14,-102.97 260.44,-196.37 22.03,-30.19 18.35,-51.83 -4.84,-73.24 -71.08,-65.74 -150.21,-116.34 -242.96,-142.05 -25.35,-7.01 -40.77,-2.71 -55.69,20.77 -56.81,88.92 -133.27,155.7 -221.94,207.42 -17.99,10.58 -35.68,21.27 -48.43,28.78zm-85.49 -1074.74c14.77,6.76 25.35,12.5 36.55,16.33 109.32,37.45 202.87,99.75 281.35,188.06 7.01,7.76 27.27,10.44 37.45,5.85 91.99,-41.39 173.15,-97.23 233.29,-184.63 20.26,-29.44 17.73,-45.47 -4.59,-68.15 -81.3,-82.71 -178.75,-131.87 -288.83,-154.44 -12.89,-2.67 -30.7,4.33 -42.04,13 -41.83,32 -80.69,68.44 -123.09,99.65 -40.02,29.29 -83.21,54.14 -130.09,84.33zm98.74 535.8c1.27,1.77 1.77,3.03 2.67,3.54 98.89,44.35 188.46,102.57 260.55,188.06 4.48,5.24 18.1,6 25.76,3.47 119.25,-39.12 214.31,-114.42 292.15,-215.22 15.42,-20.01 12.1,-35.43 -5.6,-52.63 -88.31,-85.88 -191.49,-140.92 -309.49,-166.39 -19,-4.08 -30.34,2.03 -43.05,19 -32.4,43.3 -65.77,86.61 -103.98,124.1 -36.34,35.79 -78.99,64.32 -119.01,96.07zm-403.64 -234.72c100.26,42.94 189.21,104.23 259.03,192.28 19.36,24.6 38.72,28.14 64.58,18.6 110.73,-40.52 189.11,-123.08 257.4,-218.4 15.14,-21.27 12.36,-41.13 -6.25,-62.15 -75.7,-86.14 -168.84,-141.69 -274.96,-174.96 -78.23,-24.59 -78.23,-24.45 -126.15,44.97 -3.58,5.24 -7.26,10.58 -11.45,15.31 -53.13,60.5 -106.4,121.03 -162.2,184.35zm42.29 529.04c79.38,72.49 156.96,143.96 235.74,213.92 8.01,7.12 25.35,9.83 35.39,6 122.69,-46.52 223.49,-124.35 300.57,-235.23 17.98,-25.97 20.4,-51.07 -4.84,-74.15 -21.38,-19.76 -40.89,-42.15 -64.33,-58.73 -70.21,-49.55 -137.24,-106 -227.97,-111.85 -24.96,-1.56 -36.8,8.52 -50.96,27.12 -40.38,53.63 -80.76,107.77 -126.37,156.46 -29.58,31.6 -68.19,54.14 -97.23,76.46zm-659.5 -486.72c45.87,-24.74 88.56,-53.92 135.33,-71.62 130.6,-49.3 262.61,-31.45 394.33,-1.4 12.64,2.92 32.25,-0.26 40.52,-9.03 61.69,-65.12 123.23,-130.6 180.95,-199.55 53.38,-63.96 46.88,-85.24 -27.16,-119.87 -7.77,-3.72 -16.18,-6.65 -24.34,-9.32 -84.34,-28.54 -170.33,-39.23 -258.78,-28.54 -148.55,17.85 -270.49,87.52 -362.62,210.1 -50.2,66.89 -81.01,143.35 -78.23,229.23zm37.49 545.19c18.35,91.74 58.08,162.31 118.21,218.51 155.09,144.36 335.35,177.23 530.56,117.24 57.61,-17.73 110.2,-55.19 163.22,-87.04 24.7,-14.92 26.51,-39.37 2.92,-60.5 -63.82,-56.85 -128.03,-113.41 -192,-170.26 -39.87,-35.54 -81.3,-42.8 -129.44,-15.53 -23.48,13.11 -51.61,17.95 -77.87,24.71 -131.21,34.02 -261.2,46.77 -386.96,-23.19 -6.25,-3.54 -15.17,-2.28 -28.64,-3.94zm270.48 7.91c48.29,-10.72 97.08,-18.99 144.76,-32.36 158.73,-44.49 285.14,-137.35 378.8,-279.29 16.68,-25.25 16.54,-48.54 -3.22,-65.63 -58.98,-50.2 -116.04,-105.39 -181.81,-143.85 -114.78,-67.4 -242.71,-89.83 -373.96,-80.65 -167.4,11.74 -246.68,74.04 -300.42,219.52 -34.03,91.99 6.1,234.98 78.98,301.72 74.15,67.79 161.05,85.74 256.87,80.54zm1606.93 -269.21c35.32,60.89 -12.86,101.02 -41.54,142.04 -52.12,74.66 -120.27,132.77 -198.75,176.22 -17.19,9.43 -24.09,15.68 -19.76,39.62 3.33,18.35 -7.11,43.05 -18.09,60.03 -64.58,98.74 -152.13,168.66 -257.23,214.79 -18.74,8.16 -37.85,10.58 -33.01,44.49 2.42,16.44 -18.09,41.54 -34.17,55.3 -68.51,58.33 -150.46,87.51 -234.79,108.17 -132.16,32.22 -263.77,25.21 -388.37,-30.34 -61.55,-27.27 -118.11,-69.16 -172.64,-110.45 -22.43,-16.83 -43.2,-27.41 -69.2,-30.08 -129.7,-13.11 -243.22,-65.63 -337.12,-159.64 -81.55,-81.7 -131.61,-180.04 -130.85,-301.97 0.1,-11.6 -6.11,-24.6 -12.36,-34.93 -67.79,-109.94 -81.8,-224.61 -31.6,-346.54 7.37,-17.74 8.78,-39.63 7.77,-59.27 -9.68,-155.7 47.27,-281.72 155.45,-384.8 77.47,-73.49 169.06,-119.25 269.61,-147.14 10.55,-2.92 21.63,-10.69 28.64,-19.61 92.79,-116.98 208.83,-190.63 352.18,-221.22 142.08,-30.19 279.19,-22.28 412.82,37.2 35.43,15.82 71.62,31.75 72.78,82.57 0.1,5.89 15.13,13.76 24.45,16.47 113.91,32.72 217.86,84.08 298.4,177.73 9.68,11.2 22.93,26.11 22.28,38.61 -1.91,37.96 18.85,48.4 47.42,60.5 96.44,40.66 181.42,98.99 246.9,186.04 19.25,25.86 27.52,51.35 16.47,82.05 44.21,30.45 89.43,59.13 131.86,91.6 54.03,41.68 56.31,73.03 8.27,123.48 -35.43,37.46 -74.9,70.83 -115.82,109.08z"/>
  <path class="fil1" d="M23927.61 7641.89c-29.29,43.7 -54.14,80.4 -78.63,117.2 -161.8,243.65 -310.75,495.02 -419.18,770.35 -75.95,192.54 -128.57,392.05 -148.94,598.86 -18.6,186 -20.66,373.05 48.79,551.07 113.77,292.15 324.77,455.11 621.65,489.39 166.79,19.11 315.59,-43.45 427.48,-172.64 227.18,-262.5 137.36,-624.97 -105.89,-766.01 -176.58,-102.32 -401.99,-36.84 -489.79,149.96 -45.47,97.08 -25.6,225.51 48.83,309.99 69.57,78.88 184.35,107.52 278.76,69.56 80.93,-32.61 128.93,-133.41 102.46,-214.42 -19.25,-58.48 -57.1,-91.99 -116.73,-96.98 -56.31,-4.84 -89.68,27.52 -112.76,76.57 -2.42,5.49 -6.1,10.33 -10.44,17.23 1.02,-58.01 32.47,-102.47 83.58,-120.67 60.39,-21.67 119.15,-5.6 156.96,41.9 49.2,61.43 57.97,131.9 32.91,203.99 -26.66,76.6 -82.06,123.73 -158.67,142.08 -167.4,40.27 -315.19,-74.65 -353.94,-218 -27.13,-100.26 -14.63,-195.07 44.85,-283.38 132.01,-195.72 422,-229.45 602.4,-49.04 247.95,247.94 216.38,642.52 -64.97,846 -189.58,137 -391.91,135.34 -599.08,45.26 -156.86,-68.3 -283.12,-176.61 -366.7,-330.4 -41.93,-77.33 -72.88,-164.48 -92.64,-251.12 -35.43,-156.36 -32.5,-316.39 -10.83,-475.13 32.76,-240.17 102.32,-468.36 194.81,-690.7 125.51,-301.47 288.58,-578.85 468.26,-846.8 28.28,-42.19 67.15,-41.79 92.1,0.75 118.76,201.57 273.55,364.03 477.04,470.03 127.42,66.28 263.62,99 407.73,96.98 174.8,-2.42 337.91,-49.95 495.27,-125.62 19.61,-9.32 41.9,-13.65 63.42,-17.48 8.06,-1.41 17.34,5.24 26.01,8.16 -3.33,10.44 -3.69,24.2 -10.59,30.6 -13.5,12.85 -29.68,23.54 -46.23,31.71 -162.34,79.74 -331.8,135.18 -511.7,140.17 -326.29,8.92 -595.03,-123.85 -811.12,-377.43 -20.12,-23.69 -38.22,-49.41 -64.08,-72.09 14.38,52.88 27.13,106.26 43.81,158.23 81.95,257.01 200.96,492.86 370.78,698.62 160.8,194.92 360.71,329.6 592.36,412.92 84.73,30.6 170.08,60.03 256.98,82.71 119.9,31.46 242.23,53.78 362.5,84.34 179.14,45.61 357.64,93.65 535.91,143.35 72.23,20.15 142.45,48.68 214.57,70.06 19.87,5.89 43.05,0.55 64.58,-1.62 175.57,-17.59 351.28,-22.07 527.24,-6.76 11.48,1.12 22.68,5.2 33.88,10.04 -170.98,-9.67 -341.2,-10.29 -516.15,36.45 44.85,22.06 83.86,41.68 123.23,60.28 113.01,53.77 218.76,119.91 313.93,203.73 119.76,105.25 209.23,233.18 254.59,390.65 25.97,89.97 43.95,182.46 65.08,273.95 1.81,7 0.65,14.62 -5.85,23.69 -18.2,-66.78 -35.94,-133.78 -55.04,-200.31 -71.48,-247.94 -219.02,-429.11 -435.5,-553.1 -184.09,-105.35 -379.81,-178.13 -579.61,-240.93 -2.17,-0.76 -4.7,0.75 -7.12,1.26 -1.15,41.68 -2.31,83.47 -3.43,125.15 -3.07,0.25 -5.88,0.5 -8.81,0.61 -0.51,-3.29 -1.41,-6.75 -1.41,-10.04 1.05,-108.57 -41.03,-137.35 -128.18,-159.42 -212.77,-53.64 -427.08,-100.66 -640.36,-151.48 -188.56,-44.85 -374.35,-99.39 -550.31,-185.03 -158.38,-77.07 -300.68,-179.14 -422.86,-310.49 -231.15,-248.31 -373.1,-548.62 -464.33,-878.01 -15.38,-55.55 -25.86,-112.51 -40.88,-178.75z"/>
  <path class="fil0" d="M25536.2 11495.2c51.46,-32.47 91.23,-55.66 128.83,-82.42 10.43,-7.51 22.03,-26.87 19.75,-37.85 -13.65,-67.4 -31.09,-133.92 -47.93,-203.23 -48.39,43.45 -95.56,84.98 -141.29,128.18 -5.59,5.23 -7.51,19.65 -5.23,28.17 13.5,52.87 28.67,105.24 45.87,167.15zm-26.88 -681.64c-59.37,44.86 -127.27,95.42 -193.8,148.04 -8.02,6.25 -12.75,24.2 -10.94,35.44 14.12,95.42 38.21,186.65 97.08,264.63 14.92,19.61 27.88,26.51 45.62,12.75 47.27,-37.1 93.25,-75.81 139.26,-114.57 19.72,-16.68 19.47,-34.38 3.54,-56.7 -13.76,-19.36 -24.95,-42.66 -30.7,-66.1 -19.21,-77.97 -35.43,-156.75 -50.06,-223.49zm446.85 130.46c-3.72,-2.03 -7.41,-4.09 -11.09,-6.11 -26.26,34.13 -48.04,73.75 -79.64,100.77 -47.28,40.67 -101.67,72.02 -152.27,108.46 -10.04,7.37 -23.95,20.62 -23.44,30.3 3.68,71.48 19.86,140.42 54.28,202.98 4.59,8.27 24.71,14.12 34.93,11.2 92.35,-28.39 167.55,-85.6 232.02,-158.88 6.86,-7.91 11.19,-26.88 7.11,-35.69 -38.21,-79.74 -58.22,-163.97 -61.9,-253.03zm633.49 -615.91l-13.14 2.82c-18.35,36.55 -35.54,73.89 -55.41,109.54 -36.19,65.37 -78.23,126.81 -144,161.84 -24.81,13.26 -30.3,28.64 -30.05,53.13 1.16,103.69 22.68,202.83 59.74,298.51 16.33,41.82 29.18,43.84 59.77,9.42 130.71,-147.39 186.41,-320.28 157.22,-520.08 -5.7,-39.23 -22.53,-76.82 -34.13,-115.18zm-1215.67 -35.54c-66.38,-126.41 -44.46,-256.5 -20.51,-390.54 -11.7,5.6 -18.71,8.02 -24.71,11.85 -132.36,88.56 -205.9,218.51 -238.01,376.27 -15.02,73.75 -18.85,148.3 -1.77,222.95 5.96,26.66 18.96,31.5 39.62,18.24 98.24,-62.55 182.72,-140.42 245.38,-238.77zm17.59 62.92c-14.91,14.91 -20.51,19.64 -25.1,25.35 -56.81,70.46 -119.87,133.16 -195.43,182.1 -10.58,6.76 -17.99,27.13 -18.49,41.65 -3.18,105.75 20.77,204.64 70.46,297.28 15.68,29.4 32.76,30.55 60.14,18.34 91.59,-41.17 161.3,-108.56 219.27,-193.8 -67,-109.22 -108.28,-227.68 -110.85,-370.92zm907.45 306.2c-80.29,99.86 -165.28,182.32 -281.83,220.78 -8.41,2.82 -17.22,21.02 -17.33,32 -0.4,99.36 25.35,191.24 72.23,277.49 13.51,24.6 26.87,27.27 51.11,17.23 91.59,-38 159.75,-104.89 219.27,-184.63 20.37,-27.52 25.1,-50.46 11.34,-84.23 -16.44,-39.87 -25.5,-83.72 -33.77,-126.66 -9.03,-47.78 -13.51,-96.58 -21.02,-151.98zm-472.34 -90.73c-10.95,8.42 -18.46,12.75 -24.31,18.85 -55.95,57.86 -118,107.27 -191.89,135.44 -37.85,14.27 -49.19,34.68 -49.05,74.91 0.11,103.08 19.87,200.05 69.92,289.23 14.67,26.15 35.44,35.68 61.95,19.14 38.6,-24.09 81.4,-43.7 113.66,-75.05 43.55,-42.44 79.24,-93.8 117.59,-142.09 12.36,-15.53 7.37,-29.18 -1.4,-48.14 -28.68,-60.93 -53.53,-123.99 -77.08,-187.31 -9.68,-25.6 -12.5,-53.88 -19.39,-84.98zm-113.88 -439.44c-13.65,9.28 -21.27,15.28 -29.69,20.26 -61.54,37.71 -120.81,81.67 -186.04,110.7 -46.12,20.66 -66.64,40.53 -62.3,96.08 8.67,110.33 34.27,213.16 92.64,306.67 15.42,24.59 32.72,29.32 56.05,17.48 31.1,-15.82 63.71,-29.58 92.14,-49.84 59.63,-42.55 123.7,-82.17 151.37,-158.38 3.93,-10.8 4.04,-28.28 -1.67,-36.8 -62.44,-89.72 -100.65,-188.97 -112.5,-306.17zm441.6 163.22c-64.72,70.97 -144.86,129.44 -239.78,158.73 -33.15,10.33 -38.86,29.18 -44.49,55.3 -2.03,8.66 -1.77,18.09 -1.02,27.16 7.16,101.16 40.67,192.75 91.63,278.5 18.1,30.23 41.03,23.08 63.97,13.14 108.28,-46.77 191.35,-126.01 258.52,-224.65 6.47,-9.42 9.79,-28.02 5.2,-37.45 -43.19,-90.18 -88.41,-179.5 -134.03,-270.73zm-265.02 -722.96c-103.44,-26.87 -192.65,-2.53 -274.31,50.71 -139.92,91.37 -218.66,226.81 -235.34,397.54 -5.6,59.12 4.08,120.52 11.73,180.15 4.84,37.35 28.65,47.03 62.05,27.52 61.15,-35.54 122.3,-71.33 185,-103.83 50.7,-26.37 80.54,-61.04 67.79,-124.5 -2.93,-14.52 2.16,-30.7 3.57,-46.12 15.14,-146.89 55.41,-281.32 179.51,-381.47zm451.93 154.04c1.16,61.04 8.02,121.17 2.17,179.9 -11.6,115.97 -61.55,216.74 -126.38,310.28 -8.41,12.1 -17.08,33.23 -12.64,44.32 36.59,88.7 74.55,176.97 116.08,263.36 16.69,34.68 44.1,36.59 71.48,8.42 28.03,-28.93 56.59,-58.98 77.47,-93.4 116.73,-191.89 131.76,-388.12 14.27,-586.36 -35.15,-59.38 -84.34,-102.43 -142.45,-126.52zm-590.15 351.78c4.04,102.97 36.29,196.87 85.74,284.89 29.94,53.28 40.12,55.84 94.41,31.5 188.06,-84.23 301.32,-237.62 359.04,-437.17 15.02,-52.11 18.6,-114.27 7.4,-167.15 -26.9,-125.14 -125.4,-206.41 -244.51,-208.72 -110.23,-2.16 -201.06,51.11 -254.34,181.82 -41.28,100.91 -52.73,206.3 -47.74,314.83zm639.2 959.45c-67.65,98.46 -148.81,178.89 -257.37,221.94 -22.94,9.03 -50.71,4.84 -87.41,7.52 -59.88,69.2 -139.37,132.51 -236.1,170.36 -56.55,22.03 -62.04,22.43 -99.9,-4.59 -39.11,28.64 -76.93,59.74 -117.7,85.6 -56.71,35.83 -83.83,24.85 -106.66,-39.22 -16.18,-45.51 -30.95,-91.74 -47.27,-140.28 -39.98,8.67 -62.05,-20.41 -82.68,-52.77 -57.6,-89.82 -84.87,-190.84 -99.39,-297.5 -68.15,-10.43 -85.99,-72.12 -102.57,-123.59 -27.02,-83.47 -40.53,-171.88 -61.15,-264.12 -24.45,-4.48 -38.61,-31.35 -45.87,-65.12 -52.51,-247.8 57.97,-569.93 310.75,-695.8 15.03,-7.51 28.93,-22.83 37.46,-38.1 65.77,-119.62 152.52,-215.95 278.14,-264.78 88.81,-34.27 179.79,-41.28 271.02,-4.19 14.01,5.6 31.71,4.84 46.77,2.02 111.35,-21.52 204.24,13.15 282.47,96.98 10.84,11.48 25.21,22.03 39.88,26.51 164.73,50.56 242.45,178.38 282.47,342.1 18.1,74.55 13.65,148.44 4.84,223.24 -1.01,9.28 0.51,20.52 4.73,28.79 113.88,223.85 89.68,440.19 -34.42,649.27 -25.71,43.45 -61.29,81.05 -95.56,118.25 -22.04,23.95 -51.33,34.53 -84.48,17.48z"/>
  <path class="fil0" d="M27352.71 11880.14c28.68,-37.71 51.36,-65.88 71.62,-95.42 5.45,-8.17 8.92,-24.35 4.44,-30.49 -27.01,-37.96 -56.56,-74 -86.39,-112.11 -23.69,43.81 -46.88,85.89 -68.91,128.55 -2.67,5.23 -0.25,14.91 3.43,19.5 23.33,28.78 47.53,56.7 75.81,89.97zm-193.55 -420.99c-31.06,48.29 -67.14,103.23 -101.53,158.78 -4.22,6.61 -2.92,19.61 1.12,26.11 34.67,55.4 75.31,104.74 137.5,134.17 15.78,7.37 26.87,7.26 36.05,-7.4 24.48,-39.37 47.78,-79.13 70.86,-119.11 9.93,-17.23 5.2,-28.32 -11.74,-36.99 -15.03,-7.62 -29.04,-18.6 -39.12,-31.31 -33.77,-42.84 -65.48,-87.04 -93.14,-124.25zm354.74 -68.15c-3.21,0 -6.25,-0.14 -9.57,-0.14 -10.08,30.34 -15.67,62.7 -31.46,90.47 -23.58,41.54 -54.68,79.64 -81.8,119.62 -5.35,8.05 -11.99,21.06 -9.18,27.02 21.02,43.95 50.21,81.95 90.84,109.72 5.49,3.68 21.52,0.61 28.02,-4.73 59.27,-48.9 98.64,-110.34 126.16,-178.24 3.04,-7.4 1.41,-20.91 -3.83,-24.99 -47.78,-37.46 -83.72,-83.83 -109.18,-138.73zm298.26 -601.93c-2.78,2.06 -5.6,4.08 -8.67,6.14 -3.83,29.29 -6.75,58.62 -11.85,87.77 -9.28,53.41 -23.83,106.29 -62.16,150.5 -14.55,16.79 -14.41,28.39 -8.05,43.7 27.16,64.97 68.05,120.41 119.15,168.16 22.43,20.91 32.22,17.84 45.47,-14.12 56.35,-136.99 52.12,-264.88 -19.86,-381.11 -14.02,-22.79 -35.69,-40.88 -54.03,-61.04zm-883.36 387.11c-79.89,-57.47 -97.33,-146.78 -114.42,-239.53 -6.86,7.51 -11.34,11.45 -14.66,15.92 -72.6,100.37 -92.24,207.17 -75.16,317.37 8.16,51.75 24.45,100.04 55.69,141.43 11.2,14.77 21.64,13.4 33.23,-1.91 54.54,-72.49 95.57,-150.21 115.32,-233.28zm28.79 33.77c-6.86,14.52 -9.79,19.35 -11.45,24.45 -23.08,63.56 -52.37,124.49 -94.16,180.66 -5.85,7.91 -5.99,23.33 -2.56,32.5 24.59,67.79 67.14,122.08 126.52,163.86 18.74,13.26 31.35,8.28 47.92,-8.66 55.41,-56.96 88.31,-122.95 108.28,-196.23 -76.06,-46.26 -136.2,-107.16 -174.55,-196.58zm730.87 -112.65c-32.26,90.07 -72.38,170.72 -146.28,234.32 -5.34,4.59 -7.15,19.11 -4.33,25.97 24.95,62.85 66.99,112.15 122.83,150.76 15.93,10.94 26.22,8.16 41.14,-6.4 56.2,-54.89 88.16,-120.01 110.48,-190.33 7.77,-24.2 5.2,-40.38 -13.4,-56.96 -21.92,-19.61 -39.73,-44.21 -56.45,-68.55 -18.85,-27.02 -34.53,-56.31 -53.99,-88.81zm-362.87 101.92c-5.75,9.06 -10.08,14.27 -12.64,20.15 -25.47,55.3 -57.58,107.42 -103.44,150.07 -23.59,21.81 -26.51,38.36 -16.18,63.85 26.51,64.87 65.33,119.37 124.2,158.78 17.09,11.59 34.53,10.54 49.34,-8.82 21.63,-28.17 47.38,-54.89 62.66,-85.63 20.52,-41.39 32.87,-85.85 48.18,-129.19 4.95,-13.87 -2.06,-21.02 -13.25,-29.8 -36.19,-28.82 -70.07,-60.28 -103.33,-92.24 -13.4,-13 -22.69,-29.83 -35.54,-47.17zm-194.06 -238.88c-7.51,10.58 -11.49,16.94 -16.18,22.79 -34.78,44.6 -66.13,92.24 -105.5,132.51 -28.03,28.68 -37.6,48.04 -20.41,81.67 34.53,66.78 79.14,122.97 144.87,162.2 17.48,10.33 31.1,7.51 44.86,-7.77 18.24,-20.51 38.21,-40.12 53.52,-62.55 32.22,-46.88 68.05,-93.51 68.55,-150.86 0,-8.17 -4.33,-19.36 -10.72,-22.69 -67.9,-35.54 -120.78,-85.23 -158.99,-155.3zm359.18 -45.76c-28.56,66.53 -71.22,130.49 -131.9,180.95 -21.12,17.59 -20.51,31.45 -17.95,49.8 0.91,6.11 3.58,12.1 6.25,17.45 30.95,61.54 78.48,108.06 136.96,144.9 20.66,12.97 35.54,0.76 49.44,-13.26 65.99,-66.02 105.5,-144.1 128.69,-228.83 2.02,-8.17 -0.15,-21.02 -5.85,-25.36 -54.18,-42.44 -109.58,-83.47 -165.64,-125.65zm-375.11 -366.81c-81.3,17.95 -139.27,63.46 -184.49,124.46 -77.21,104.74 -99.28,216.74 -67.68,330.01 10.98,39.26 33.66,74.79 54.43,109.83 13,21.92 32.61,19.9 51.57,-3.54 35.07,-43.09 69.86,-86.29 106.66,-127.93 29.83,-33.66 42.29,-65.62 16.94,-101.31 -5.71,-8.16 -6.36,-20.11 -9.03,-30.3 -26.76,-97.88 -32.11,-196.12 31.6,-301.22zm364.39 -55.04c16.32,38.1 36.58,73.64 47.42,112.76 21.27,77.07 11.05,157.47 -11.74,238.26 -2.92,10.44 -3.83,26.77 2.31,32.22 49.05,43.59 98.75,86.54 150.58,127.06 21.02,16.29 41.17,8.27 53.67,-18.74 12.85,-27.78 25.71,-56.31 31.81,-85.13 35.07,-160.4 -4.29,-289.08 -139.37,-374.72 -40.53,-25.46 -86.76,-36.04 -134.68,-31.71zm-334.7 420.73c29.29,63.67 76.42,111.96 134.43,150.83 35.03,23.58 43.16,21.81 75.92,-11.96 113.76,-116.48 155.95,-251.38 146.52,-396.78 -2.53,-37.96 -15.67,-78.34 -37.34,-107.92 -51.22,-69.82 -142.81,-87.91 -229.09,-49.3 -79.86,35.94 -131.47,100.01 -136.45,200.41 -3.94,77.62 14.66,147.94 46.01,214.72zm704.57 389.89c-23.29,84.98 -61.25,162.96 -128.28,226.63 -14.27,13.51 -35.29,20.26 -61.04,34.28 -25.21,63.71 -66.24,130.6 -126.27,187.05 -35.03,33.01 -38.86,35.03 -72.88,30.7 -21.02,31.35 -40.27,63.6 -62.96,93.65 -31.56,41.79 -53.74,43.95 -86.6,11.23 -23.34,-23.19 -45.76,-47.42 -69.86,-72.63 -26.47,19 -49.8,8.02 -72.88,-5.35 -64.47,-37.2 -109.8,-91.88 -147.54,-154.18 -51.72,16.43 -80.25,-16.54 -105.35,-43.31 -40.67,-43.7 -73.03,-94.8 -111.5,-146.16 -18.6,5.49 -35.68,-6.76 -49.44,-25.61 -101.02,-138.62 -103.84,-379.05 45.76,-543.67 8.78,-9.68 15.02,-24.05 17.19,-36.55 16.94,-97.59 54.39,-187.7 132.52,-260.84 54.89,-51.47 118.75,-86.61 193.8,-93.9 11.45,-1.12 24.05,-7.63 34.28,-14.52 74.51,-51.07 150.06,-60.5 227.79,-34.03 10.72,3.72 23.69,5.39 35.43,3.33 131.36,-23.59 219.92,30.84 290.38,120.66 32.11,40.89 47.78,89.07 60.64,139.13 1.52,6.25 5.6,12.89 10.69,16.68 139.16,102.72 176.98,247.44 141.08,421.13 -7.41,36.05 -23.48,71.84 -38.51,106.76 -9.67,22.54 -28.13,39.12 -56.45,39.52z"/>
  <path class="fil2" d="M27498.15 9741.53c-95.81,5.24 -182.71,-12.75 -256.86,-80.65 -72.89,-66.78 -112.87,-209.59 -78.99,-301.58 53.78,-145.62 133.02,-207.82 300.57,-219.56 131.1,-9.17 259.03,13.26 373.85,80.55 65.73,38.46 122.8,93.76 181.81,143.96 19.76,16.97 19.87,40.27 3.18,65.52 -93.65,142.04 -220.06,234.94 -378.8,279.4 -47.67,13.25 -96.47,21.67 -144.76,32.36z"/>
  <path class="fil2" d="M27227.67 9733.58c13.51,1.63 22.43,0.36 28.79,3.94 125.61,69.96 255.6,57.21 386.96,23.19 26.25,-6.76 54.28,-11.45 77.72,-24.71 48.15,-27.27 89.57,-20.01 129.59,15.53 63.96,56.82 128.18,113.41 191.85,170.37 23.59,21.02 21.82,45.47 -2.92,60.39 -52.98,31.85 -105.61,69.41 -163.21,87 -195.07,60.03 -375.37,27.16 -530.42,-117.2 -60.28,-56.2 -99.9,-126.77 -118.36,-218.51z"/>
  <path class="fil2" d="M27190.22 9188.39c-2.67,-85.88 28.13,-162.31 78.23,-229.2 92.1,-122.58 214.03,-192.39 362.62,-210.13 88.41,-10.69 174.41,0 258.78,28.43 8.27,2.82 16.54,5.74 24.45,9.43 74.04,34.67 80.39,55.94 27.12,119.9 -57.82,68.92 -119.37,134.4 -180.91,199.52 -8.42,8.81 -28.03,11.99 -40.63,9.06 -131.76,-30.08 -263.77,-47.93 -394.37,1.37 -46.77,17.74 -89.42,46.92 -135.29,71.62z"/>
  <path class="fil2" d="M27849.68 9675.15c29.19,-22.43 67.65,-44.86 97.34,-76.57 45.47,-48.54 85.89,-102.83 126.41,-156.35 14.01,-18.6 25.86,-28.79 50.82,-27.27 90.72,5.88 157.86,62.34 227.93,111.89 23.44,16.54 42.94,39.11 64.36,58.73 25.21,23.18 22.79,48.28 4.84,74.29 -76.96,110.84 -177.73,188.67 -300.46,235.19 -10.04,3.83 -27.52,1.01 -35.39,-5.99 -78.88,-69.92 -156.46,-141.55 -235.85,-213.92z"/>
  <path class="fil2" d="M27807.39 9146.1c55.8,-63.46 109.04,-123.84 162.17,-184.38 4.33,-4.69 7.91,-10.07 11.48,-15.27 47.89,-69.46 47.89,-69.57 126.27,-45.01 106.15,33.27 199.15,88.82 274.96,174.96 18.45,21.02 21.41,40.88 6.25,62.19 -68.45,95.28 -146.79,177.73 -257.52,218.36 -25.75,9.43 -45.11,6 -64.61,-18.6 -69.82,-88.05 -158.74,-149.45 -259,-192.25z"/>
  <path class="fil2" d="M28211.14 9380.83c39.88,-31.75 82.57,-60.28 119.01,-96.07 38.07,-37.6 71.48,-80.8 103.95,-124.1 12.74,-16.98 23.98,-23.08 43.08,-19 117.96,25.35 221.04,80.4 309.49,166.28 17.55,17.19 21.02,32.72 5.6,52.63 -77.98,100.76 -173.04,176.21 -292.15,215.18 -7.8,2.57 -21.28,1.81 -25.86,-3.43 -72.02,-85.38 -161.59,-143.6 -260.44,-188.06 -0.91,-0.4 -1.41,-1.81 -2.68,-3.43z"/>
  <path class="fil2" d="M28112.33 8845.03c46.88,-30.2 90.07,-55.04 130.09,-84.48 42.44,-31.06 81.3,-67.5 123.09,-99.5 11.34,-8.67 29.18,-15.68 42.04,-13 110.08,22.57 207.56,71.76 288.86,154.43 22.29,22.68 24.82,38.72 4.59,68.16 -60.28,87.29 -141.33,143.24 -233.32,184.63 -10.18,4.58 -30.44,1.91 -37.45,-5.85 -78.48,-88.31 -171.99,-150.61 -281.32,-188.07 -11.23,-3.83 -21.81,-9.68 -36.58,-16.32z"/>
  <path class="fil2" d="M28197.82 9919.7c12.75,-7.52 30.44,-18.21 48.43,-28.79 88.67,-51.72 165.13,-118.5 221.94,-207.42 14.92,-23.44 30.34,-27.78 55.69,-20.77 92.75,25.72 171.88,76.46 242.96,142.05 23.19,21.56 26.87,43.2 4.84,73.28 -68.3,93.4 -156.2,156.57 -260.44,196.34 -11.09,4.22 -27.38,3.68 -37.7,-1.92 -91.74,-49.55 -182.58,-100.77 -275.72,-152.77z"/>
  <path class="fil2" d="M28480.25 10147.67c-144.97,161.19 -542.51,187.55 -714.4,-0.65 135.44,-25.86 267.2,-57.57 361.75,-179.65 129.56,29.04 247.55,89.82 352.65,180.3z"/>
  <path class="fil2" d="M27665.77 8686.22c115.8,-185.28 555.27,-254.19 703.57,-104.23 -44.61,40.52 -86.25,84.73 -133.93,119.76 -51.32,37.71 -108.42,66.78 -162.96,99.5 -18.6,11.35 -32.97,7.66 -49.3,-8.16 -48.65,-47.38 -109.07,-69.42 -173.54,-79.74 -60.5,-9.68 -121.43,-17.96 -183.84,-27.13z"/>
  <path class="fil2" d="M28561.91 9614c45.73,-28.93 91.99,-52.01 131.11,-84.37 46.48,-38.07 87.91,-83.07 129.44,-127.39 14.67,-15.67 24.35,-25.35 46.13,-12.38 55.69,33.15 112.64,63.6 168.81,95.71 23.58,13.5 24.74,32.72 11.08,55.55 -56.81,96.32 -136.3,166.53 -231,218.76 -6.61,3.68 -20.52,1.91 -25.97,-3.18 -61.04,-56.96 -130.6,-97.59 -206.91,-126.41 -7.66,-2.93 -13.77,-9.68 -22.69,-16.29z"/>
  <path class="fil2" d="M28510.77 9094.89c90.84,-48.8 164.08,-104.49 223.21,-179.4 4.33,-5.6 20.76,-5.09 29.68,-1.8 97.23,36.19 181.96,91.99 249.1,175.2 16.69,20.66 19.36,40.38 -0.65,57.1 -51.06,42.55 -102.82,84.19 -156.06,123.6 -8.16,6.1 -30.7,3.54 -38.35,-4.09 -84.08,-84.87 -185.5,-135.43 -306.93,-170.61z"/>
  <path class="fil2" d="M28866.74 9327.01c16.94,-11.09 31.46,-19.75 45.11,-29.83 34.13,-25.61 68.92,-50.56 101.17,-78.34 21.78,-18.6 40.27,-25.24 65.62,-7.01 40.13,28.79 82.17,54.79 124.72,82.93 -35.69,61.94 -82.93,96.83 -132.27,128.83 -6.86,4.59 -21.38,1.52 -30.3,-3.07 -56.05,-29.18 -111.74,-59.74 -174.05,-93.51z"/>
  <path class="fil2" d="M25751.2 10077.56c-4.95,-108.56 6.5,-213.81 47.68,-314.87 53.38,-130.7 144.21,-183.83 254.3,-181.67 119.26,2.28 217.64,83.58 244.51,208.69 11.34,52.77 7.77,114.92 -7.4,167.04 -57.72,199.55 -170.84,353.08 -359.04,437.31 -54.29,24.31 -64.47,21.63 -94.31,-31.5 -49.55,-88.16 -81.77,-181.92 -85.74,-285z"/>
  <path class="fil2" d="M26341.36 9725.85c58.11,24.09 107.3,67.15 142.44,126.52 117.49,198.25 102.47,394.33 -14.26,586.22 -20.88,34.53 -49.45,64.61 -77.58,93.54 -27.27,28.03 -54.68,26.23 -71.37,-8.41 -41.54,-86.39 -79.49,-174.7 -116.08,-263.51 -4.44,-11.09 4.22,-32.22 12.5,-44.21 64.86,-93.51 114.92,-194.31 126.51,-310.25 5.75,-58.72 -1.01,-118.86 -2.16,-179.9z"/>
  <path class="fil2" d="M25889.46 9571.81c-124.24,100.16 -164.37,234.59 -179.54,381.47 -1.52,15.43 -6.5,31.61 -3.58,46.02 12.61,63.56 -17.08,98.24 -67.9,124.6 -62.7,32.36 -123.73,68.3 -184.99,103.84 -33.41,19.36 -57.1,9.82 -61.94,-27.52 -7.76,-59.63 -17.44,-121.18 -11.74,-180.15 16.72,-170.73 95.32,-306.31 235.34,-397.66 81.55,-53.12 170.87,-77.47 274.35,-50.6z"/>
  <path class="fil2" d="M26154.34 10294.74c45.62,91.23 90.98,180.55 134.18,270.77 4.58,9.42 1.15,28.02 -5.24,37.31 -67.25,98.63 -150.32,177.87 -258.64,224.75 -22.82,9.94 -45.86,17.09 -63.96,-13.11 -50.96,-85.74 -84.48,-177.37 -91.48,-278.53 -0.76,-9.03 -1.01,-18.46 1.01,-27.13 5.49,-26.15 11.23,-45 44.35,-55.29 94.92,-29.33 175.06,-87.8 239.78,-158.77z"/>
  <path class="fil2" d="M25712.77 10131.49c11.85,117.2 50.21,216.48 112.51,306.16 5.85,8.53 5.7,26.01 1.62,36.84 -27.52,76.17 -91.59,115.79 -151.36,158.38 -28.39,20.26 -61.01,34.02 -92.1,49.8 -23.19,11.85 -40.63,7.15 -56.06,-17.44 -58.36,-93.4 -83.86,-196.37 -92.64,-306.71 -4.33,-55.55 16.18,-75.41 62.45,-96.07 65.08,-29.04 124.35,-72.85 186,-110.7 8.27,-4.99 16.08,-10.98 29.58,-20.26z"/>
  <path class="fil2" d="M25826.76 10570.89c6.86,31.1 9.68,59.52 19.21,85.02 23.7,63.42 48.44,126.52 77.22,187.41 8.78,18.85 13.65,32.61 1.41,48.14 -38.36,48.18 -74.04,99.65 -117.6,141.95 -32.25,31.34 -75.05,51.1 -113.66,75.05 -26.51,16.57 -47.28,7 -61.94,-19.11 -50.06,-89.17 -69.81,-186.04 -69.92,-289.12 -0.15,-40.38 11.19,-60.64 49.05,-75.01 73.89,-28.17 135.94,-77.47 191.89,-135.44 5.7,-6.14 13.36,-10.48 24.34,-18.89z"/>
  <path class="fil2" d="M26299.06 10661.61c7.52,55.55 11.99,104.24 21.02,152.02 8.17,43.05 17.34,86.76 33.77,126.77 13.76,33.63 9.03,56.71 -11.34,84.08 -59.48,79.75 -127.67,146.64 -219.27,184.64 -24.23,10.04 -37.74,7.51 -51.1,-17.2 -46.88,-86.28 -72.74,-178.13 -72.38,-277.38 0.14,-11.08 9.07,-29.18 17.48,-32 116.55,-38.46 201.57,-121.03 281.82,-220.93z"/>
  <path class="fil2" d="M25391.62 10355.45c2.53,143.35 43.81,261.85 110.84,370.92 -57.97,85.35 -127.67,152.63 -219.41,193.77 -27.27,12.39 -44.35,11.23 -59.99,-18.2 -49.7,-92.64 -73.64,-191.64 -70.46,-297.39 0.5,-14.38 7.87,-34.78 18.45,-41.64 75.45,-48.83 138.51,-111.64 195.47,-182.11 4.58,-5.59 10.18,-10.29 25.1,-25.35z"/>
  <path class="fil2" d="M25373.96 10292.57c-62.59,98.24 -147.07,176.22 -245.42,238.77 -20.62,13.26 -33.52,8.42 -39.51,-18.24 -17.05,-74.65 -13.36,-149.2 1.66,-223.09 32.11,-157.62 105.64,-287.57 238.16,-376.13 5.85,-3.83 12.85,-6.25 24.7,-11.85 -24.09,134.04 -45.98,264.13 20.41,390.54z"/>
  <path class="fil2" d="M26589.59 10328.14c11.74,38.36 28.57,75.81 34.28,115.07 29.07,199.77 -26.48,372.81 -157.33,520.09 -30.48,34.39 -43.45,32.51 -59.78,-9.32 -37.09,-95.67 -58.61,-194.92 -59.62,-298.65 -0.26,-24.45 5.23,-39.87 29.94,-53.13 65.87,-35.03 107.91,-96.32 144.1,-161.66 19.76,-35.68 36.95,-73.03 55.3,-109.58l13.11 -2.82z"/>
  <path class="fil2" d="M25956.13 10944.05c3.72,88.96 23.84,173.29 61.94,252.93 4.19,8.78 -0.25,27.92 -7.15,35.79 -64.47,73.14 -139.63,130.49 -232.02,158.77 -10.18,3.07 -30.3,-2.81 -34.89,-11.23 -34.42,-62.41 -50.6,-131.36 -54.28,-202.83 -0.51,-9.79 13.36,-23.05 23.44,-30.31 50.56,-36.44 104.99,-67.79 152.27,-108.46 31.57,-27.12 53.38,-66.74 79.6,-100.76 3.72,2.02 7.41,4.08 11.09,6.1z"/>
  <path class="fil2" d="M25509.32 10813.52c14.63,66.78 30.85,145.66 50.06,223.5 5.6,23.44 16.94,46.77 30.7,66.13 15.93,22.28 16.18,40.02 -3.68,56.7 -45.87,38.72 -91.85,77.47 -139.12,114.53 -17.74,13.76 -30.85,6.9 -45.62,-12.61 -58.87,-78.08 -82.96,-169.31 -97.08,-264.77 -1.81,-11.2 2.92,-29.15 10.94,-35.4 66.53,-52.62 134.43,-103.22 193.8,-148.08z"/>
  <path class="fil2" d="M25536.2 11495.2c-17.2,-61.91 -32.37,-114.28 -45.87,-167.15 -2.28,-8.52 -0.36,-22.94 5.23,-28.17 45.73,-43.2 92.9,-84.73 141.29,-128.18 16.84,69.31 34.28,135.83 47.93,203.23 2.28,10.98 -9.32,30.34 -19.75,37.85 -37.6,26.76 -77.37,49.95 -128.83,82.42z"/>
  <path class="fil2" d="M27145.29 10913.46c-31.35,-66.78 -49.95,-137.1 -45.98,-214.72 4.95,-100.4 56.56,-164.62 136.45,-200.41 86.25,-38.61 177.74,-20.52 229.09,49.3 21.64,29.58 34.78,69.96 37.31,107.92 9.43,145.4 -32.72,280.3 -146.52,396.78 -32.73,33.63 -40.89,35.54 -75.92,11.96 -57.97,-38.87 -105.25,-87.16 -134.43,-150.83z"/>
  <path class="fil2" d="M27479.99 10492.69c47.92,-4.33 94.15,6.25 134.68,31.86 135.08,85.49 174.44,214.32 139.37,374.61 -6.1,28.78 -18.96,57.46 -31.81,85.09 -12.5,27.02 -32.65,35.03 -53.67,18.74 -51.83,-40.37 -101.53,-83.32 -150.58,-127.02 -6.14,-5.49 -5.23,-21.81 -2.31,-32.25 22.79,-80.76 33.01,-161.16 11.74,-238.27 -10.84,-38.97 -31.1,-74.65 -47.42,-112.76z"/>
  <path class="fil2" d="M27115.56 10547.81c-63.71,104.99 -58.36,203.38 -31.6,301.22 2.67,10.18 3.32,22.03 9.03,30.19 25.36,35.68 12.9,67.65 -16.94,101.31 -36.8,41.64 -71.58,84.84 -106.51,127.89 -19.1,23.48 -38.61,25.5 -51.72,3.58 -20.76,-35.04 -43.45,-70.47 -54.43,-109.84 -31.6,-113.26 -9.53,-225.11 67.8,-330 45.11,-61 103.07,-106.36 184.37,-124.35z"/>
  <path class="fil2" d="M27490.71 10914.58c56.06,42.29 111.46,83.18 165.64,125.62 5.7,4.44 7.87,17.33 5.85,25.35 -23.19,84.87 -62.7,162.85 -128.69,228.84 -13.9,14.01 -28.78,26.26 -49.44,13.25 -58.48,-36.84 -106.01,-83.32 -136.96,-144.86 -2.67,-5.35 -5.34,-11.34 -6.25,-17.34 -2.56,-18.49 -3.17,-32.25 17.95,-49.95 60.68,-50.46 103.34,-114.42 131.9,-180.91z"/>
  <path class="fil2" d="M27131.49 10960.34c38.36,69.96 91.23,119.8 158.99,155.34 6.39,3.32 10.73,14.52 10.73,22.54 -0.51,57.46 -36.34,103.98 -68.55,151 -15.17,22.29 -35.18,42.04 -53.53,62.41 -13.62,15.32 -27.38,18.24 -44.86,7.91 -65.73,-39.26 -110.33,-95.56 -144.72,-162.31 -17.33,-33.51 -7.76,-53.02 20.26,-81.55 39.37,-40.27 70.83,-87.91 105.5,-132.51 4.7,-6 8.67,-12.25 16.18,-22.83z"/>
  <path class="fil2" d="M27325.59 11199.18c12.85,17.34 22.17,34.28 35.54,47.17 33.26,31.97 67.14,63.42 103.33,92.25 11.23,8.92 18.09,15.92 13.25,29.94 -15.28,43.19 -27.63,87.65 -48.29,129.04 -15.17,30.74 -40.88,57.47 -62.55,85.78 -14.77,19.36 -32.25,20.23 -49.3,8.63 -58.87,-39.36 -97.73,-93.76 -124.24,-158.73 -10.33,-25.5 -7.41,-42.04 16.18,-63.86 45.86,-42.65 77.97,-94.77 103.33,-150.06 2.67,-5.89 7,-11.09 12.75,-20.16z"/>
  <path class="fil2" d="M27688.42 11097.3c19.5,32.47 35.18,61.79 54.03,88.81 16.8,24.31 34.53,48.9 56.45,68.55 18.71,16.54 21.13,32.72 13.47,56.96 -22.39,70.32 -54.39,135.44 -110.59,190.33 -14.88,14.52 -25.21,17.45 -41.13,6.36 -55.7,-38.61 -97.74,-87.91 -122.84,-150.72 -2.78,-6.86 -0.9,-21.41 4.48,-26 73.9,-63.57 113.88,-144.22 146.13,-234.29z"/>
  <path class="fil2" d="M26957.66 11209.91c38.36,89.57 98.35,150.32 174.41,196.59 -19.86,73.39 -52.88,139.37 -108.17,196.22 -16.54,16.94 -29.18,21.92 -47.89,8.67 -59.38,-41.68 -101.92,-96.07 -126.67,-163.87 -3.32,-9.17 -3.17,-24.59 2.68,-32.5 41.79,-56.16 71.11,-117.09 94.05,-180.66 1.77,-5.09 4.58,-9.93 11.59,-24.45z"/>
  <path class="fil2" d="M26928.8 11176.18c-19.75,83.07 -60.78,160.79 -115.32,233.31 -11.59,15.28 -22.03,16.55 -33.26,1.88 -31.21,-41.39 -47.53,-89.68 -55.66,-141.4 -17.08,-110.23 2.53,-216.99 75.16,-317.4 3.32,-4.58 7.77,-8.41 14.77,-15.92 16.94,92.75 34.42,182.06 114.31,239.53z"/>
  <path class="fil2" d="M27812.23 10789.04c18.35,20.26 39.87,38.21 54.03,61 71.84,116.33 76.06,244.15 19.72,381.11 -13.11,32 -23.04,35.17 -45.33,14.26 -51.25,-47.89 -91.99,-103.18 -119.26,-168.3 -6.39,-15.28 -6.5,-26.87 8.13,-43.6 38.25,-44.2 52.88,-97.19 62.19,-150.57 5.1,-29.18 7.91,-58.51 11.85,-87.8 2.93,-2.02 5.85,-4.08 8.67,-6.1z"/>
  <path class="fil2" d="M27513.87 11391c25.46,54.9 61.39,101.31 109.18,138.76 5.23,4.09 6.86,17.59 3.93,24.96 -27.63,67.79 -66.99,129.34 -126.26,178.28 -6.36,5.34 -22.43,8.37 -27.88,4.69 -40.78,-27.77 -69.96,-65.73 -90.87,-109.69 -2.93,-5.99 3.72,-19 9.06,-27.01 27.12,-40.13 58.22,-78.12 81.91,-119.66 15.82,-27.77 21.42,-60.13 31.5,-90.47 3.18,0 6.36,0.14 9.43,0.14z"/>
  <path class="fil2" d="M27159.23 11459.19c27.67,37.2 59.38,81.41 93,124.24 10.22,12.72 24.24,23.7 39.12,31.21 17.08,8.78 21.81,19.86 11.84,37.09 -23.18,39.87 -46.37,79.75 -70.97,119.12 -9.03,14.66 -20.22,14.77 -35.9,7.4 -62.19,-29.44 -102.97,-78.88 -137.5,-134.18 -4.08,-6.64 -5.34,-19.5 -1.26,-26.11 34.53,-55.55 70.57,-110.48 101.67,-158.77z"/>
  <path class="fil2" d="M27352.71 11880.14c-28.28,-33.27 -52.48,-61.19 -75.81,-89.97 -3.68,-4.59 -6.1,-14.27 -3.43,-19.5 22.03,-42.66 45.22,-84.74 68.91,-128.55 29.83,38.11 59.38,74.15 86.39,112.11 4.48,6.14 1.01,22.32 -4.44,30.49 -20.26,29.54 -42.94,57.71 -71.62,95.42z"/>
  <path class="fil0" d="M21198.92 6668.39c-19.76,-16.33 -39.77,-32.9 -65.74,-54.28 -16.68,26.47 -32,50.05 -46.88,73.64 -254.19,402.24 -498.85,811.48 -766.8,1203.42 -131.21,192 -299.81,357.89 -462.48,523.67 -128.32,130.6 -285.04,217.6 -465.98,251.77 -114.03,21.63 -234.8,3.18 -335.1,-54.03 103.73,170.87 306.71,241.04 492.1,206.01 180.91,-34.27 337.51,-121.17 465.8,-251.77 162.85,-165.74 331.27,-331.63 462.52,-523.52 132.01,-193.16 258.27,-390.39 382.88,-589.04 83.21,-245.27 188.46,-481.26 304.75,-712.37 11.09,-22.43 21.56,-45.22 34.93,-73.5z"/>
  <path class="fil0" d="M16304.93 8152.34c-305.91,265.67 -624.18,513.47 -961.19,734.66 -160.79,105.39 -323.75,206.91 -509.9,256.61 -119.01,31.75 -229.74,18.09 -319.31,-29.29 90.72,155.7 270.77,236.1 476.28,181.31 186,-49.7 349.1,-151.26 509.9,-256.76 336.9,-220.93 655.16,-468.87 961.08,-734.52 12.6,-10.98 25.5,-21.67 38.35,-32.36 -12.6,-75.81 -18.2,-162.09 -17.84,-263 -62.81,50.45 -121.68,94.95 -177.37,143.35z"/>
  <path class="fil0" d="M13532.93 7458.96c-48.03,102.32 -77.43,216.88 -98.85,329.24 -19.25,100.16 35.94,136.85 121.18,82.21 20,-12.9 39.72,-26.41 59.62,-39.91 18.71,-75.81 42.7,-150.47 74.91,-219.52 307.47,-654.01 620.13,-1305.24 932.3,-1956.83 122.69,-255.97 248.59,-510.41 376.12,-771.86 -57.21,-40.89 -114.17,-81.81 -171.23,-122.69 -122.58,251.12 -243.76,496.14 -361.86,742.57 -312.16,651.59 -624.86,1302.78 -932.19,1956.79z"/>
  <path class="fil0" d="M14765.4 7300.4c-57.57,69.57 -113.01,137.97 -169.83,204.75 -415.74,488.23 -827.3,980.33 -1250.3,1461.7 -124.24,141.54 -276.12,258.38 -424.05,374.72 -65.48,51.46 -149.2,88.67 -229.71,106.36 -92.13,20.41 -178.78,7.8 -251.91,-29.69 81.55,141.94 235.33,219.92 408.73,181.85 80.65,-17.73 164.26,-54.93 229.85,-106.54 147.83,-116.33 299.7,-233.14 424.06,-374.72 368.35,-419.32 728.15,-846.66 1089.61,-1272.59 79.79,-158.01 164.27,-313.71 248.74,-474.61 -22.06,-20.77 -45.61,-43.2 -75.19,-71.23z"/>
  <path class="fil0" d="M15459.97 7336.12c-71.62,144.98 -123.6,300.93 -178.38,454.21 -15.68,43.71 -16.19,96.08 -12.75,143.61 7.91,103.72 70.97,154.29 155.55,127.02 -1.51,-40.27 1.05,-82.42 13.91,-118.5 55.04,-153.39 107.01,-309.34 178.49,-454.35 283.77,-574.77 574.37,-1145.97 862.48,-1718.28 84.22,-167.29 168.41,-334.34 255.56,-507.23 -57.97,-40.16 -115.54,-80.04 -173.14,-119.91 -81.16,161.44 -160.29,318.27 -239.28,475.12 -288.07,572.35 -578.71,1143.4 -862.44,1718.31z"/>
  <path class="fil0" d="M18826.7 8235.41c-159.89,97.98 -314.07,201.57 -475.77,289.48 -299.26,162.6 -610.81,292.8 -946.16,350.91 -229.2,39.62 -432.43,4.33 -603.41,-121.32 198.25,246.94 456.38,325.92 760.12,273.3 335.5,-58.08 647.01,-188.17 946.2,-350.88 130.35,-70.71 255.46,-151.62 382.63,-231.51 -29.33,-53.02 -49.59,-114.92 -57.36,-185.89 -1.01,-9.68 -4.84,-19 -6.25,-24.09z"/>
  <path class="fil0" d="M10522.17 8317.97c10.98,118.36 74.94,189.69 165.78,202.94 -3.94,-15.92 -7.26,-32.86 -8.92,-50.96 -9.43,-101.27 1.77,-206.01 15.17,-307.68 11.59,-89.72 19.86,-204.5 43.3,-306.06l-198.61 140.28c-0.54,4.59 -1.15,9.32 -1.66,13.76 -13.25,101.56 -24.34,206.41 -15.06,307.72z"/>
  <path class="fil0" d="M9473.25 9227.91c-286.41,233.02 -591.56,429.86 -939.66,548.62 -484.29,165.12 -902.2,56.95 -1267.64,-256.22 11.23,13 22.57,25.72 34.53,37.96 393.97,399.46 850.74,554.11 1389.97,370.27 348.21,-118.75 653.11,-315.59 939.66,-548.65l3.43 -2.67c-34.27,-45.87 -64.72,-105.11 -103.18,-194.57 -19.76,15.82 -38.51,30.2 -57.11,45.26z"/>
  <path class="fil0" d="M8423.36 3233.25c-147.03,570.94 -261.96,1149.14 -344.77,1734.09 -1.55,10.33 -2.31,20.52 -5.49,26.76 68.4,-55.94 138.87,-109.57 206.66,-166.13 77.98,-485.71 177.99,-966.72 300.32,-1442.71 210.23,-816.1 478.44,-1610.79 804.47,-2383.91 19,-45.26 14.27,-65.23 -28.53,-86.9 -42.95,-21.52 -85.64,-43.7 -128.18,-65.88 0,0.26 -0.11,0.51 -0.26,0.76 -325.92,773.16 -594.23,1567.81 -804.22,2383.92z"/>
  <path class="fil0" d="M6594.53 7493.74c-572.49,533.13 -1138.84,1073.62 -1719.46,1597.14 -595,536.66 -1231.71,1015.76 -1913.6,1426.16 -303.13,182.32 -620.89,329.86 -960.32,424.16 -365.29,101.52 -721.66,92.35 -1078.06,-54.18 -67.76,-27.77 -128.04,-60.89 -181.31,-99 80.65,106.77 191.89,190.99 338.31,251.02 356.37,146.53 712.59,155.56 1078.02,54.14 339.43,-94.27 657.19,-241.84 960.32,-424.16 681.79,-410.26 1318.46,-889.46 1913.49,-1426.12 557.18,-502.39 1101.36,-1020.6 1650.38,-1532.67 -5.6,-89.18 -9.79,-179.4 -15.53,-283.38 -29.55,27.41 -50.96,47.03 -72.24,66.89z"/>
  <path class="fil0" d="M12956.47 7237.31c-20.12,-8.67 -39.12,-14.52 -55.8,-24.2 -37.31,-21.92 -59.74,-8.92 -85.09,24.96 -207.97,277.01 -413.87,555.91 -627.79,827.55 -336.51,426.98 -683.56,843.99 -1105.19,1184.17 -191.1,154.19 -391.8,291.14 -630.32,351.17 -242.56,61.04 -472.45,31.71 -684.56,-104.99 36.55,58.36 74.4,95.82 129.44,134.03 219.67,152.38 459.05,186.65 711.98,122.98 238.52,-60.03 439.18,-196.88 630.32,-351.17 421.59,-340.33 768.82,-757.23 1105.04,-1184.17 90.98,-115.33 180.3,-232.16 269.11,-349.51 92.89,-189.22 192.9,-374.61 300.57,-555.77 13.65,-23.19 26.51,-47.03 42.29,-75.05z"/>
  <path class="fil0" d="M2543.56 8766.15c-41.83,76.71 -87.16,151.47 -136.09,223.35 -83.33,122.43 -148.95,249.49 -149.46,405.81 -0.39,137.75 58.37,224.4 169.21,250.76 -8.16,-29.33 -12.49,-62.19 -12.35,-98.74 0.51,-156.35 66.24,-283.38 149.45,-405.71 48.91,-71.83 94.27,-146.89 135.95,-223.45 39.11,-71.52 20.01,-140.03 -29.44,-198.03 -25.24,-29.55 -55.18,-57.58 -88.16,-76.07 -10.58,-5.96 -21.16,-11.84 -31.75,-17.84 18.75,43.7 19.25,91.12 -7.36,139.92z"/>
  <path class="fil0" d="M10177.65 4100.31c-747.01,624.58 -1449.86,1303.94 -2153.92,1980.89 -52.88,50.85 -78.99,101.56 -83.07,177.12 -13.91,263.22 -43.6,525.97 -50.21,789.34 -10.18,406.17 23.7,809.2 136.06,1201 47.27,164.33 120.92,314.04 258.52,417.41 9.58,7.26 19.25,13.87 28.93,20.37 -60.38,-84.23 -100.65,-182.07 -130.45,-285.8 -112.4,-391.65 -146.42,-794.79 -136.34,-1201 6.61,-263.37 36.44,-525.94 50.45,-789.31 3.94,-75.45 30.09,-126.26 82.96,-177.12 704.07,-676.94 1406.88,-1356.31 2153.92,-1980.88 861.83,-720.29 1739.95,-1419.26 2611.06,-2127.3 43.45,-35.54 87.55,-70.32 130.6,-105 -6.25,-10.32 -7.62,-14.91 -10.55,-17.33 -51.75,-42.4 -103.47,-84.84 -155.34,-127.39 -40.27,32.22 -81.01,64.58 -121.67,97.59 -871.12,708.15 -1749.12,1407.02 -2610.95,2127.41z"/>
  <path class="fil0" d="M22003.1 7795.25c-223.38,213.81 -447.85,426.32 -705.51,594.77 -60.75,39.62 -127.53,77.73 -196.33,93.11 -56.56,12.9 -112.36,6.25 -162.57,-15.53 64.98,124.75 189.69,196.84 319.42,167.55 68.81,-15.42 135.7,-53.38 196.34,-93 257.77,-168.45 482.27,-381.11 705.37,-594.89 3.93,-3.57 21.12,-18.49 44.31,-38.61 -27.12,-81.3 -42.54,-163.86 -48.4,-247.69 -62.19,56.31 -143.96,125.87 -152.63,134.29z"/>
  <path class="fil0" d="M24434.77 6313.14c-3.83,-96.22 -27.27,-196.87 -64.47,-284.89 -37.35,-88.45 -92.14,-143.1 -163.22,-165.92 2.03,4.58 4.34,9.06 6.36,13.76 37.2,88.19 60.53,188.85 64.47,285.03 13.51,335.75 -72.89,649.07 -220.68,945.05 -185.5,371.28 -429.25,691.82 -754.67,939.91 -171.23,130.6 -356.51,230.86 -571.95,250.26 -105.89,9.53 -200.56,-3.22 -282.22,-47.68 105.75,166.54 255.71,216.23 439.08,199.66 215.44,-19.36 400.68,-119.62 572.06,-250.22 325.31,-248.09 569.03,-568.52 754.56,-939.95 147.79,-295.98 234.18,-609.3 220.68,-945.01z"/>
  <path class="fil0" d="M21852.42 6110.2c-130.99,340.69 -245.78,688.54 -362.76,1034.97 -23.69,70.21 -27.12,148.3 -36.55,223.21 -7.66,61.04 11.59,113.8 63.31,146.52 30.45,19.15 62.16,24.49 92.75,18.24 0.26,-4.22 0.26,-8.27 0.91,-12.75 9.42,-74.9 12.75,-153.02 36.55,-223.24 116.98,-346.43 231.51,-694.13 362.61,-1034.97 174.05,-451.93 362.26,-897.98 544.58,-1346.49 10.08,-24.84 25.35,-46.26 -6.5,-70.46 -46.63,-35.54 -93.26,-71.48 -140.03,-107.56 -2.42,8.31 -6.75,16.83 -10.44,25.9 -182.21,448.61 -370.52,894.55 -544.43,1346.63z"/>
  <path class="fil0" d="M19503.47 7654.28c13.51,96.18 75.41,143.06 153.79,127.28 -6.36,-62.45 -4.45,-126.92 2.81,-189.08 11.09,-96.46 33.37,-191.49 52.48,-295.98 -71.73,48.4 -141.04,94.16 -208.94,140.03 -0.14,1.26 -0.39,2.67 -0.54,3.94 -8.02,70.46 -9.53,144 0.4,213.81z"/>
  <path class="fil0" d="M22807.14 7785.86c-0.65,-5.24 -1.3,-10.33 -1.66,-15.82 -1.8,-29.29 0.91,-58.84 1.66,-93.26 11.45,-181.05 85.75,-343.62 173.01,-500.73 126.66,-227.57 280.45,-432.68 482.02,-591.85 65.22,-51.57 143.96,-90.83 222.44,-116.69 0.15,-7.91 0.29,-15.79 0.15,-23.7 -1.16,-103.22 -57.61,-160.43 -150.47,-130.6 -80.79,25.86 -161.95,65.99 -229.09,119.01 -201.57,159.13 -355.36,364.13 -481.88,591.82 -87.4,157.11 -161.69,319.71 -173.03,500.62 -0.76,34.38 -3.58,64.07 -1.66,93.5 7.76,120.56 68.44,183.73 158.51,167.7z"/>
  <path class="fil0" d="M23813.01 4813.09c-150.21,281.06 -302.74,560.75 -454.61,840.8 -63.46,116.84 -125.51,234.58 -190.73,350.27 -23.84,42.04 -18.6,69.56 23.44,93 93.4,-93.9 190.23,-183.33 301.57,-249.61 7.52,-13.86 15.07,-27.77 22.58,-41.64 151.87,-280.05 304.5,-559.74 454.61,-840.81 10.83,-20.26 14.91,-62.3 3.03,-75.3 -110.59,-122.19 -225.37,-240.43 -344.38,-365.44 -1.66,2.82 -3.18,4.99 -4.59,7.52 65.23,68.69 129.34,136.59 192,205.79 11.85,13.11 7.91,55.15 -2.92,75.42z"/>
  <path class="fil0" d="M19887.32 5341.84c-84.08,527.24 -375.87,913.55 -759.51,1242.29 -374.86,321.19 -795.04,558.44 -1236.43,758.6 -158.63,71.88 -320.54,136.09 -481.63,201.72 -36.8,14.91 -56.55,33.88 -66.09,77.72 -44.6,203.6 29.15,369.73 184.23,444.28 -40.66,-80.25 -51.86,-180.66 -27.41,-292.3 9.57,-43.81 29.33,-62.66 66.13,-77.72 161.19,-65.59 323,-129.81 481.52,-201.68 441.46,-200.16 861.68,-437.41 1236.54,-758.6 383.49,-328.74 675.39,-715.05 759.51,-1242.29 34.89,-218 6.36,-422.5 -139.16,-593.01 -34.89,-40.74 -73.39,-71.98 -114.38,-95.93 108.17,158.52 127.78,342.36 96.68,536.92z"/>
  <path class="fil0" d="M17616.27 6886.36c88.31,-35.04 175.21,-73.14 260.34,-114.53 20.37,-36.7 41.02,-73.39 62.55,-109.33 207.42,-345.93 442.51,-669.94 736.43,-940.96 99,-91.23 211.39,-168.56 324.8,-239.38 42.15,-26.41 95.17,-36.84 147.14,-43.99 -0.36,-21.78 -2.92,-43.81 -8.01,-66.35 -14.78,-64.87 -49.45,-98.49 -111.35,-90.62 -62.96,7.91 -132.16,16.18 -184.63,48.94 -113.52,70.83 -225.92,148.19 -324.77,239.42 -294.1,270.99 -528.9,594.89 -736.47,940.93 -73.13,121.67 -137.1,249.35 -205.25,374.35 4.08,3.43 8.16,6.86 12.21,10.19 9.06,-2.82 18.24,-5.24 27.01,-8.67z"/>
  <path class="fil2" d="M22650.25 7524.69c11.45,-180.94 85.74,-343.51 173,-500.62 126.67,-227.68 280.45,-432.68 482.02,-591.81 67,-53.02 148.3,-93.15 228.95,-119.01 92.89,-29.83 149.34,27.38 150.5,130.6 0.11,7.87 0,15.78 -0.14,23.69 -3.44,142.2 -52.74,271.39 -110.99,397.51 -126.27,272.79 -282.08,525.07 -490,737.47 -60.93,62.31 -132.66,118.25 -208.22,158.52 -24.2,13.01 -47.13,21.02 -68.3,24.85 -90.07,16.04 -150.61,-47.17 -158.48,-167.8 -1.81,-29.33 0.87,-59.01 1.66,-93.4zm-4867.98 -1014.2c207.56,-345.94 442.51,-669.94 736.46,-940.97 99,-91.23 211.25,-168.45 324.77,-239.42 52.51,-32.72 121.68,-40.88 184.63,-48.9 62.05,-7.91 96.58,25.86 111.35,90.58 5.09,22.54 7.66,44.72 8.02,66.39 1.41,77.47 -24.96,149.81 -60.9,218.25 -153.64,292.8 -365.03,534.1 -615.4,738.85 -184.63,151.01 -384.14,274.2 -594.63,376.52 -85.13,41.54 -171.88,79.5 -260.3,114.57 -8.81,3.54 -17.84,5.85 -27.01,8.77 -4.08,-3.43 -8.17,-6.9 -12.1,-10.18 68.01,-125 132.11,-252.68 205.11,-374.46zm4948.38 1785.81c215.44,-19.36 400.57,-119.66 571.95,-250.26 325.42,-247.94 569.13,-568.63 754.67,-939.91 147.79,-295.98 234.18,-609.3 220.53,-945.04 -3.79,-96.18 -27.12,-196.84 -64.32,-284.89 -2.06,-4.84 -4.34,-9.29 -6.4,-13.77 -61.76,-133.27 -166.39,-184.23 -309.09,-157.36 -102.07,19.25 -203.99,49.09 -300.17,89.21 -36.58,15.28 -71.47,33.27 -105.14,53.27 -111.34,66.24 -208.17,155.81 -301.57,249.57 -42.04,-23.44 -47.28,-50.96 -23.44,-93 65.22,-115.57 127.27,-233.42 190.73,-350.26 151.87,-280.06 304.4,-559.71 454.61,-840.77 10.83,-20.27 14.77,-62.34 2.92,-75.45 -62.66,-69.2 -126.77,-137.1 -192,-205.76 -50.09,-52.52 -100.65,-105.25 -152.37,-159.42 -15.17,24.99 -26.01,40.16 -34.42,56.7 -253.55,497.04 -514.38,990.41 -757.99,1492.65 -184.09,379.45 -352.4,767.31 -454.97,1180.49 -22.43,14.77 -42.59,27.78 -48.94,32.51 -169.86,124.71 -339.03,250.47 -509.9,373.3 -17.85,12.75 -36.84,21.17 -56.2,25.11 -30.59,6.1 -62.31,0.9 -92.64,-18.35 -51.83,-32.62 -71.08,-85.49 -63.43,-146.38 9.54,-74.95 12.86,-153.18 36.7,-223.39 116.95,-346.44 231.62,-694.14 362.62,-1034.97 174.05,-451.94 362.22,-897.99 544.54,-1346.49 3.57,-9.06 7.91,-17.59 10.47,-26 4.44,-14.78 3.29,-29.04 -16.98,-44.46 -139.77,-106.26 -277.74,-214.94 -421.74,-326.83 -13.22,25.36 -23.29,45.37 -34.13,64.87 -285.4,510.8 -563.93,1026.05 -858.39,1531.11 -310.76,532.73 -650.44,1045.42 -1046.07,1514.58 -93.5,110.84 -190.98,218.87 -320.18,285.65 -18.09,9.32 -35.68,15.53 -52.62,19 -78.37,15.78 -140.28,-31.1 -153.79,-127.32 -9.93,-69.81 -8.52,-143.31 -0.39,-213.77 0.14,-1.27 0.39,-2.68 0.54,-3.98 11.34,-95.02 33.12,-188.93 52.08,-292 -113.01,76.17 -220.42,145.62 -324.77,219.91 -121.17,86.4 -234.43,186.26 -360.45,263.48 -199.65,122.08 -403.64,237.9 -612.47,341.99 -180.15,89.83 -370.02,154.55 -576.29,136.96 -57.46,-4.95 -109.07,-18.85 -153.78,-40.38 -155.2,-74.55 -228.99,-240.68 -184.24,-444.31 9.54,-43.81 29.19,-62.81 65.99,-77.73 161.19,-65.59 322.99,-129.8 481.62,-201.68 441.35,-200.16 861.58,-437.41 1236.44,-758.6 383.63,-328.63 675.39,-715.05 759.51,-1242.29 31.2,-194.56 11.45,-378.43 -96.58,-536.92 -13,-19.1 -26.91,-37.85 -42.58,-56.2 -118.61,-138.76 -278.25,-169.46 -446.85,-165.12 -224.46,5.49 -431.52,80.39 -629.16,185.49 -388.83,206.81 -724.58,488.63 -1025.8,816.11 -439.07,477.29 -797.36,1011.53 -1022.98,1634.34 -40.67,112.5 -95.96,200.92 -191.78,262.71 -24.96,16.04 -53.49,26.01 -78.85,41.39 -149.99,91.24 -298.04,185.54 -449.15,274.35 -147.54,86.5 -296.23,171.38 -447.71,249.97 -10.83,5.6 -21.31,9.82 -31.49,13 -84.59,27.27 -147.65,-23.3 -155.56,-127.02 -3.43,-47.53 -2.93,-99.9 12.75,-143.61 54.9,-153.28 106.87,-309.23 178.35,-454.21 283.77,-574.91 574.4,-1145.96 862.47,-1718.31 78.99,-156.85 158.13,-313.68 239.43,-475.12 5.45,-10.69 10.83,-21.27 16.18,-32.11 -193.95,-134.28 -384.29,-266.29 -577.95,-400.57 -22.32,39.36 -41.03,71.47 -58.87,104.09 -330.15,597.7 -679.62,1181.5 -1104.54,1712.02 -321.62,401.52 -653.4,793.17 -1024.54,1145.46 -61.29,58.11 -128.07,110.84 -197.23,158.88 -19.76,13.65 -39.62,27.02 -59.63,39.91 -85.24,54.65 -140.28,17.95 -121.17,-82.2 21.38,-112.26 50.81,-226.93 98.85,-329.25 307.32,-654.01 620.13,-1305.2 932.29,-1956.79 118,-246.43 239.28,-491.45 361.86,-742.57 4.73,-9.68 9.43,-19.36 14.27,-29.33 -197.75,-141.54 -393.07,-281.57 -593.23,-425.02 -15.02,25.71 -27.27,46.88 -39.51,68.15 -273.41,478.44 -556.53,951.29 -889.21,1386.65 -434.49,568.26 -882.48,1125.19 -1329.04,1682.99 -234.72,293.05 -483.43,573.1 -773.16,808.84 -125.87,102.32 -252.78,204.5 -407.47,255.96 -43.81,14.67 -84.99,18.49 -121.79,13.11 -90.87,-13.25 -154.83,-84.58 -165.78,-202.94 -9.32,-101.31 1.77,-206.16 15.17,-307.72 0.51,-4.44 1.01,-9.17 1.52,-13.76 10.83,-87.55 19.61,-195.72 41.79,-292.3l-1022.63 722.06c-209.44,135.58 -423,264.63 -664.59,327.47 -201.42,52.23 -399.56,53.13 -579.46,-67.28 -9.68,-6.5 -19.36,-13.11 -28.93,-20.37 -137.46,-103.37 -211.11,-253.08 -258.38,-417.41 -112.4,-391.8 -146.39,-794.83 -136.2,-1201 6.61,-263.37 36.3,-526.12 50.31,-789.34 3.97,-75.56 30.08,-126.27 82.96,-177.12 704.07,-676.95 1406.91,-1356.31 2153.92,-1980.89 861.83,-720.39 1739.95,-1419.26 2611.09,-2127.41 40.49,-33.01 81.27,-65.37 121.68,-97.59 2.93,-2.31 5.96,-4.87 9.03,-7.29 -6.25,-10.3 -7.76,-14.88 -10.69,-17.3 -239.53,-196.73 -479.85,-392.45 -717.97,-590.95 -35.69,-29.69 -53.28,-8.67 -76.32,11.7 -263.62,232.92 -532.58,459.23 -789.74,699.77 -986.03,923.12 -1967.77,1851.33 -2952.79,2775.82 -29.8,27.92 -60.64,54.68 -92.1,80.8 -67.79,56.7 -138.26,110.34 -206.67,166.24 3.18,-6.35 3.94,-16.43 5.46,-26.72 82.81,-585.1 197.63,-1163.16 344.77,-1734.1 209.99,-816.1 478.34,-1610.79 804.26,-2383.91 0.11,-0.25 0.25,-0.51 0.25,-0.76 18.86,-44.75 13.87,-64.72 -28.67,-86.14 -136.2,-68.55 -270.23,-141.29 -405.17,-212.51 -244.11,-128.98 -488.12,-258.17 -737.08,-389.78 -8.92,23.33 -16.32,42.29 -23.47,61.54 -323.25,892.28 -606.08,1798.06 -803.57,2730.1 -117.85,555.88 -223.64,1115.37 -312.42,1677 -85.63,543.31 -142.08,1091.57 -213.96,1637.4 -4.69,35.8 -23.69,77.22 -48.9,101.28 -924.38,881.98 -1874.01,1732.83 -2863.37,2534.27 -294.82,238.88 -597.31,467.35 -931.9,643.82 -111.99,59.13 -226.52,110.09 -356,109.19 -27.78,-0.11 -52.99,-3.18 -76.17,-8.67 -110.85,-26.51 -169.61,-113.12 -169.21,-250.73 0.5,-156.35 66.24,-283.37 149.45,-405.81 49.05,-71.87 94.27,-146.78 136.09,-223.39 26.62,-48.79 26.11,-96.32 7.37,-139.88 -8.67,-20.4 -21.28,-39.87 -36.95,-58.22 -25.1,-29.43 -55.15,-57.61 -88.05,-76.06 -257.74,-144.11 -514.49,-290.38 -775.8,-426.58 -166.43,-86.65 -323.14,-49.84 -455.01,85.34 -52.98,54.29 -105.89,112.91 -142.69,179.4 -171.24,309.99 -341.75,620.64 -501.64,937.13 -54.64,107.92 -77.47,233.43 -114.67,350.92 -10.33,151.62 -20.51,303.24 -30.84,454.86 5.23,32.86 12.24,65.62 15.42,98.74 25.75,268.96 125.76,476.53 321.23,616.3 53.23,37.96 113.37,71.08 181.3,99 356.23,146.38 712.63,155.56 1077.92,54.03 339.54,-94.19 657.33,-241.73 960.43,-424.16 681.78,-410.29 1318.49,-889.49 1913.49,-1426.16 580.62,-523.41 1146.97,-1064.01 1719.47,-1597.14 21.27,-19.72 42.69,-39.47 72.34,-66.89 5.74,103.99 9.82,194.21 15.57,283.38l1.4 21.67c26.48,385.66 69.57,768.68 183.99,1138.81 60.38,196.23 132.51,390.14 275.97,535.66 40.01,40.63 80.79,78.62 122.18,114.02 365.44,313.21 783.35,421.23 1267.64,256.1 348.1,-118.75 653.25,-315.59 939.66,-548.51 18.6,-15.02 37.35,-29.54 57.11,-45.22 38.46,89.32 68.91,148.7 103.18,194.57 29.94,40.38 62.95,70.32 106.8,100.76 9.03,6.25 18.06,12 27.38,17.85 212.15,136.7 442,166.03 684.6,105.1 238.52,-59.99 439.18,-196.99 630.32,-351.13 421.48,-340.34 768.68,-757.35 1105.18,-1184.18 213.92,-271.78 419.83,-550.57 627.61,-827.7 25.5,-33.77 47.78,-46.77 85.13,-24.95 16.83,9.78 35.79,15.67 55.94,24.34 -15.81,28.03 -28.67,51.72 -42.32,74.91 -107.63,181.31 -207.68,366.69 -300.57,555.91 -84.08,170.58 -162.31,344.27 -234.8,520.99 -83.07,201.93 -156.97,407.84 -157.76,632.74 -0.51,182.43 87.55,329.35 218.55,396.39 73.1,37.45 159.74,49.91 251.88,29.65 80.65,-17.7 164.22,-54.9 229.85,-106.51 147.79,-116.19 299.66,-233.03 424.01,-374.57 422.9,-481.37 834.45,-973.47 1250.2,-1461.7 56.81,-66.89 112.25,-135.19 169.86,-204.75 29.69,27.88 53.13,50.31 75.16,71.22 -84.48,160.91 -168.96,316.61 -248.71,474.62 -6.64,13 -13.39,25.86 -19.75,38.97 -102.57,205.65 -198.39,414.88 -251.52,641.91 -9.54,40.92 -16.69,82.71 -21.42,124.61 -24.31,211.89 66.53,383.78 215.33,462.51 89.72,47.42 200.31,61.18 319.31,29.33 186.15,-49.7 349.26,-151.12 509.91,-256.61 337.01,-221.08 655.31,-469.02 961.22,-734.66 55.8,-48.44 114.67,-92.9 177.34,-143.35 -0.37,100.91 5.23,187.3 17.84,263.11 20.76,124.1 60.53,220.03 124.85,305.41 54.18,71.84 113.16,130.6 176.36,176.97 170.98,125.62 374.21,161.05 603.41,121.28 335.39,-58.07 646.9,-188.31 946.2,-350.87 161.7,-87.91 315.85,-191.53 475.74,-289.48 1.41,5.09 5.24,14.37 6.25,24.19 7.91,70.83 28.02,132.88 57.35,185.9 40.63,72.88 98.49,128.69 165.63,167.04 100.27,57.21 221.08,75.67 335.24,54.03 180.92,-34.16 337.52,-121.06 465.81,-251.77 162.71,-165.63 331.41,-331.66 462.51,-523.66 268.07,-391.8 512.58,-801.19 766.92,-1203.32 14.88,-23.69 30.05,-47.13 46.88,-73.64 25.86,21.27 45.87,37.85 65.62,54.14 -13.4,28.31 -23.73,51.1 -34.92,73.53 -116.19,231.12 -221.44,467.11 -304.76,712.49 -30.09,88.95 -57.46,179.14 -81.3,270.87 -41.03,157.62 -66.78,318.05 -34.17,481.52 24.6,123.34 99.9,219.52 194.96,260.8 50.21,21.78 105.9,28.43 162.57,15.68 68.8,-15.53 135.58,-53.53 196.37,-93.15 257.62,-168.41 482.12,-381.07 705.47,-594.74 8.67,-8.42 90.48,-78.12 152.63,-134.43 5.89,83.83 21.28,166.54 48.44,247.69 17.33,52.12 39.47,103.59 67.39,154.29 48.69,88.56 108.17,148.3 176.87,185.79 81.66,44.46 176.32,57.17 282.22,47.64z"/>
  <path class="fil1" d="M27101.62 8025.75c-77.22,28.53 -153.53,60.38 -231.91,84.98 -226.16,71.11 -451.68,83.47 -671.85,-23.95 -115.68,-56.45 -218,-133.52 -290.09,-246.53 -37.24,-58.51 -35.58,-100.41 10.69,-150.86 41.64,-45.51 89.68,-85.24 138.37,-122.73 166.13,-127.89 334.19,-253.04 500.62,-380.57 88.66,-67.9 172.74,-142.84 263.72,-207.31 156.97,-111.2 327.59,-144.72 509.65,-73.5 37.46,14.52 71.88,37.71 112.4,59.49 -45.36,-60.39 -101.56,-97.48 -167.55,-112.36 -55.94,-12.64 -114.31,-13.76 -171.63,-19.76 -5.09,-0.51 -10.58,2.42 -14.91,0.65 -19.11,-8.05 -45.73,-12.24 -54.14,-27.41 -6.25,-11.09 7,-41.54 19.75,-55.3 59.09,-64.61 123.7,-123.7 181.42,-189.47 101.56,-115.54 199.66,-234.29 298.54,-352.43 15.79,-18.85 28.03,-41.03 42.05,-61.54 -3.69,-3.18 -7.16,-6.22 -10.59,-9.43 -18.2,24.74 -34.13,51.61 -54.64,73.79 -94.56,102.32 -189.73,204.1 -286.45,304.25 -62.05,64.21 -126.12,126.52 -191.64,186.8 -13.61,12.49 -37.2,12.85 -56.16,18.85 -3.97,-19.86 -13.76,-40.88 -10.83,-59.49 15.92,-96.57 25.86,-192.9 -11.74,-286.19 -13.62,-33.51 -36.05,-63.17 -59.63,-103.69 16.43,72.63 36.59,132.12 42.69,193.15 18.74,190.23 -41.93,353.3 -179,477.55 -121.31,109.68 -248.74,212.51 -378.69,310.64 -138.25,104.09 -281.71,200.67 -425.17,296.85 -41.93,28.02 -89.97,50.34 -138.11,63.35 -64.22,17.3 -113.66,-22.43 -149.99,-72.27 -82.42,-113.01 -136.82,-239.89 -161.05,-381.22 -38.86,-225.88 18.09,-432.43 111.64,-631.84 30.7,-65.62 67.25,-128.17 95.17,-196.83 -35.18,48.28 -73.54,94.15 -104.85,145.12 -90.87,147.93 -144.62,309.84 -155.2,486.31 -11.09,183.48 30.56,352.83 118.5,512.07 30.96,56.2 53.64,119.01 70.43,181.6 7.8,29.04 -1.12,68.41 -14.26,97.19 -38.36,83.32 -91.6,152.38 -190.49,156.21 -53.13,2.06 -98.24,-24.34 -140.38,-53.89 -134.83,-94.01 -260.19,-200.16 -352.58,-341.45 -61.91,-94.7 -107.02,-198.9 -129.44,-312.81 -62.7,-318.41 43.59,-576.79 268.96,-782.19 151.62,-138.11 317.15,-259.29 477.43,-386.46 106.66,-84.58 216.35,-165.38 290.75,-285.39 33.01,-53.28 63.71,-107.42 64.61,-174.7 0.51,-34.28 26.11,-45.62 49.81,-18.96 34.02,38.46 68.44,80.14 89.46,127.02 59.23,131.86 79.89,272.54 76.82,418.92 -3.58,167.05 -37.96,326.94 -84.48,485.31 -19.61,66.78 -28.53,133.56 13.11,197.13 35.94,55.04 107.56,59.37 147.18,6.61 36.19,-47.79 50.2,-103.7 46.63,-163.32 -7.12,-117.75 -13.11,-234.95 16.07,-351.03 34.13,-136.34 106.76,-243.75 219.27,-319.92 166.53,-112.91 351.27,-155.85 547.5,-142.74 141.18,9.43 281.71,29.58 422.86,37.6 112.54,6.5 225.66,2.56 335.89,-28.28 63.71,-17.84 127.53,-35.03 192.5,-52.88 -24.2,53.78 -49.19,106.66 -71.98,160.54 -57.72,136.09 -84.33,279.8 -96.18,427.34 -13,160.54 -20.01,321.99 -43.99,480.61 -27.12,178.5 -103.69,336.76 -227.43,465.81 -85.85,89.71 -189.98,139.92 -311.51,154.33 -107.67,12.71 -210.49,-11.24 -314.58,-32.26 -46.27,-9.42 -95.42,-9.17 -142.59,-4.33 -52.63,5.24 -93.4,52.23 -95.93,97.84 -2.31,40.27 33.12,87.15 79.64,106.8 64.07,27.12 129.55,15.42 194.16,5.71 195.98,-29.4 389.64,-21.53 579.47,38.61 111.13,35.17 214.21,87.54 293.81,180.44 4.08,4.84 9.83,9.03 11.74,14.77 7.51,20.88 13.76,42.18 20.37,63.46 -17.19,3.18 -34.38,8.92 -51.83,9.28 -123.23,2.82 -224.25,63.71 -312.16,144.11 -114.56,104.59 -221.33,218.51 -331.05,329.1 -119.26,120.16 -237.22,241.98 -380.46,332.31 -285.65,180.3 -598.17,163.72 -865.37,-47.53 -128.68,-101.81 -222.59,-233.68 -293.2,-384.03 -28.02,-59.99 -53.99,-121.54 -74.76,-184.6 -25.35,-77.47 -12.89,-149.99 51.83,-202.62 66.38,-53.88 141.69,-89.82 222.48,-39.87 69.96,43.2 134.03,96.58 198.9,148.19 135.94,108.17 287.67,163.47 458.94,168.81 176.07,5.49 344.38,-24.34 504.05,-102.43 39.37,-19.36 76.07,-45.22 113.77,-68.04 -1.01,-1.77 -2.17,-3.43 -3.18,-5.09z"/>
  <path class="fil1" d="M16858.53 10530.47l0 -631.98 -118.64 -128.43 -162.56 147.94 0 612.47 281.2 0zm-351.81 -638.98c101.31,-91.09 200.56,-180.91 297.78,-269.22 97.34,-88.45 194.82,-180.44 292.55,-276.22 13.37,-14.05 24.81,-15.43 34.78,-4.23 28.28,34.42 84.73,110.48 169.21,228.08 84.34,117.74 186.91,191.89 307.83,222.59 7.01,2.67 11.45,9.28 13.25,19.5 1.77,10.19 -0.9,15.28 -7.91,15.28 -63.06,5.6 -114.67,21.67 -154.69,48.15 -40.01,26.51 -59.99,78.88 -59.99,157l0 1310.04c0,56.7 7.62,105.64 22.65,146.53 16.97,45.51 45.36,77.22 85.38,94.91 39.87,17.59 67.39,19 82.56,4.08l120.02 -124.09 34.53 29.32c-85.24,86.36 -175.17,186.66 -269.87,300.68 -94.52,113.91 -184.48,213.56 -269.72,299.16 -6.25,0 -12.5,0.25 -18.71,0.79 -6.25,0.36 -11.99,0.62 -17.23,0.62l-310.61 -313.83 0 -842.68 -281.2 0 0 710.06 -353.19 442.26c-102.97,-115.33 -207.06,-190.63 -312.42,-226.02 -105.24,-35.33 -211.65,-48.84 -319.17,-40.42 -110.23,9.32 -168.19,72.78 -173.94,190.48 -5.74,117.6 22.04,208.47 83.33,272.69 82.56,86.5 238.51,137.21 467.75,151.98 229.2,14.91 416.25,-26.48 561.01,-124.1 46.23,-32.47 78.59,-83.97 97.19,-154.15 18.74,-70.21 25.5,-138.76 20.15,-205.79l39.88 7c24.09,173.94 -31.21,340.23 -165.89,498.71 -134.57,158.62 -289.88,233.68 -465.7,225.41 -121.82,-7.52 -243.5,-39.62 -365.18,-96.33 -121.67,-56.7 -210.49,-140.42 -266.54,-251.16 -80.8,-162.71 -103.33,-325.77 -67.9,-488.88 35.54,-163.32 106.62,-304.5 213.27,-423.51 35.43,-38.97 75.31,-72.99 119.15,-101.92 44.06,-28.79 88.67,-57.1 134.03,-85.13l0 -313.82 -282.61 -9.79c-45.22,-1.81 -83.07,10.94 -113.12,38.36 -30.34,27.52 -49.45,83.57 -57.47,168.16l-22.57 -2.78 0 -311.15c0,-47.43 20.66,-109.33 61.94,-185.54 41.28,-76.17 134.39,-114.42 279.15,-114.42l134.68 0 0 -569.28c-57.86,4.74 -109.72,7.26 -156.1,7.66 -46.12,0.51 -84.73,-7.15 -115.79,-22.93 -48.03,-23.19 -86.39,-54.04 -115.32,-92.14 -28.93,-38.07 -44.21,-102.68 -45.87,-193.91 -1.91,-44.61 -1.15,-93.4 1.92,-146.53 3.17,-52.98 5.49,-109.18 7.36,-168.7 0,-12.97 6.4,-17.95 19.25,-14.77 13.01,3.32 19.76,9.17 20.66,17.58 0.87,11.09 1.12,23.19 0.62,36.19 -0.36,13.01 6.14,22.43 19.5,27.89 33.63,16.72 95.42,21.41 185.14,14.05 89.68,-7.55 167.94,-13.15 234.58,-16.83 37.2,-1.81 82.16,-2.93 134.53,-3.44 52.37,-0.54 99.9,3.04 142.56,10.44 51.61,9.28 92.03,26.51 121.32,51.61 46.23,41.9 69.16,91.6 69.16,149.31l0 1630.91c-98.45,-3.72 -186.65,-4.23 -264.38,-1.41 -77.72,2.82 -145.87,15.28 -204.49,37.71 -45.47,17.59 -88.02,43.19 -128.04,76.71 141.29,-39.01 268.97,-31.35 383.24,23.04 114.06,54.43 239.68,128.58 376.38,222.59l-2.67 -1692.41z"/>
  <path class="fil1" d="M18602.13 11519.65l155.95 133.92 126.52 -132.51 -9.32 -746.4 -273.15 -284.64 0 1029.63zm283.88 74.04l-451.83 503.55 -309.09 -305.55 -12.1 -1400.67c174.16,-8.41 320.83,-37.2 439.84,-86.64 135.94,-55.8 262.97,-136.2 381.07,-241.3l381.22 364.13c39.87,39.12 73.89,45.37 101.92,18.86 27.92,-26.48 65.88,-55.05 113.91,-85.85 3.47,-2.68 7.77,-0.65 12.64,6.35 4.95,6.87 6.11,11.85 3.29,14.67 -38.21,37.2 -78.08,83.93 -119.87,140.28 -41.79,56.19 -62.7,130.34 -62.7,222.44l0 842.58 157.36 146.53 109.18 -101.78 30.6 36.3 -465.09 429.65 -309.09 -305.55 -1.26 -198z"/>
  <path class="fil1" d="M21367.77 11529.44l158.62 146.53 89.21 -93.55 33.37 33.52 -431.81 450.67 -325.02 -306.96 0 -223.2 -533.09 527.34 -270.52 -277.63c-23.19,-25.1 -49.8,-28.53 -80,-10.44 -30.19,18.1 -68.8,42.04 -115.97,71.84 -4.44,2.82 -8.63,0.9 -12.61,-5.6 -4.08,-6.5 -4.69,-11.7 -1.91,-15.28 36.33,-36.33 78.37,-70.57 125.9,-102.68 47.39,-32 71.23,-94.55 71.23,-187.55l0 -926.45 -129.19 -163.21 -136.09 119.91 -30.59 -36.19 463.78 -431.17 309.23 306.93 0 1142.64 133.27 124.24 206.56 -203.74 0 -841.31c0,-38.97 -15.57,-79.75 -46.77,-122.08 -31.1,-42.29 -68.81,-70.43 -113.12,-84.33 -4.48,-1.01 -6.76,-5.35 -6.76,-13.26 0,-7.91 2.28,-12.75 6.76,-14.62l308.94 -361.5c7.16,-14.77 15.32,-14.77 24.09,0l243.87 259.68c49.84,53.89 132.76,41.79 249.24,-36.33 2.68,2.67 4.84,9.57 6.61,20.26 1.77,10.73 0.9,16.07 -2.67,16.07 -43.45,27.78 -87.01,66.64 -130.6,116.44 -43.56,49.7 -64.87,91.89 -63.96,126.27l0 994.74z"/>
  <path class="fil1" d="M22578.31 11091.3l486.35 -580.37c-75.45,46.52 -144.25,68.3 -206.55,65.52 -63.06,-2.67 -124.46,-14.01 -184.49,-34.17 -60.03,-19.86 -130.85,-63.45 -212.51,-130.45l0 572.06 117.2 107.41zm190.62 89.32l-114.56 -117.2 -407.84 486.97c63.06,-35.43 125.76,-51.61 187.81,-48.94 133.28,4.73 244.77,88.45 334.59,251.16l0 -215.48 0 -116.58 0 -92.75 0 -147.18zm477.04 528.79c-85.38,13.87 -165.13,25.86 -239.28,35.54 -74.18,9.79 -144.5,27.27 -211.14,52.37 -58.62,22.28 -114.82,53.89 -168.56,94.92 -53.78,40.88 -105.5,97.58 -155.34,170.11 -1.77,2.78 -7.37,4.69 -16.68,5.6 -9.29,0.86 -13.87,0 -13.87,-2.82 -69.31,-128.29 -138.37,-208.07 -207.17,-239.28 -68.95,-31.09 -140.68,-32.25 -215.33,-3.43l-106.55 126.88 -29.43 -27.88 381.11 -454.75 -101.17 -108.82c-66.64,-64.22 -117.6,-102.54 -152.63,-115.18 -35.03,-12.46 -93.4,7.26 -175.2,59.37 -3.58,2.68 -7.66,0.65 -12.75,-6.35 -4.84,-6.9 -5.86,-11.85 -3.29,-14.67 37.31,-37.2 74.15,-80.9 110.59,-131.1 36.44,-50.2 54.65,-121.43 54.65,-213.42l0 -481.37c85.38,-13 165.12,-24.7 239.27,-34.89 74.15,-10.22 144.61,-27.91 211.14,-53.02 127.03,-48.29 243.47,-149.7 349.11,-304.14 12.5,-13 23.19,-13.51 31.97,-1.41 59.62,114.42 135.18,184.63 226.67,210.75 73.78,22.32 154.18,14.8 241.19,-22.43l59.88 -72.49 29.33 27.92 -405.06 484.15 118.61 112.9c65.77,64.22 113.3,107.27 142.59,129.19 29.29,21.78 85.24,6.61 167.95,-45.36 3.43,-2.78 7.62,-0.76 12.6,6.25 4.95,7 6,11.84 3.32,14.66 -38.24,37.2 -75.55,76.93 -111.89,119.26 -36.44,42.29 -54.64,109.58 -54.64,201.57l0 191.86 0 289.51z"/>
 </g>
</svg>
