<?xml version="1.0" encoding="UTF-8"?>
<!DOCTYPE svg PUBLIC "-//W3C//DTD SVG 1.1//EN" "http://www.w3.org/Graphics/SVG/1.1/DTD/svg11.dtd">
<!-- Creator: CorelDRAW 2017 -->
<svg xmlns="http://www.w3.org/2000/svg" xml:space="preserve" width="513mm" height="172mm" version="1.1" style="shape-rendering:geometricPrecision; text-rendering:geometricPrecision; image-rendering:optimizeQuality; fill-rule:evenodd; clip-rule:evenodd"
viewBox="0 0 51300 17200"
 xmlns:xlink="http://www.w3.org/1999/xlink">
 <defs>
  <style type="text/css">
   <![CDATA[
    .fil1 {fill:#FEFEFE;fill-rule:nonzero}
    .fil0 {fill:#39AAE1;fill-rule:nonzero}
   ]]>
  </style>
 </defs>
<symbol id="Fm0-41-0" viewBox="211898.9 -39997.57 24077.29 18300">
 <polygon class="fil0" points="220496.78,-28977.95 221067.95,-25304.31 217055.19,-27107.7 216483.74,-30781.47 "/>
 <polygon class="fil0" points="216483.69,-30781.47 212470.94,-32584.69 211898.9,-36258.63 215912.53,-34454.08 "/>
 <polygon class="fil0" points="219924.2,-32650.81 215912.65,-34454.08 215340.15,-38128.31 219353.62,-36324.05 "/>
 <polygon class="fil0" points="235404.9,-29110.4 235976.19,-25436.88 231963.6,-27241.01 231392.72,-30913.91 "/>
 <polygon class="fil0" points="223938.29,-30847.46 224509.46,-27174.52 220496.7,-28977.95 219924.2,-32650.85 "/>
 <polygon class="fil0" points="227950.59,-29044.36 231963.64,-27240.97 232535.55,-23567.33 228522.8,-25370.88 "/>
 <polygon class="fil0" points="230821.18,-34586.48 231392.64,-30913.87 227380.63,-32716.22 226807.55,-36390.91 "/>
 <polygon class="fil0" points="223366.29,-34521.19 227380.67,-32716.18 227950.67,-29044.45 223938.21,-30847.38 "/>
 <polygon class="fil0" points="228522.88,-25370.92 229094.63,-21697.57 225081.46,-23501.12 224509.37,-27174.61 "/>
 <polygon class="fil0" points="218781.45,-39997.57 222795.5,-38194.18 223366.25,-34521.28 219353.66,-36323.92 "/>
</symbol>
<symbol id="Fm0-127-0" viewBox="212081.71 -40257.79 24077.11 18300">
 <polygon class="fil0" points="220679.54,-29238.16 221250.7,-25564.52 217237.83,-27368.04 216666.37,-31041.72 "/>
 <polygon class="fil0" points="216666.33,-31041.67 212653.62,-32844.89 212081.71,-36518.87 216095.17,-34714.27 "/>
 <polygon class="fil0" points="220106.87,-32911.18 216095.29,-34714.27 215522.79,-38388.66 219536.25,-36584.24 "/>
 <polygon class="fil0" points="235587.49,-29370.61 236158.82,-25697.26 232146.2,-27501.23 231575.49,-31174.16 "/>
 <polygon class="fil0" points="224120.91,-31107.67 224692.08,-27434.78 220679.5,-29238.16 220106.83,-32911.22 "/>
 <polygon class="fil0" points="228133.24,-29304.61 232146.28,-27501.19 232718.15,-23827.55 228705.45,-25631.27 "/>
 <polygon class="fil0" points="231003.78,-34846.68 231575.37,-31174.08 227563.24,-32976.59 226990.16,-36651.27 "/>
 <polygon class="fil0" points="223548.91,-34781.39 227563.28,-32976.55 228133.29,-29304.66 224120.83,-31107.63 "/>
 <polygon class="fil0" points="228705.49,-25631.31 229277.24,-21957.79 225264.07,-23761.35 224691.99,-27434.82 "/>
 <polygon class="fil0" points="218964.09,-40257.79 222978.12,-38454.36 223548.87,-34781.47 219536.29,-36584.15 "/>
</symbol>
<symbol id="Fm0-123-0" viewBox="211999.49 -40257.79 24077.24 18300">
 <polygon class="fil0" points="220597.31,-29238.16 221168.48,-25564.52 217155.61,-27368.04 216584.11,-31041.72 "/>
 <polygon class="fil0" points="216584.11,-31041.67 212571.4,-32844.89 211999.49,-36518.87 216012.94,-34714.27 "/>
 <polygon class="fil0" points="220024.78,-32911.18 216013.07,-34714.27 215440.57,-38388.66 219454.19,-36584.24 "/>
 <polygon class="fil0" points="235505.27,-29370.61 236076.73,-25697.26 232064.14,-27501.23 231493.27,-31174.16 "/>
 <polygon class="fil0" points="224038.69,-31107.67 224609.85,-27434.78 220597.27,-29238.16 220024.78,-32911.22 "/>
 <polygon class="fil0" points="228051.15,-29304.61 232064.19,-27501.19 232636.1,-23827.55 228623.35,-25631.27 "/>
 <polygon class="fil0" points="230921.56,-34846.68 231493.14,-31174.08 227481.02,-32976.59 226908.07,-36651.27 "/>
 <polygon class="fil0" points="223466.73,-34781.39 227481.06,-32976.55 228051.23,-29304.66 224038.61,-31107.63 "/>
 <polygon class="fil0" points="228623.39,-25631.31 229195.02,-21957.79 225181.81,-23761.35 224609.9,-27434.82 "/>
 <polygon class="fil0" points="218881.86,-40257.79 222896.07,-38454.36 223466.65,-34781.47 219454.19,-36584.15 "/>
</symbol>
<symbol id="Fm0-45-0" viewBox="211899.08 -39997.57 24077.17 18300">
 <polygon class="fil0" points="220496.93,-28977.95 221068.14,-25304.31 217055.21,-27107.7 216483.76,-30781.47 "/>
 <polygon class="fil0" points="216483.76,-30781.47 212471,-32584.69 211899.08,-36258.63 215912.59,-34454.08 "/>
 <polygon class="fil0" points="219924.27,-32650.81 215912.71,-34454.08 215340.22,-38128.31 219353.68,-36324.05 "/>
 <polygon class="fil0" points="235404.92,-29110.4 235976.25,-25436.88 231963.66,-27241.01 231392.91,-30913.91 "/>
 <polygon class="fil0" points="223938.31,-30847.46 224509.52,-27174.52 220496.89,-28977.95 219924.27,-32650.85 "/>
 <polygon class="fil0" points="227950.65,-29044.36 231963.7,-27240.97 232535.62,-23567.33 228522.86,-25370.88 "/>
 <polygon class="fil0" points="230821.2,-34586.48 231392.83,-30913.87 227380.65,-32716.22 226807.57,-36390.91 "/>
 <polygon class="fil0" points="223366.36,-34521.19 227380.73,-32716.18 227950.74,-29044.45 223938.27,-30847.38 "/>
 <polygon class="fil0" points="228522.9,-25370.92 229094.65,-21697.57 225081.48,-23501.12 224509.4,-27174.61 "/>
 <polygon class="fil0" points="218781.47,-39997.57 222795.56,-38194.18 223366.27,-34521.28 219353.68,-36323.92 "/>
</symbol>
<symbol id="Fm0-115-0" viewBox="211898.59 -40290.71 24077.23 18300">
 <polygon class="fil0" points="220496.41,-29271.08 221067.58,-25597.44 217054.71,-27400.82 216483.25,-31074.63 "/>
 <polygon class="fil0" points="216483.25,-31074.59 212470.5,-32877.85 211898.59,-36551.78 215912.04,-34747.23 "/>
 <polygon class="fil0" points="219923.71,-32943.97 215912.17,-34747.23 215339.67,-38421.45 219353.29,-36617.15 "/>
 <polygon class="fil0" points="235404.37,-29403.52 235975.82,-25730.05 231963.24,-27534.14 231392.37,-31207.07 "/>
 <polygon class="fil0" points="223937.79,-31140.58 224508.95,-27467.69 220496.37,-29271.08 219923.71,-32944.01 "/>
 <polygon class="fil0" points="227950.12,-29337.53 231963.28,-27534.14 232535.03,-23860.5 228522.45,-25664.01 "/>
 <polygon class="fil0" points="230820.66,-34879.59 231392.28,-31206.99 227380.12,-33009.38 226807.04,-36684.02 "/>
 <polygon class="fil0" points="223365.83,-34814.34 227380.16,-33009.34 227950.16,-29337.57 223937.75,-31140.54 "/>
 <polygon class="fil0" points="228522.49,-25664.05 229094.11,-21990.71 225080.91,-23794.26 224508.87,-27467.77 "/>
 <polygon class="fil0" points="218780.96,-40290.71 222795.16,-38487.32 223365.75,-34814.39 219353.29,-36617.07 "/>
</symbol>
<symbol id="Fm0-49-0" viewBox="211899.02 -39997.57 24077.29 18300">
 <polygon class="fil0" points="220496.87,-28977.95 221068.03,-25304.31 217055.15,-27107.7 216483.69,-30781.47 "/>
 <polygon class="fil0" points="216483.69,-30781.47 212470.94,-32584.69 211899.02,-36258.63 215912.48,-34454.08 "/>
 <polygon class="fil0" points="219924.16,-32650.81 215912.61,-34454.08 215340.11,-38128.31 219353.74,-36324.05 "/>
 <polygon class="fil0" points="235404.86,-29110.4 235976.31,-25436.88 231963.72,-27241.01 231392.85,-30913.91 "/>
 <polygon class="fil0" points="223938.25,-30847.46 224509.42,-27174.52 220496.83,-28977.95 219924.16,-32650.85 "/>
 <polygon class="fil0" points="227950.59,-29044.36 231963.76,-27240.97 232535.51,-23567.33 228522.92,-25370.88 "/>
 <polygon class="fil0" points="230821.14,-34586.48 231392.76,-30913.87 227380.59,-32716.22 226807.51,-36390.91 "/>
 <polygon class="fil0" points="223366.29,-34521.19 227380.63,-32716.18 227950.63,-29044.45 223938.21,-30847.38 "/>
 <polygon class="fil0" points="228522.96,-25370.92 229094.59,-21697.57 225081.37,-23501.12 224509.33,-27174.61 "/>
 <polygon class="fil0" points="218781.41,-39997.57 222795.62,-38194.18 223366.21,-34521.28 219353.74,-36323.92 "/>
</symbol>
<symbol id="Fm0-37-0" viewBox="212001 -39997.57 24077.3 18300">
 <polygon class="fil0" points="220598.85,-28977.95 221170.02,-25304.31 217157.13,-27107.7 216585.68,-30781.47 "/>
 <polygon class="fil0" points="216585.68,-30781.47 212572.92,-32584.69 212001,-36258.63 216014.51,-34454.08 "/>
 <polygon class="fil0" points="220026.31,-32650.81 216014.59,-34454.08 215442.09,-38128.31 219455.72,-36324.05 "/>
 <polygon class="fil0" points="235506.84,-29110.4 236078.3,-25436.88 232065.7,-27241.01 231494.83,-30913.91 "/>
 <polygon class="fil0" points="224040.23,-30847.46 224611.4,-27174.52 220598.81,-28977.95 220026.31,-32650.85 "/>
 <polygon class="fil0" points="228052.7,-29044.36 232065.75,-27240.97 232637.54,-23567.33 228624.9,-25370.88 "/>
 <polygon class="fil0" points="230923.12,-34586.48 231494.75,-30913.87 227482.57,-32716.22 226909.66,-36390.91 "/>
 <polygon class="fil0" points="223468.27,-34521.19 227482.61,-32716.18 228052.78,-29044.45 224040.15,-30847.38 "/>
 <polygon class="fil0" points="228624.95,-25370.92 229196.57,-21697.57 225183.4,-23501.12 224611.48,-27174.61 "/>
 <polygon class="fil0" points="218883.39,-39997.57 222897.61,-38194.18 223468.19,-34521.28 219455.72,-36323.92 "/>
</symbol>
<symbol id="Fm0-53-0" viewBox="212064.29 -39997.75 24077.33 18300">
 <polygon class="fil0" points="220662.19,-28978.02 221233.36,-25304.52 217220.46,-27107.92 216648.99,-30781.76 "/>
 <polygon class="fil0" points="216648.99,-30781.72 212636.21,-32584.83 212064.29,-36258.79 216077.78,-34454.35 "/>
 <polygon class="fil0" points="220089.53,-32651.07 216077.91,-34454.35 215505.4,-38128.6 219518.9,-36324.16 "/>
 <polygon class="fil0" points="235570.28,-29110.63 236141.62,-25437.09 232128.96,-27241.24 231558.25,-30914.16 "/>
 <polygon class="fil0" points="224103.6,-30847.59 224674.77,-27174.79 220662.15,-28978.02 220089.48,-32651.11 "/>
 <polygon class="fil0" points="228115.97,-29044.47 232129.04,-27241.24 232700.92,-23567.4 228688.18,-25371.09 "/>
 <polygon class="fil0" points="230986.54,-34586.75 231558.16,-30914.12 227545.96,-32716.48 226972.88,-36391.2 "/>
 <polygon class="fil0" points="223531.6,-34521.47 227546,-32716.44 228116.01,-29044.56 224103.52,-30847.5 "/>
 <polygon class="fil0" points="228688.22,-25371.13 229259.97,-21697.75 225246.77,-23501.32 224674.69,-27174.87 "/>
 <polygon class="fil0" points="218946.73,-39997.75 222960.8,-38194.35 223531.56,-34521.42 219518.94,-36324.08 "/>
</symbol>
<symbol id="Fm0-33-0" viewBox="211898.94 -39997.57 24077.29 18300">
 <polygon class="fil0" points="220496.78,-28977.95 221067.95,-25304.31 217055.23,-27107.7 216483.74,-30781.47 "/>
 <polygon class="fil0" points="216483.74,-30781.47 212470.85,-32584.69 211898.94,-36258.63 215912.57,-34454.08 "/>
 <polygon class="fil0" points="219924.24,-32650.81 215912.69,-34454.08 215340.2,-38128.31 219353.66,-36324.05 "/>
 <polygon class="fil0" points="235404.94,-29110.4 235976.23,-25436.88 231963.64,-27241.01 231392.76,-30913.91 "/>
 <polygon class="fil0" points="223938.17,-30847.46 224509.33,-27174.52 220496.74,-28977.95 219924.24,-32650.85 "/>
 <polygon class="fil0" points="227950.63,-29044.36 231963.68,-27240.97 232535.6,-23567.33 228522.84,-25370.88 "/>
 <polygon class="fil0" points="230821.22,-34586.48 231392.68,-30913.87 227380.67,-32716.22 226807.59,-36390.91 "/>
 <polygon class="fil0" points="223366.33,-34521.19 227380.71,-32716.18 227950.72,-29044.45 223938.12,-30847.38 "/>
 <polygon class="fil0" points="228522.88,-25370.92 229094.5,-21697.57 225081.33,-23501.12 224509.42,-27174.61 "/>
 <polygon class="fil0" points="218781.33,-39997.57 222795.54,-38194.18 223366.29,-34521.28 219353.66,-36323.92 "/>
</symbol>
<symbol id="Fm0-119-0" viewBox="158676.33 -40036.94 24077.5 18300">
 <polygon class="fil0" points="167274.28,-29017.21 167845.45,-25343.71 163832.66,-27147.11 163261.2,-30820.91 "/>
 <polygon class="fil0" points="163261.2,-30820.91 159248.25,-32624.02 158676.33,-36297.98 162689.99,-34493.37 "/>
 <polygon class="fil0" points="166701.73,-32690.26 162690.11,-34493.37 162117.61,-38167.79 166131.14,-36363.35 "/>
 <polygon class="fil0" points="182182.49,-29149.78 182753.83,-25476.27 178741.21,-27280.43 178170.33,-30953.35 "/>
 <polygon class="fil0" points="170715.68,-30886.73 171286.85,-27213.93 167274.19,-29017.21 166701.73,-32690.3 "/>
 <polygon class="fil0" points="174728.18,-29083.66 178741.25,-27280.38 179313.17,-23606.59 175300.39,-25410.28 "/>
 <polygon class="fil0" points="177598.74,-34625.94 178170.2,-30953.31 174158.17,-32755.67 173585.08,-36430.38 "/>
 <polygon class="fil0" points="170143.85,-34560.65 174158.21,-32755.63 174728.22,-29083.7 170715.6,-30886.69 "/>
 <polygon class="fil0" points="175300.43,-25410.32 175872.05,-21736.94 171858.81,-23540.51 171286.94,-27214.02 "/>
 <polygon class="fil0" points="165558.81,-40036.94 169573.05,-38233.54 170143.76,-34560.57 166131.14,-36363.27 "/>
</symbol>
 <g id="Слой_x0020_1">
  <metadata id="CorelCorpID_0Corel-Layer"/>
  <path class="fil1" d="M15806.86 5393.93c421.85,-224.63 861.52,-405.67 1349.93,-338.01 339.27,46.78 676.57,164.8 994.14,299.57 446.73,189.71 890.69,380.03 1380.51,242.23 287.45,-80.98 562.13,-216.45 832.12,-348.5 741.9,-362.93 1472.95,-348.34 2190.63,52.12 275.34,154 554.82,280.74 864.86,326.1l0 169.83c-336.03,-19.58 -638.26,-153.28 -926.46,-325.59 -553.75,-330.69 -1138.83,-397.43 -1746.67,-192.38 -202.18,68.36 -388.77,184.2 -579.54,283.55 -595.93,310.26 -1200.8,330.69 -1819.14,68.88 -294.25,-124.78 -586.34,-261.11 -891.04,-354.05 -496.64,-151.27 -966.73,-17.81 -1416.85,201.32 -78.36,37.94 -155.4,78.65 -232.49,120.13l0 -205.2z"/>
  <path class="fil1" d="M15806.86 6218.53c421.85,-224.63 861.52,-405.66 1349.93,-338.01 339.27,46.83 676.57,164.85 994.14,299.56 446.73,189.76 890.69,380.03 1380.51,242.29 287.45,-81.03 562.13,-216.45 832.12,-348.55 741.9,-362.92 1472.95,-348.34 2190.63,52.17 275.34,153.94 554.82,280.69 864.86,326.1l0 169.78c-336.03,-19.58 -638.26,-153.24 -926.46,-325.54 -553.75,-330.74 -1138.83,-397.49 -1746.67,-192.24 -202.18,68.17 -388.77,184.21 -579.54,283.36 -595.93,310.26 -1200.8,330.89 -1819.14,68.88 -294.25,-124.58 -586.34,-261.12 -891.04,-353.85 -496.64,-151.47 -966.73,-17.96 -1416.85,201.17 -78.36,37.89 -155.4,78.65 -232.49,120.13l0 -205.25z"/>
  <path class="fil1" d="M15806.86 4611.36c445.51,-243.35 909.2,-451.93 1427.89,-380.19 339.46,46.98 676.56,164.8 994.13,299.71 446.79,189.57 890.69,380.04 1380.52,242.09 287.49,-80.98 562.13,-216.45 832.32,-348.5 741.89,-362.92 1472.74,-348.19 2190.43,52.32 252.03,140.78 507.64,258.8 786.9,312.57l0 176.4c-305.04,-33.86 -582.76,-159.84 -848.5,-318.63 -553.76,-330.73 -1138.79,-397.63 -1746.48,-192.44 -202.23,68.37 -388.77,184.07 -579.74,283.57 -595.93,310.1 -1200.8,330.53 -1819.13,68.86 -294.21,-124.92 -586.35,-261.1 -891.05,-354.19 -496.64,-151.11 -966.53,-17.61 -1416.84,201.32 -104.7,50.76 -207.03,106.46 -310.45,162.52l0 -205.41z"/>
  <path class="fil1" d="M25526.99 5625.78c157.88,82.23 328.38,167.5 328.38,375.79 0,202.18 -161.06,391.58 -458,391.58 -100.91,0 -202.02,-22.09 -309.33,-91.52 -9.6,-9.58 -19.03,-19.02 -19.03,-37.9l-6.26 -268.42c0,-9.43 31.69,-12.61 37.95,-3.03 72.61,208.29 221.05,337.65 388.36,337.65 119.97,0 189.56,-59.99 186.18,-182.95 -3.03,-179.97 -145.07,-252.79 -281.05,-322.36 -151.46,-75.63 -312.36,-151.31 -312.36,-365.96 0,-252.58 220.89,-356.87 438.76,-356.87 82.19,0 154.65,12.61 239.91,47.18 22.26,9.58 31.69,22.25 31.69,37.89 0,72.61 -9.43,151.67 -9.43,246.32 0,9.64 -34.72,9.64 -34.72,0 0,-132.59 -176.89,-268.37 -334.82,-268.37 -91.47,0 -160.9,41.27 -160.9,154.65 0,158.07 135.62,230.53 274.67,306.32z"/>
  <path class="fil1" d="M27203.69 6200.46c-151.46,142.24 -303.14,195.97 -473.63,195.97 -394.66,0 -606.12,-293.7 -606.12,-609.65 0,-375.75 296.73,-675.66 691.34,-675.66 240.12,0 372.71,120.14 372.71,312.72 0,47.19 -6.4,82.25 -34.66,82.25l-773.58 2.83c-9.63,47.38 -12.82,97.94 -12.82,154.69 0,356.88 180.13,606.43 492.5,606.43 104.29,0 224.28,-28.45 322.16,-97.88 12.66,-6.26 34.72,18.87 22.1,28.3zm-814.7 -741.9l0 0 543.25 -12.61c-6.41,-170.55 -88.45,-271.65 -227.45,-271.65 -160.96,0 -271.66,107.31 -315.8,284.26z"/>
  <path class="fil1" d="M28650.11 6222.72l-325.4 154.64c-6.25,3.23 -15.84,6.26 -28.3,6.26 -53.74,0 -113.72,-69.23 -129.41,-192.59l-176.91 94.71c-119.98,63.16 -214.84,94.85 -300.11,94.85 -135.82,0 -208.28,-79.01 -208.28,-192.58 0,-126.4 94.71,-173.73 318.99,-252.59l359.89 -123.16 0 -258.99c0,-281.04 -72.61,-375.75 -189.36,-375.75 -135.82,0 -202.22,116.76 -217.87,255.61 -9.43,79.01 -44.35,139.16 -139,139.16 -79.06,0 -119.98,-41.28 -119.98,-107.47 0,-161.1 366.31,-353.7 587.35,-353.7 167.37,0 296.73,107.32 296.73,347.44l0 558.75c0,139.01 37.95,208.58 123.17,208.58 31.53,0 78.86,-15.84 132.65,-37.88 18.87,-6.42 34.71,25.07 15.84,34.71zm-489.53 -79.02l0 0 0 -34.72 0 -252.77 -274.63 104.28c-104.29,34.92 -142.03,82.25 -142.03,151.67 0,91.69 56.77,142.04 135.63,142.04 40.92,0 91.67,-12.61 139.01,-37.74l142.02 -72.76z"/>
  <path class="fil1" d="M30169.48 4239.71c0,75.83 -63.02,119.97 -129.57,119.97 -69.22,0 -100.91,-41.11 -138.86,-101.1 -50.55,-78.87 -104.14,-132.61 -214.63,-132.61 -217.87,0 -372.72,249.56 -372.72,846.2l0 202.22c126.34,-6.4 249.55,-15.84 388.56,-31.68 12.46,0 22.05,31.68 22.05,72.6 0,37.9 -19.02,85.28 -31.68,82.04 -132.6,-31.48 -252.59,-44.14 -378.93,-50.55l0 856.04c0,182.95 37.89,217.66 303.09,217.66 12.66,0 12.66,37.9 0,37.9 -142.03,0 -274.63,-6.21 -413.64,-6.21 -116.75,0 -230.53,6.21 -315.75,6.21 -12.46,0 -12.46,-37.9 0,-37.9 173.71,0 208.43,-34.71 208.43,-217.66l0 -710.58c0,-145.46 -31.54,-167.31 -217.87,-167.31 -15.69,0 -15.69,-47.38 0,-47.38 164.29,0 211.62,-31.68 214.84,-139.2 22.05,-697.7 258.79,-972.39 707.14,-972.39 224.28,0 369.54,72.66 369.54,173.73z"/>
  <path class="fil1" d="M29898.08 5733.19c0,-435.73 369.33,-634.53 682.06,-634.53 391.44,0 621.92,321.81 621.92,653.4 0,394.82 -315.75,647.4 -675.85,647.4 -388.21,0 -628.13,-309.34 -628.13,-666.27zm1045.19 113.78l0 0c0,-420.1 -205.4,-685.29 -470.45,-685.29 -202.23,0 -322.36,157.88 -322.36,467.42 0,404.21 195.97,710.37 464.19,710.37 205.46,0 328.62,-157.88 328.62,-492.5z"/>
  <path class="fil1" d="M31454.84 5733.19c0,-435.73 369.34,-634.53 682.06,-634.53 391.43,0 621.91,321.81 621.91,653.4 0,394.82 -315.75,647.4 -675.64,647.4 -388.42,0 -628.33,-309.34 -628.33,-666.27zm1045.19 113.78l0 0c0,-420.1 -205.41,-685.29 -470.45,-685.29 -202.18,0 -322.16,157.88 -322.16,467.42 0,404.21 195.77,710.37 464.04,710.37 205.4,0 328.57,-157.88 328.57,-492.5z"/>
  <path class="fil1" d="M34508.32 6206.88l-375.74 179.97c-6.21,3.18 -12.61,6.21 -18.87,6.21 -47.53,0 -91.69,-88.25 -98.09,-249.36 -126.34,129.42 -290.48,255.76 -511.52,255.76 -265.05,0 -492.35,-233.51 -492.35,-606.07 0,-489.67 413.64,-694.88 719.8,-694.88 107.32,0 198.85,22.05 284.07,63.17l0 -682.06c0,-145.26 -25.08,-208.28 -100.91,-208.28 -31.69,0 -75.84,12.46 -135.83,40.97 -15.84,6.41 -31.48,-31.54 -18.87,-37.75l419.89 -202.21c9.43,-3.19 12.67,-3.19 15.69,-3.19 16,0 34.87,19.03 34.87,31.49l0 1907.23c0,148.44 31.53,205.25 107.36,205.25 34.72,0 91.48,-9.43 154.86,-40.97 15.64,-9.59 31.33,28.3 15.64,34.72zm-492.7 -119.94l0 0 0 -723.24c-85.22,-119.98 -192.6,-195.76 -356.67,-195.76 -246.38,0 -404.25,170.49 -404.25,527.36 0,359.75 167.31,577.82 391.58,577.82 148.44,0 262.02,-78.87 369.34,-186.18z"/>
  <path class="fil1" d="M37549.14 6358.44l-397.84 0c-63.18,0 -176.91,-40.92 -391.6,-202.17 -145.21,139.2 -344.2,240.11 -625.29,240.11 -423.08,0 -609.26,-230.53 -609.26,-464.39 0,-255.61 208.44,-422.92 429.48,-587.21 -34.86,-50.56 -66.4,-104.13 -94.86,-154.69 -56.76,-119.98 -91.47,-227.31 -91.47,-344.26 0,-293.5 214.64,-527.21 549.26,-527.21 199.2,0 388.56,82.04 388.56,312.57 0,281.04 -271.6,438.92 -521.15,609.46 161.1,249.35 407.42,492.49 666.42,691.34 50.54,-110.34 78.86,-236.74 78.86,-369.34 0,-170.53 -47.33,-268.43 -233.72,-268.43 -12.66,0 -15.63,-37.73 0,-37.73l688.32 -3.18c16,0 16,37.89 0,37.89 -211.46,0 -233.55,59.99 -274.63,205.2 -37.95,139.06 -97.93,315.96 -202.08,476.87 268.43,198.84 498.96,315.6 641,347.28 15.84,3.22 12.61,37.89 0,37.89zm-833.58 -236.68l0 0c-25.29,-22.26 -53.54,-41.33 -82.04,-66.61 -233.71,-186.18 -480.05,-429.33 -650.58,-666.06 -126.4,107.31 -221.05,236.73 -221.05,407.27 0,262.03 221.05,486.3 546.23,486.3 164.14,0 303.14,-59.99 407.44,-160.9zm-558.91 -925.27l0 0c170.34,-139.2 312.78,-293.7 312.78,-508.54 0,-189.21 -104.49,-296.72 -259.19,-296.72 -148.29,0 -224.08,88.29 -224.08,277.85 0,173.57 63.18,350.52 170.49,527.41z"/>
  <path class="fil1" d="M40479.76 5177.47c-110.76,0 -183.15,66.25 -259,246.37l-391.58 931.27c-6.26,16.05 -63.22,16.05 -69.27,0l-363.28 -757.75 -322.17 757.75c-6.26,16.05 -63.17,16.05 -72.61,0l-454.6 -953.51c-88.5,-189.42 -135.82,-224.13 -221.1,-224.13 -9.44,0 -9.44,-37.88 0,-37.88 66.4,0 142.24,6.19 249.56,6.19 138.86,0 239.96,-6.19 331.44,-6.19 12.61,0 12.61,37.88 0,37.88 -123.01,0 -211.46,25.28 -160.9,123.01l378.92 770.72 230.53 -559.06 -53.94 -110.54c-88.29,-186.18 -123,-224.13 -202.02,-224.13 -9.43,0 -9.43,-37.88 0,-37.88 63.37,0 132.6,6.19 230.49,6.19 145.25,0 246.37,-6.19 334.81,-6.19 9.65,0 9.65,37.88 0,37.88 -123.36,0 -205.19,31.54 -157.87,123.01l375.74 770.72 268.43 -656.99c63.02,-157.87 -9.43,-236.74 -211.66,-236.74 -12.61,0 -12.61,-37.88 0,-37.88 98.08,0 173.77,6.19 315.8,6.19 97.88,0 139.01,-6.19 224.28,-6.19 12.61,0 12.61,37.88 0,37.88z"/>
  <path class="fil1" d="M40659.73 6320.55c151.68,0 189.41,-44.1 189.41,-217.87l0 -580.94c0,-148.44 -25.12,-211.67 -100.96,-211.67 -31.69,0 -78.81,12.67 -135.77,41.12 -15.85,6.26 -31.55,-31.68 -15.85,-37.89l429.48 -202.23c6.25,-3.03 6.25,-3.03 12.66,-3.03 15.85,0 31.49,18.87 31.49,31.55 0,44.14 -6.21,170.48 -6.21,375.89l0 587.2c0,173.77 34.71,217.87 189.36,217.87 12.66,0 12.66,37.94 0,37.94 -78.86,0 -183.15,-6.25 -296.88,-6.25 -113.57,0 -217.71,6.25 -296.73,6.25 -12.62,0 -12.62,-37.94 0,-37.94zm116.96 -1714.64l0 0c0,-91.48 59.99,-145.21 157.67,-145.21 94.9,0 148.49,53.73 148.49,145.21 0,97.94 -53.59,154.69 -148.49,154.69 -97.68,0 -157.67,-56.75 -157.67,-154.69z"/>
  <path class="fil1" d="M42967.98 6358.44c-78.86,0 -183.21,-6.2 -296.73,-6.2 -113.73,0 -221.1,6.2 -300.11,6.2 -9.43,0 -9.43,-37.89 0,-37.89 154.85,0 192.59,-44.15 192.59,-217.87l0 -492.5c0,-243.14 -91.48,-353.69 -281.04,-353.69 -119.84,0 -252.58,63.02 -353.54,170.54l0 675.65c0,173.72 34.71,217.87 189.41,217.87 12.61,0 12.61,37.89 0,37.89 -79.02,0 -183.16,-6.2 -296.73,-6.2 -113.73,0 -221.05,6.2 -300.11,6.2 -9.43,0 -9.43,-37.89 0,-37.89 154.9,0 192.59,-44.15 192.59,-217.87l0 -612.68c0,-138.81 -31.49,-198.8 -110.5,-198.8 -40.97,0 -94.55,15.84 -164.13,44.15 -15.85,9.43 -31.49,-28.31 -15.85,-34.71l391.59 -186.19c6.41,-3.38 12.67,-6.41 19.07,-6.41 37.9,0 91.48,91.48 94.66,255.61 151.51,-173.56 309.39,-262.01 483.12,-262.01 230.48,0 366.3,139.01 366.3,385.33l0 615.71c0,173.72 34.71,217.87 189.41,217.87 12.61,0 12.61,37.89 0,37.89z"/>
  <path class="fil1" d="M44253.24 6200.46c-151.67,142.24 -303.14,195.97 -473.48,195.97 -394.81,0 -606.27,-293.7 -606.27,-609.65 0,-375.75 296.73,-675.66 691.34,-675.66 240.12,0 372.72,120.14 372.72,312.72 0,47.19 -6.41,82.25 -34.72,82.25l-773.74 2.83c-9.43,47.38 -12.61,97.94 -12.61,154.69 0,356.88 180.13,606.43 492.5,606.43 104.29,0 224.27,-28.45 322.16,-97.88 12.67,-6.26 34.71,18.87 22.1,28.3zm-814.71 -741.9l0 0 543.26 -12.61c-6.41,-170.55 -88.5,-271.65 -227.51,-271.65 -161.05,0 -271.6,107.31 -315.75,284.26z"/>
  <path class="fil1" d="M11006.69 13012.14c-2014.75,0 -2048.4,-663.04 -2219.6,-933.23 -190.82,-301.52 -239.05,-1251.15 -239.05,-1251.15l-1.06 0 0 -4550.85c0,-720.71 378.56,-830.5 1355.24,-830.5 1868.42,0 3053.02,1660.89 3053.02,3773.32 0,2108.9 -776.96,3084.71 -2722.28,3341.04 0.15,0.14 0,-0.36 0,0 1972.01,239.56 3833.47,-1336.78 3833.47,-3609.46 0,-2100.52 -1709.65,-3712.49 -4286.11,-3712.49 -451.79,0 -1172.5,61.27 -1721.81,61.27 -561.72,0 -1062.44,-36.69 -1465.43,-36.69 -48.94,0 -48.94,146.53 0,146.53 842.66,0 988.93,146.27 988.93,842.46l0 4575.37 -4.08 0c0,0 17.1,708.44 -78.46,1004.62 -288.56,557.49 -1213.97,1194.34 -1269.11,1876.81 0,0 772.47,-1004.84 1968.07,-834.29 993.42,145.61 848.01,383.06 2418.8,530.95 1527.95,187.79 2885.15,-974 3087.54,-1883.92 -282.15,518.18 -1523.46,1501.26 -2698.08,1490.21z"/>
  <path class="fil1" d="M17993.61 7815.3c-1301.71,0 -2847.08,899.57 -2847.08,2624.76 0,1386.37 1005.49,2582.52 2550.69,2582.52 1555.85,0 2794.2,-1227.84 2794.2,-2677.78 0,-1248.84 -941.97,-2529.5 -2497.81,-2529.5zm-31.89 4984.98l0 0c-1185.26,0 -1936.75,-1174.77 -1936.75,-2645.96 0,-1344.18 582,-2106.01 1619.37,-2106.01 1259.53,0 1968.69,1164.06 1968.69,2550.48 0,1397.12 -666.83,2201.49 -1651.31,2201.49z"/>
  <path class="fil1" d="M32651.19 12768.59c-539.67,0 -719.65,-211.62 -1238.33,-1323.05l-1693.3 -3661.93c-21.13,-53.03 -95.2,-53.03 -127.09,0l-1545.16 3714.81c-440.88,1070.67 -642.75,1266.43 -1265.37,1269.82 -748.31,-3.39 -1330.52,-597.55 -2470.42,-2476.27 561.01,-285.88 931.46,-783.18 931.46,-1354.73 0,-666.78 -518.68,-1026.68 -1492.32,-1026.68 -370.4,0 -899.64,63.38 -1280.73,63.38 -412.72,0 -825.35,-31.54 -1132.37,-31.54 -42.18,0 -42.18,126.89 0,126.89 624.38,0 740.79,127.1 740.79,730.35l0 3238.45c0,614.1 -116.41,730.5 -751.28,730.5 -42.4,0 -42.4,126.94 0,126.94 306.82,0 730.14,-21.18 1142.86,-21.18 455.16,0 825.56,21.18 1143.13,21.18 42.18,0 42.18,-126.94 0,-126.94 -645.58,0 -740.84,-116.4 -740.84,-730.5l0 -1502.83c116.4,10.71 232.85,10.71 338.56,10.71 148.28,0 296.52,-10.71 444.46,-31.69 836.2,1471.14 1502.98,2381.25 1735.83,2381.25l1397.06 0c0.21,0 0.36,-0.19 0.72,-0.19 408.53,-1.62 632.46,-41.98 1110.37,-41.98 455.11,0 634.89,42.17 984.3,42.17 63.37,0 63.37,-126.94 0,-126.94 -730.5,0 -952.61,-285.68 -582.01,-1174.97l433.77 -1068.85 1397.06 0 687.97 1481.83c264.48,560.67 190.47,761.99 -359.9,761.99 -52.89,0 -52.89,126.94 0,126.94 307.02,0 603.4,-42.17 931.25,-42.17 402.29,0 857.45,42.17 1259.53,42.17 63.53,0 63.53,-126.94 0,-126.94zm-9366.35 -2413.1l0 0c-169.12,0 -296.22,-10.64 -412.62,-21.19l0 -1513.47c0,-529.17 74.07,-740.83 603.24,-740.83 624.4,0 941.96,370.38 941.96,1142.91 0,698.47 -232.8,1132.58 -1132.58,1132.58zm5545.64 -52.88l0 0 561.08 -1386.57 645.37 1386.57 -1206.45 0z"/>
  <path class="fil1" d="M35561.44 7921.16c-402.09,0 -857.2,52.88 -1280.52,52.88 -423.43,0 -825.71,-31.69 -1132.58,-31.69 -42.18,0 -42.18,126.89 0,126.89 635.08,0 751.53,127.1 751.53,730.51l0 3238.44c0,613.95 -116.45,730.35 -762.03,730.35 -42.39,0 -42.39,126.89 0,126.89 306.88,0 719.65,-21.18 1143.08,-21.18 455.15,0 1016.03,63.57 1407.61,63.57 1608.73,0 2741.16,-1079.55 2741.16,-2550.69 0,-1407.61 -1026.68,-2465.97 -2868.25,-2465.97zm0 4847.38l0 0c-740.8,0 -888.89,-275.18 -888.89,-846.75l0 -3100.86c0,-561.22 222.11,-740.84 804.37,-740.84 1449.94,0 2042.5,1132.23 2042.5,2423.45 0,1460.63 -740.85,2265 -1957.98,2265z"/>
  <path class="fil1" d="M42101.7 7815.3c-1301.7,0 -2846.86,899.57 -2846.86,2624.76 0,1386.37 1005.33,2582.52 2550.69,2582.52 1555.65,0 2793.98,-1227.84 2793.98,-2677.78 0,-1248.84 -941.95,-2529.5 -2497.81,-2529.5zm-31.68 4984.98l0 0c-1185.26,0 -1936.94,-1174.77 -1936.94,-2645.96 0,-1344.18 582.21,-2106.01 1619.37,-2106.01 1259.53,0 1968.68,1164.06 1968.68,2550.48 0,1397.12 -666.77,2201.49 -1651.11,2201.49z"/>
  <path class="fil1" d="M6752.57 14335.29c0,0 262.37,-758.6 1451.92,-758.6 876.11,-0.2 1295.49,359.34 2205.06,447.29 909.71,87.95 1291.01,-63.73 1850.62,-212.17 -737.97,273.07 -1238.85,500.72 -2066.72,381.25 -1166.59,-168.37 -1046.81,-346.74 -2205.58,-395.48 -1087.36,83.82 -1235.3,537.71 -1235.3,537.71z"/>
 </g>
 <g id="Слой_x0020_2">
  <metadata id="CorelCorpID_1Corel-Layer"/>
  <polygon class="fil1" points="458.35,1042.07 705.85,1042.07 705.85,1537.08 705.85,3883.39 705.85,16564.21 50594.15,16564.21 50594.15,1537.08 13165.86,1537.08 13165.86,1042.07 51089.15,1042.07 51089.15,17059.21 210.85,17059.21 210.85,1042.07 "/>
  <path class="fil1" d="M2721.51 2414.76l-541.52 0 0 -1724.11 -532.22 155.35 0 -410.24 1023.96 -354.45 49.78 0 0 2333.45zm2175.36 -1348.88c-145.5,0 -218.25,77.14 -218.25,230.83l-506.51 0c0,-188.7 67.28,-343.51 201.29,-465.49 134.01,-121.42 308.5,-182.14 523.47,-182.14 253.26,0 453.46,79.31 601.69,237.4 147.69,158.07 222.08,377.41 222.08,658.56l0 22.44c0,269.11 -73.85,483.53 -221.54,642.16 -147.14,158.63 -346.78,237.94 -598.95,237.94 -222.63,0 -399.3,-61.81 -530.58,-185.97 -131.27,-123.62 -197.46,-294.84 -197.46,-512.54l506.51 0c0,87.52 19.15,156.44 56.89,206.22 38.29,50.32 92.99,75.49 164.64,75.49 161.36,0 252.17,-113.78 272.4,-341.32l-381.8 0 0 -292.09 381.8 0c-19.69,-220.99 -111.04,-331.49 -275.68,-331.49zm2478.95 32.82l-546.44 0 0 1316.06 -543.16 0 0 -1316.06 -538.79 0 0 -416.8 1628.39 0 0 416.8zm1152.51 1316.06c-19.71,-35.01 -36.65,-86.43 -51.43,-154.25 -99.55,124.71 -238.49,187.07 -416.81,187.07 -163.54,0 -302.48,-49.23 -416.8,-148.23 -114.32,-99.01 -171.21,-223.72 -171.21,-373.6 0,-188.16 69.47,-330.37 208.41,-426.65 138.94,-96.27 340.78,-144.4 605.51,-144.4l166.84 0 0 -91.89c0,-159.73 -68.93,-239.58 -206.76,-239.58 -128,0 -192.55,63.44 -192.55,189.8l-539.88 0c0,-167.38 71.12,-303.03 213.88,-407.51 142.76,-104.47 324.37,-156.44 545.89,-156.44 220.99,0 395.48,54.16 524.02,161.91 127.99,107.76 193.63,255.99 196.92,443.61l0 767.43c2.19,159.17 26.8,281.15 73.84,365.38l0 27.35 -539.87 0zm-338.59 -351.16c67.28,0 123.06,-14.23 167.92,-43.22 44.3,-28.99 76.03,-61.81 95.18,-98.45l0 -278.42 -156.99 0c-188.17,0 -282.25,84.78 -282.25,254.34 0,49.23 16.42,89.16 49.78,119.8 32.82,30.63 75.49,45.95 126.36,45.95zm2915.44 -252.71l-205.12 0 0 603.87 -539.88 0 0 -603.87 -200.2 0 -296.46 603.87 -641.08 0 515.81 -926.6 -536.6 -806.26 674.44 0 328.74 623.56 155.35 0 0 -623.56 539.88 0 0 623.56 160.26 0 330.38 -623.56 674.44 0 -539.88 809.55 15.86 -7.67 519.1 930.98 -660.21 0 -294.83 -603.87z"/>
 </g>
</svg>
