<?xml version="1.0" encoding="UTF-8"?>
<!DOCTYPE svg PUBLIC "-//W3C//DTD SVG 1.1//EN" "http://www.w3.org/Graphics/SVG/1.1/DTD/svg11.dtd">
<!-- Creator: CorelDRAW 2017 -->
<svg xmlns="http://www.w3.org/2000/svg" xml:space="preserve" width="210mm" height="210mm" version="1.1" style="shape-rendering:geometricPrecision; text-rendering:geometricPrecision; image-rendering:optimizeQuality; fill-rule:evenodd; clip-rule:evenodd"
viewBox="0 0 21000 21000"
 xmlns:xlink="http://www.w3.org/1999/xlink">
 <defs>
  <style type="text/css">
   <![CDATA[
    .fil1 {fill:#2B2A29;fill-rule:nonzero}
    .fil0 {fill:#39AAE1;fill-rule:nonzero}
   ]]>
  </style>
 </defs>
<symbol id="Fm0-53-0" viewBox="196914.29 -38097.75 24077.33 18300">
 <polygon class="fil0" points="205512.19,-27078.02 206083.36,-23404.52 202070.46,-25207.92 201498.99,-28881.76 "/>
 <polygon class="fil0" points="201498.99,-28881.72 197486.21,-30684.83 196914.29,-34358.79 200927.78,-32554.35 "/>
 <polygon class="fil0" points="204939.53,-30751.07 200927.91,-32554.35 200355.4,-36228.6 204368.9,-34424.16 "/>
 <polygon class="fil0" points="220420.28,-27210.63 220991.62,-23537.09 216978.96,-25341.24 216408.25,-29014.16 "/>
 <polygon class="fil0" points="208953.6,-28947.59 209524.77,-25274.79 205512.15,-27078.02 204939.48,-30751.11 "/>
 <polygon class="fil0" points="212965.97,-27144.47 216979.04,-25341.24 217550.92,-21667.4 213538.18,-23471.09 "/>
 <polygon class="fil0" points="215836.54,-32686.75 216408.16,-29014.12 212395.96,-30816.48 211822.88,-34491.2 "/>
 <polygon class="fil0" points="208381.6,-32621.47 212396,-30816.44 212966.01,-27144.56 208953.52,-28947.5 "/>
 <polygon class="fil0" points="213538.22,-23471.13 214109.97,-19797.75 210096.77,-21601.32 209524.69,-25274.87 "/>
 <polygon class="fil0" points="203796.73,-38097.75 207810.8,-36294.35 208381.56,-32621.42 204368.94,-34424.08 "/>
</symbol>
<symbol id="Fm0-127-0" viewBox="196931.71 -38357.79 24077.11 18300">
 <polygon class="fil0" points="205529.54,-27338.16 206100.7,-23664.52 202087.83,-25468.04 201516.37,-29141.72 "/>
 <polygon class="fil0" points="201516.33,-29141.67 197503.62,-30944.89 196931.71,-34618.87 200945.17,-32814.27 "/>
 <polygon class="fil0" points="204956.87,-31011.18 200945.29,-32814.27 200372.79,-36488.66 204386.25,-34684.24 "/>
 <polygon class="fil0" points="220437.49,-27470.61 221008.82,-23797.26 216996.2,-25601.23 216425.49,-29274.16 "/>
 <polygon class="fil0" points="208970.91,-29207.67 209542.08,-25534.78 205529.5,-27338.16 204956.83,-31011.22 "/>
 <polygon class="fil0" points="212983.24,-27404.61 216996.28,-25601.19 217568.15,-21927.55 213555.45,-23731.27 "/>
 <polygon class="fil0" points="215853.78,-32946.68 216425.37,-29274.08 212413.24,-31076.59 211840.16,-34751.27 "/>
 <polygon class="fil0" points="208398.91,-32881.39 212413.28,-31076.55 212983.29,-27404.66 208970.83,-29207.63 "/>
 <polygon class="fil0" points="213555.49,-23731.31 214127.24,-20057.79 210114.07,-21861.35 209541.99,-25534.82 "/>
 <polygon class="fil0" points="203814.09,-38357.79 207828.12,-36554.36 208398.87,-32881.47 204386.29,-34684.15 "/>
</symbol>
<symbol id="Fm0-33-0" viewBox="196748.94 -38097.57 24077.29 18300">
 <polygon class="fil0" points="205346.78,-27077.95 205917.95,-23404.31 201905.23,-25207.7 201333.74,-28881.47 "/>
 <polygon class="fil0" points="201333.74,-28881.47 197320.85,-30684.69 196748.94,-34358.63 200762.57,-32554.08 "/>
 <polygon class="fil0" points="204774.24,-30750.81 200762.69,-32554.08 200190.2,-36228.31 204203.66,-34424.05 "/>
 <polygon class="fil0" points="220254.94,-27210.4 220826.23,-23536.88 216813.64,-25341.01 216242.76,-29013.91 "/>
 <polygon class="fil0" points="208788.17,-28947.46 209359.33,-25274.52 205346.74,-27077.95 204774.24,-30750.85 "/>
 <polygon class="fil0" points="212800.63,-27144.36 216813.68,-25340.97 217385.6,-21667.33 213372.84,-23470.88 "/>
 <polygon class="fil0" points="215671.22,-32686.48 216242.68,-29013.87 212230.67,-30816.22 211657.59,-34490.91 "/>
 <polygon class="fil0" points="208216.33,-32621.19 212230.71,-30816.18 212800.72,-27144.45 208788.12,-28947.38 "/>
 <polygon class="fil0" points="213372.88,-23470.92 213944.5,-19797.57 209931.33,-21601.12 209359.42,-25274.61 "/>
 <polygon class="fil0" points="203631.33,-38097.57 207645.54,-36294.18 208216.29,-32621.28 204203.66,-34423.92 "/>
</symbol>
<symbol id="Fm0-49-0" viewBox="196749.02 -38097.57 24077.29 18300">
 <polygon class="fil0" points="205346.87,-27077.95 205918.03,-23404.31 201905.15,-25207.7 201333.69,-28881.47 "/>
 <polygon class="fil0" points="201333.69,-28881.47 197320.94,-30684.69 196749.02,-34358.63 200762.48,-32554.08 "/>
 <polygon class="fil0" points="204774.16,-30750.81 200762.61,-32554.08 200190.11,-36228.31 204203.74,-34424.05 "/>
 <polygon class="fil0" points="220254.86,-27210.4 220826.31,-23536.88 216813.72,-25341.01 216242.85,-29013.91 "/>
 <polygon class="fil0" points="208788.25,-28947.46 209359.42,-25274.52 205346.83,-27077.95 204774.16,-30750.85 "/>
 <polygon class="fil0" points="212800.59,-27144.36 216813.76,-25340.97 217385.51,-21667.33 213372.92,-23470.88 "/>
 <polygon class="fil0" points="215671.14,-32686.48 216242.76,-29013.87 212230.59,-30816.22 211657.51,-34490.91 "/>
 <polygon class="fil0" points="208216.29,-32621.19 212230.63,-30816.18 212800.63,-27144.45 208788.21,-28947.38 "/>
 <polygon class="fil0" points="213372.96,-23470.92 213944.59,-19797.57 209931.37,-21601.12 209359.33,-25274.61 "/>
 <polygon class="fil0" points="203631.41,-38097.57 207645.62,-36294.18 208216.21,-32621.28 204203.74,-34423.92 "/>
</symbol>
<symbol id="Fm0-123-0" viewBox="196849.49 -38357.79 24077.24 18300">
 <polygon class="fil0" points="205447.31,-27338.16 206018.48,-23664.52 202005.61,-25468.04 201434.11,-29141.72 "/>
 <polygon class="fil0" points="201434.11,-29141.67 197421.4,-30944.89 196849.49,-34618.87 200862.94,-32814.27 "/>
 <polygon class="fil0" points="204874.78,-31011.18 200863.07,-32814.27 200290.57,-36488.66 204304.19,-34684.24 "/>
 <polygon class="fil0" points="220355.27,-27470.61 220926.73,-23797.26 216914.14,-25601.23 216343.27,-29274.16 "/>
 <polygon class="fil0" points="208888.69,-29207.67 209459.85,-25534.78 205447.27,-27338.16 204874.78,-31011.22 "/>
 <polygon class="fil0" points="212901.15,-27404.61 216914.19,-25601.19 217486.1,-21927.55 213473.35,-23731.27 "/>
 <polygon class="fil0" points="215771.56,-32946.68 216343.14,-29274.08 212331.02,-31076.59 211758.07,-34751.27 "/>
 <polygon class="fil0" points="208316.73,-32881.39 212331.06,-31076.55 212901.23,-27404.66 208888.61,-29207.63 "/>
 <polygon class="fil0" points="213473.39,-23731.31 214045.02,-20057.79 210031.81,-21861.35 209459.9,-25534.82 "/>
 <polygon class="fil0" points="203731.86,-38357.79 207746.07,-36554.36 208316.65,-32881.47 204304.19,-34684.15 "/>
</symbol>
<symbol id="Fm0-45-0" viewBox="196749.08 -38097.57 24077.17 18300">
 <polygon class="fil0" points="205346.93,-27077.95 205918.14,-23404.31 201905.21,-25207.7 201333.76,-28881.47 "/>
 <polygon class="fil0" points="201333.76,-28881.47 197321,-30684.69 196749.08,-34358.63 200762.59,-32554.08 "/>
 <polygon class="fil0" points="204774.27,-30750.81 200762.71,-32554.08 200190.22,-36228.31 204203.68,-34424.05 "/>
 <polygon class="fil0" points="220254.92,-27210.4 220826.25,-23536.88 216813.66,-25341.01 216242.91,-29013.91 "/>
 <polygon class="fil0" points="208788.31,-28947.46 209359.52,-25274.52 205346.89,-27077.95 204774.27,-30750.85 "/>
 <polygon class="fil0" points="212800.65,-27144.36 216813.7,-25340.97 217385.62,-21667.33 213372.86,-23470.88 "/>
 <polygon class="fil0" points="215671.2,-32686.48 216242.83,-29013.87 212230.65,-30816.22 211657.57,-34490.91 "/>
 <polygon class="fil0" points="208216.36,-32621.19 212230.73,-30816.18 212800.74,-27144.45 208788.27,-28947.38 "/>
 <polygon class="fil0" points="213372.9,-23470.92 213944.65,-19797.57 209931.48,-21601.12 209359.4,-25274.61 "/>
 <polygon class="fil0" points="203631.47,-38097.57 207645.56,-36294.18 208216.27,-32621.28 204203.68,-34423.92 "/>
</symbol>
<symbol id="Fm0-41-0" viewBox="196748.9 -38097.57 24077.29 18300">
 <polygon class="fil0" points="205346.78,-27077.95 205917.95,-23404.31 201905.19,-25207.7 201333.74,-28881.47 "/>
 <polygon class="fil0" points="201333.69,-28881.47 197320.94,-30684.69 196748.9,-34358.63 200762.53,-32554.08 "/>
 <polygon class="fil0" points="204774.2,-30750.81 200762.65,-32554.08 200190.15,-36228.31 204203.62,-34424.05 "/>
 <polygon class="fil0" points="220254.9,-27210.4 220826.19,-23536.88 216813.6,-25341.01 216242.72,-29013.91 "/>
 <polygon class="fil0" points="208788.29,-28947.46 209359.46,-25274.52 205346.7,-27077.95 204774.2,-30750.85 "/>
 <polygon class="fil0" points="212800.59,-27144.36 216813.64,-25340.97 217385.55,-21667.33 213372.8,-23470.88 "/>
 <polygon class="fil0" points="215671.18,-32686.48 216242.64,-29013.87 212230.63,-30816.22 211657.55,-34490.91 "/>
 <polygon class="fil0" points="208216.29,-32621.19 212230.67,-30816.18 212800.67,-27144.45 208788.21,-28947.38 "/>
 <polygon class="fil0" points="213372.88,-23470.92 213944.63,-19797.57 209931.46,-21601.12 209359.37,-25274.61 "/>
 <polygon class="fil0" points="203631.45,-38097.57 207645.5,-36294.18 208216.25,-32621.28 204203.66,-34423.92 "/>
</symbol>
<symbol id="Fm0-37-0" viewBox="196851 -38097.57 24077.3 18300">
 <polygon class="fil0" points="205448.85,-27077.95 206020.02,-23404.31 202007.13,-25207.7 201435.68,-28881.47 "/>
 <polygon class="fil0" points="201435.68,-28881.47 197422.92,-30684.69 196851,-34358.63 200864.51,-32554.08 "/>
 <polygon class="fil0" points="204876.31,-30750.81 200864.59,-32554.08 200292.09,-36228.31 204305.72,-34424.05 "/>
 <polygon class="fil0" points="220356.84,-27210.4 220928.3,-23536.88 216915.7,-25341.01 216344.83,-29013.91 "/>
 <polygon class="fil0" points="208890.23,-28947.46 209461.4,-25274.52 205448.81,-27077.95 204876.31,-30750.85 "/>
 <polygon class="fil0" points="212902.7,-27144.36 216915.75,-25340.97 217487.54,-21667.33 213474.9,-23470.88 "/>
 <polygon class="fil0" points="215773.12,-32686.48 216344.75,-29013.87 212332.57,-30816.22 211759.66,-34490.91 "/>
 <polygon class="fil0" points="208318.27,-32621.19 212332.61,-30816.18 212902.78,-27144.45 208890.15,-28947.38 "/>
 <polygon class="fil0" points="213474.95,-23470.92 214046.57,-19797.57 210033.4,-21601.12 209461.48,-25274.61 "/>
 <polygon class="fil0" points="203733.39,-38097.57 207747.61,-36294.18 208318.19,-32621.28 204305.72,-34423.92 "/>
</symbol>
<symbol id="Fm0-115-0" viewBox="196748.59 -38390.71 24077.23 18300">
 <polygon class="fil0" points="205346.41,-27371.08 205917.58,-23697.44 201904.71,-25500.82 201333.25,-29174.63 "/>
 <polygon class="fil0" points="201333.25,-29174.59 197320.5,-30977.85 196748.59,-34651.78 200762.04,-32847.23 "/>
 <polygon class="fil0" points="204773.71,-31043.97 200762.17,-32847.23 200189.67,-36521.45 204203.29,-34717.15 "/>
 <polygon class="fil0" points="220254.37,-27503.52 220825.82,-23830.05 216813.24,-25634.14 216242.37,-29307.07 "/>
 <polygon class="fil0" points="208787.79,-29240.58 209358.95,-25567.69 205346.37,-27371.08 204773.71,-31044.01 "/>
 <polygon class="fil0" points="212800.12,-27437.53 216813.28,-25634.14 217385.03,-21960.5 213372.45,-23764.01 "/>
 <polygon class="fil0" points="215670.66,-32979.59 216242.28,-29306.99 212230.12,-31109.38 211657.04,-34784.02 "/>
 <polygon class="fil0" points="208215.83,-32914.34 212230.16,-31109.34 212800.16,-27437.57 208787.75,-29240.54 "/>
 <polygon class="fil0" points="213372.49,-23764.05 213944.11,-20090.71 209930.91,-21894.26 209358.87,-25567.77 "/>
 <polygon class="fil0" points="203630.96,-38390.71 207645.16,-36587.32 208215.75,-32914.39 204203.29,-34717.07 "/>
</symbol>
<symbol id="Fm0-119-0" viewBox="143526.33 -38136.94 24077.5 18300">
 <polygon class="fil0" points="152124.28,-27117.21 152695.45,-23443.71 148682.66,-25247.11 148111.2,-28920.91 "/>
 <polygon class="fil0" points="148111.2,-28920.91 144098.25,-30724.02 143526.33,-34397.98 147539.99,-32593.37 "/>
 <polygon class="fil0" points="151551.73,-30790.26 147540.11,-32593.37 146967.61,-36267.79 150981.14,-34463.35 "/>
 <polygon class="fil0" points="167032.49,-27249.78 167603.83,-23576.27 163591.21,-25380.43 163020.33,-29053.35 "/>
 <polygon class="fil0" points="155565.68,-28986.73 156136.85,-25313.93 152124.19,-27117.21 151551.73,-30790.3 "/>
 <polygon class="fil0" points="159578.18,-27183.66 163591.25,-25380.38 164163.17,-21706.59 160150.39,-23510.28 "/>
 <polygon class="fil0" points="162448.74,-32725.94 163020.2,-29053.31 159008.17,-30855.67 158435.08,-34530.38 "/>
 <polygon class="fil0" points="154993.85,-32660.65 159008.21,-30855.63 159578.22,-27183.7 155565.6,-28986.69 "/>
 <polygon class="fil0" points="160150.43,-23510.32 160722.05,-19836.94 156708.81,-21640.51 156136.94,-25314.02 "/>
 <polygon class="fil0" points="150408.81,-38136.94 154423.05,-36333.54 154993.76,-32660.57 150981.14,-34463.27 "/>
</symbol>
 <g id="Слой_x0020_1">
  <metadata id="CorelCorpID_0Corel-Layer"/>
  <path class="fil1" d="M11983.16 16118.22c-3471.8,0 -3529.79,-1142.53 -3824.8,-1608.12 -328.82,-519.59 -411.94,-2155.98 -411.94,-2155.98l-1.82 0 0 -7841.99c0,-1241.92 652.34,-1431.11 2335.34,-1431.11 3219.66,0 5260.94,2862.03 5260.94,6502.16 0,3634.04 -1338.85,5315.55 -4691.02,5757.24 0.26,0.26 0,-0.61 0,0 3398.16,412.81 6605.82,-2303.52 6605.82,-6219.78 0,-3619.6 -2946.05,-6397.33 -7385.8,-6397.33 -778.51,0 -2020.43,105.57 -2967,105.57 -967.95,0 -1830.79,-63.23 -2525.22,-63.23 -84.34,0 -84.34,252.5 0,252.5 1452.07,0 1704.12,252.06 1704.12,1451.72l0 7884.25 -7.04 0c0,0 29.47,1220.79 -135.2,1731.16 -497.24,960.66 -2091.9,2058.07 -2186.92,3234.09 0,0 1331.12,-1731.52 3391.36,-1437.63 1711.86,250.91 1461.29,660.09 4168.05,914.92 2632.97,323.61 4971.68,-1678.39 5320.43,-3246.35 -486.2,892.93 -2625.21,2586.97 -4649.3,2567.91z"/>
  <path class="fil1" d="M4652.49 18398.27c0,0 452.12,-1307.21 2501.93,-1307.21 1509.71,-0.36 2232.39,619.21 3799.75,770.75 1567.61,151.56 2224.66,-109.81 3188.97,-365.6 -1271.65,470.55 -2134.77,862.84 -3561.36,656.96 -2010.25,-290.13 -1803.85,-597.49 -3800.62,-681.48 -1873.75,144.43 -2128.67,926.58 -2128.67,926.58z"/>
 </g>
</svg>
