<?xml version="1.0" encoding="UTF-8"?>
<!DOCTYPE svg PUBLIC "-//W3C//DTD SVG 1.1//EN" "http://www.w3.org/Graphics/SVG/1.1/DTD/svg11.dtd">
<!-- Creator: CorelDRAW 2017 -->
<svg xmlns="http://www.w3.org/2000/svg" xml:space="preserve" width="513mm" height="172mm" version="1.1" style="shape-rendering:geometricPrecision; text-rendering:geometricPrecision; image-rendering:optimizeQuality; fill-rule:evenodd; clip-rule:evenodd"
viewBox="0 0 51300 17200"
 xmlns:xlink="http://www.w3.org/1999/xlink">
 <defs>
  <style type="text/css">
   <![CDATA[
    .fil1 {fill:#FEFEFE;fill-rule:nonzero}
    .fil0 {fill:#39AAE1;fill-rule:nonzero}
   ]]>
  </style>
 </defs>
<symbol id="Fm0-41-0" viewBox="211898.9 -39997.57 24077.29 18300">
 <polygon class="fil0" points="220496.78,-28977.95 221067.95,-25304.31 217055.19,-27107.7 216483.74,-30781.47 "/>
 <polygon class="fil0" points="216483.69,-30781.47 212470.94,-32584.69 211898.9,-36258.63 215912.53,-34454.08 "/>
 <polygon class="fil0" points="219924.2,-32650.81 215912.65,-34454.08 215340.15,-38128.31 219353.62,-36324.05 "/>
 <polygon class="fil0" points="235404.9,-29110.4 235976.19,-25436.88 231963.6,-27241.01 231392.72,-30913.91 "/>
 <polygon class="fil0" points="223938.29,-30847.46 224509.46,-27174.52 220496.7,-28977.95 219924.2,-32650.85 "/>
 <polygon class="fil0" points="227950.59,-29044.36 231963.64,-27240.97 232535.55,-23567.33 228522.8,-25370.88 "/>
 <polygon class="fil0" points="230821.18,-34586.48 231392.64,-30913.87 227380.63,-32716.22 226807.55,-36390.91 "/>
 <polygon class="fil0" points="223366.29,-34521.19 227380.67,-32716.18 227950.67,-29044.45 223938.21,-30847.38 "/>
 <polygon class="fil0" points="228522.88,-25370.92 229094.63,-21697.57 225081.46,-23501.12 224509.37,-27174.61 "/>
 <polygon class="fil0" points="218781.45,-39997.57 222795.5,-38194.18 223366.25,-34521.28 219353.66,-36323.92 "/>
</symbol>
<symbol id="Fm0-45-0" viewBox="211899.08 -39997.57 24077.17 18300">
 <polygon class="fil0" points="220496.93,-28977.95 221068.14,-25304.31 217055.21,-27107.7 216483.76,-30781.47 "/>
 <polygon class="fil0" points="216483.76,-30781.47 212471,-32584.69 211899.08,-36258.63 215912.59,-34454.08 "/>
 <polygon class="fil0" points="219924.27,-32650.81 215912.71,-34454.08 215340.22,-38128.31 219353.68,-36324.05 "/>
 <polygon class="fil0" points="235404.92,-29110.4 235976.25,-25436.88 231963.66,-27241.01 231392.91,-30913.91 "/>
 <polygon class="fil0" points="223938.31,-30847.46 224509.52,-27174.52 220496.89,-28977.95 219924.27,-32650.85 "/>
 <polygon class="fil0" points="227950.65,-29044.36 231963.7,-27240.97 232535.62,-23567.33 228522.86,-25370.88 "/>
 <polygon class="fil0" points="230821.2,-34586.48 231392.83,-30913.87 227380.65,-32716.22 226807.57,-36390.91 "/>
 <polygon class="fil0" points="223366.36,-34521.19 227380.73,-32716.18 227950.74,-29044.45 223938.27,-30847.38 "/>
 <polygon class="fil0" points="228522.9,-25370.92 229094.65,-21697.57 225081.48,-23501.12 224509.4,-27174.61 "/>
 <polygon class="fil0" points="218781.47,-39997.57 222795.56,-38194.18 223366.27,-34521.28 219353.68,-36323.92 "/>
</symbol>
<symbol id="Fm0-119-0" viewBox="158676.33 -40036.94 24077.5 18300">
 <polygon class="fil0" points="167274.28,-29017.21 167845.45,-25343.71 163832.66,-27147.11 163261.2,-30820.91 "/>
 <polygon class="fil0" points="163261.2,-30820.91 159248.25,-32624.02 158676.33,-36297.98 162689.99,-34493.37 "/>
 <polygon class="fil0" points="166701.73,-32690.26 162690.11,-34493.37 162117.61,-38167.79 166131.14,-36363.35 "/>
 <polygon class="fil0" points="182182.49,-29149.78 182753.83,-25476.27 178741.21,-27280.43 178170.33,-30953.35 "/>
 <polygon class="fil0" points="170715.68,-30886.73 171286.85,-27213.93 167274.19,-29017.21 166701.73,-32690.3 "/>
 <polygon class="fil0" points="174728.18,-29083.66 178741.25,-27280.38 179313.17,-23606.59 175300.39,-25410.28 "/>
 <polygon class="fil0" points="177598.74,-34625.94 178170.2,-30953.31 174158.17,-32755.67 173585.08,-36430.38 "/>
 <polygon class="fil0" points="170143.85,-34560.65 174158.21,-32755.63 174728.22,-29083.7 170715.6,-30886.69 "/>
 <polygon class="fil0" points="175300.43,-25410.32 175872.05,-21736.94 171858.81,-23540.51 171286.94,-27214.02 "/>
 <polygon class="fil0" points="165558.81,-40036.94 169573.05,-38233.54 170143.76,-34560.57 166131.14,-36363.27 "/>
</symbol>
<symbol id="Fm0-115-0" viewBox="211898.59 -40290.71 24077.23 18300">
 <polygon class="fil0" points="220496.41,-29271.08 221067.58,-25597.44 217054.71,-27400.82 216483.25,-31074.63 "/>
 <polygon class="fil0" points="216483.25,-31074.59 212470.5,-32877.85 211898.59,-36551.78 215912.04,-34747.23 "/>
 <polygon class="fil0" points="219923.71,-32943.97 215912.17,-34747.23 215339.67,-38421.45 219353.29,-36617.15 "/>
 <polygon class="fil0" points="235404.37,-29403.52 235975.82,-25730.05 231963.24,-27534.14 231392.37,-31207.07 "/>
 <polygon class="fil0" points="223937.79,-31140.58 224508.95,-27467.69 220496.37,-29271.08 219923.71,-32944.01 "/>
 <polygon class="fil0" points="227950.12,-29337.53 231963.28,-27534.14 232535.03,-23860.5 228522.45,-25664.01 "/>
 <polygon class="fil0" points="230820.66,-34879.59 231392.28,-31206.99 227380.12,-33009.38 226807.04,-36684.02 "/>
 <polygon class="fil0" points="223365.83,-34814.34 227380.16,-33009.34 227950.16,-29337.57 223937.75,-31140.54 "/>
 <polygon class="fil0" points="228522.49,-25664.05 229094.11,-21990.71 225080.91,-23794.26 224508.87,-27467.77 "/>
 <polygon class="fil0" points="218780.96,-40290.71 222795.16,-38487.32 223365.75,-34814.39 219353.29,-36617.07 "/>
</symbol>
<symbol id="Fm0-53-0" viewBox="212064.29 -39997.75 24077.33 18300">
 <polygon class="fil0" points="220662.19,-28978.02 221233.36,-25304.52 217220.46,-27107.92 216648.99,-30781.76 "/>
 <polygon class="fil0" points="216648.99,-30781.72 212636.21,-32584.83 212064.29,-36258.79 216077.78,-34454.35 "/>
 <polygon class="fil0" points="220089.53,-32651.07 216077.91,-34454.35 215505.4,-38128.6 219518.9,-36324.16 "/>
 <polygon class="fil0" points="235570.28,-29110.63 236141.62,-25437.09 232128.96,-27241.24 231558.25,-30914.16 "/>
 <polygon class="fil0" points="224103.6,-30847.59 224674.77,-27174.79 220662.15,-28978.02 220089.48,-32651.11 "/>
 <polygon class="fil0" points="228115.97,-29044.47 232129.04,-27241.24 232700.92,-23567.4 228688.18,-25371.09 "/>
 <polygon class="fil0" points="230986.54,-34586.75 231558.16,-30914.12 227545.96,-32716.48 226972.88,-36391.2 "/>
 <polygon class="fil0" points="223531.6,-34521.47 227546,-32716.44 228116.01,-29044.56 224103.52,-30847.5 "/>
 <polygon class="fil0" points="228688.22,-25371.13 229259.97,-21697.75 225246.77,-23501.32 224674.69,-27174.87 "/>
 <polygon class="fil0" points="218946.73,-39997.75 222960.8,-38194.35 223531.56,-34521.42 219518.94,-36324.08 "/>
</symbol>
<symbol id="Fm0-127-0" viewBox="212081.71 -40257.79 24077.11 18300">
 <polygon class="fil0" points="220679.54,-29238.16 221250.7,-25564.52 217237.83,-27368.04 216666.37,-31041.72 "/>
 <polygon class="fil0" points="216666.33,-31041.67 212653.62,-32844.89 212081.71,-36518.87 216095.17,-34714.27 "/>
 <polygon class="fil0" points="220106.87,-32911.18 216095.29,-34714.27 215522.79,-38388.66 219536.25,-36584.24 "/>
 <polygon class="fil0" points="235587.49,-29370.61 236158.82,-25697.26 232146.2,-27501.23 231575.49,-31174.16 "/>
 <polygon class="fil0" points="224120.91,-31107.67 224692.08,-27434.78 220679.5,-29238.16 220106.83,-32911.22 "/>
 <polygon class="fil0" points="228133.24,-29304.61 232146.28,-27501.19 232718.15,-23827.55 228705.45,-25631.27 "/>
 <polygon class="fil0" points="231003.78,-34846.68 231575.37,-31174.08 227563.24,-32976.59 226990.16,-36651.27 "/>
 <polygon class="fil0" points="223548.91,-34781.39 227563.28,-32976.55 228133.29,-29304.66 224120.83,-31107.63 "/>
 <polygon class="fil0" points="228705.49,-25631.31 229277.24,-21957.79 225264.07,-23761.35 224691.99,-27434.82 "/>
 <polygon class="fil0" points="218964.09,-40257.79 222978.12,-38454.36 223548.87,-34781.47 219536.29,-36584.15 "/>
</symbol>
<symbol id="Fm0-49-0" viewBox="211899.02 -39997.57 24077.29 18300">
 <polygon class="fil0" points="220496.87,-28977.95 221068.03,-25304.31 217055.15,-27107.7 216483.69,-30781.47 "/>
 <polygon class="fil0" points="216483.69,-30781.47 212470.94,-32584.69 211899.02,-36258.63 215912.48,-34454.08 "/>
 <polygon class="fil0" points="219924.16,-32650.81 215912.61,-34454.08 215340.11,-38128.31 219353.74,-36324.05 "/>
 <polygon class="fil0" points="235404.86,-29110.4 235976.31,-25436.88 231963.72,-27241.01 231392.85,-30913.91 "/>
 <polygon class="fil0" points="223938.25,-30847.46 224509.42,-27174.52 220496.83,-28977.95 219924.16,-32650.85 "/>
 <polygon class="fil0" points="227950.59,-29044.36 231963.76,-27240.97 232535.51,-23567.33 228522.92,-25370.88 "/>
 <polygon class="fil0" points="230821.14,-34586.48 231392.76,-30913.87 227380.59,-32716.22 226807.51,-36390.91 "/>
 <polygon class="fil0" points="223366.29,-34521.19 227380.63,-32716.18 227950.63,-29044.45 223938.21,-30847.38 "/>
 <polygon class="fil0" points="228522.96,-25370.92 229094.59,-21697.57 225081.37,-23501.12 224509.33,-27174.61 "/>
 <polygon class="fil0" points="218781.41,-39997.57 222795.62,-38194.18 223366.21,-34521.28 219353.74,-36323.92 "/>
</symbol>
<symbol id="Fm0-123-0" viewBox="211999.49 -40257.79 24077.24 18300">
 <polygon class="fil0" points="220597.31,-29238.16 221168.48,-25564.52 217155.61,-27368.04 216584.11,-31041.72 "/>
 <polygon class="fil0" points="216584.11,-31041.67 212571.4,-32844.89 211999.49,-36518.87 216012.94,-34714.27 "/>
 <polygon class="fil0" points="220024.78,-32911.18 216013.07,-34714.27 215440.57,-38388.66 219454.19,-36584.24 "/>
 <polygon class="fil0" points="235505.27,-29370.61 236076.73,-25697.26 232064.14,-27501.23 231493.27,-31174.16 "/>
 <polygon class="fil0" points="224038.69,-31107.67 224609.85,-27434.78 220597.27,-29238.16 220024.78,-32911.22 "/>
 <polygon class="fil0" points="228051.15,-29304.61 232064.19,-27501.19 232636.1,-23827.55 228623.35,-25631.27 "/>
 <polygon class="fil0" points="230921.56,-34846.68 231493.14,-31174.08 227481.02,-32976.59 226908.07,-36651.27 "/>
 <polygon class="fil0" points="223466.73,-34781.39 227481.06,-32976.55 228051.23,-29304.66 224038.61,-31107.63 "/>
 <polygon class="fil0" points="228623.39,-25631.31 229195.02,-21957.79 225181.81,-23761.35 224609.9,-27434.82 "/>
 <polygon class="fil0" points="218881.86,-40257.79 222896.07,-38454.36 223466.65,-34781.47 219454.19,-36584.15 "/>
</symbol>
<symbol id="Fm0-37-0" viewBox="212001 -39997.57 24077.3 18300">
 <polygon class="fil0" points="220598.85,-28977.95 221170.02,-25304.31 217157.13,-27107.7 216585.68,-30781.47 "/>
 <polygon class="fil0" points="216585.68,-30781.47 212572.92,-32584.69 212001,-36258.63 216014.51,-34454.08 "/>
 <polygon class="fil0" points="220026.31,-32650.81 216014.59,-34454.08 215442.09,-38128.31 219455.72,-36324.05 "/>
 <polygon class="fil0" points="235506.84,-29110.4 236078.3,-25436.88 232065.7,-27241.01 231494.83,-30913.91 "/>
 <polygon class="fil0" points="224040.23,-30847.46 224611.4,-27174.52 220598.81,-28977.95 220026.31,-32650.85 "/>
 <polygon class="fil0" points="228052.7,-29044.36 232065.75,-27240.97 232637.54,-23567.33 228624.9,-25370.88 "/>
 <polygon class="fil0" points="230923.12,-34586.48 231494.75,-30913.87 227482.57,-32716.22 226909.66,-36390.91 "/>
 <polygon class="fil0" points="223468.27,-34521.19 227482.61,-32716.18 228052.78,-29044.45 224040.15,-30847.38 "/>
 <polygon class="fil0" points="228624.95,-25370.92 229196.57,-21697.57 225183.4,-23501.12 224611.48,-27174.61 "/>
 <polygon class="fil0" points="218883.39,-39997.57 222897.61,-38194.18 223468.19,-34521.28 219455.72,-36323.92 "/>
</symbol>
<symbol id="Fm0-33-0" viewBox="211898.94 -39997.57 24077.29 18300">
 <polygon class="fil0" points="220496.78,-28977.95 221067.95,-25304.31 217055.23,-27107.7 216483.74,-30781.47 "/>
 <polygon class="fil0" points="216483.74,-30781.47 212470.85,-32584.69 211898.94,-36258.63 215912.57,-34454.08 "/>
 <polygon class="fil0" points="219924.24,-32650.81 215912.69,-34454.08 215340.2,-38128.31 219353.66,-36324.05 "/>
 <polygon class="fil0" points="235404.94,-29110.4 235976.23,-25436.88 231963.64,-27241.01 231392.76,-30913.91 "/>
 <polygon class="fil0" points="223938.17,-30847.46 224509.33,-27174.52 220496.74,-28977.95 219924.24,-32650.85 "/>
 <polygon class="fil0" points="227950.63,-29044.36 231963.68,-27240.97 232535.6,-23567.33 228522.84,-25370.88 "/>
 <polygon class="fil0" points="230821.22,-34586.48 231392.68,-30913.87 227380.67,-32716.22 226807.59,-36390.91 "/>
 <polygon class="fil0" points="223366.33,-34521.19 227380.71,-32716.18 227950.72,-29044.45 223938.12,-30847.38 "/>
 <polygon class="fil0" points="228522.88,-25370.92 229094.5,-21697.57 225081.33,-23501.12 224509.42,-27174.61 "/>
 <polygon class="fil0" points="218781.33,-39997.57 222795.54,-38194.18 223366.29,-34521.28 219353.66,-36323.92 "/>
</symbol>
 <g id="Слой_x0020_1">
  <metadata id="CorelCorpID_0Corel-Layer"/>
  <polygon class="fil1" points="458.35,1055.08 705.85,1055.08 705.85,1550.08 705.85,3896.4 705.85,16577.21 50594.15,16577.21 50594.15,1550.08 13165.86,1550.08 13165.86,1055.08 51089.15,1055.08 51089.15,17072.21 210.85,17072.21 210.85,1055.08 "/>
  <path class="fil1" d="M3152.54 2318.86l-1628.4 0 0 -352.8 749.93 -787.67c184.88,-210.59 277.32,-377.41 277.32,-501.59 0,-100.09 -21.88,-176.68 -65.64,-229.19 -43.76,-51.96 -107.21,-78.22 -190.35,-78.22 -82.59,0 -149.33,35.01 -200.75,105.03 -50.87,70.02 -76.58,156.99 -76.58,261.46l-541.52 0c0,-142.77 35.57,-275.14 107.22,-396.57 71.66,-120.88 170.66,-216.06 298.11,-284.43 126.9,-68.38 269.11,-102.29 426.11,-102.29 252.15,0 446.34,57.98 582.53,174.49 136.21,116.51 204.03,283.88 204.03,501.59 0,91.9 -16.96,181.06 -50.86,268.57 -34.47,86.97 -87.53,178.32 -159.73,273.49 -72.2,95.72 -188.16,223.72 -348.43,383.99l-301.39 347.33 918.4 0 0 416.81z"/>
  <path class="fil1" d="M4896.87 969.99c-145.5,0 -218.25,77.13 -218.25,230.83l-506.51 0c0,-188.71 67.28,-343.51 201.29,-465.49 134.01,-121.43 308.5,-182.14 523.47,-182.14 253.26,0 453.46,79.31 601.69,237.39 147.69,158.07 222.08,377.42 222.08,658.57l0 22.43c0,269.11 -73.85,483.54 -221.54,642.16 -147.14,158.63 -346.78,237.94 -598.95,237.94 -222.63,0 -399.3,-61.8 -530.58,-185.97 -131.27,-123.62 -197.46,-294.83 -197.46,-512.53l506.51 0c0,87.51 19.15,156.44 56.89,206.21 38.29,50.33 92.99,75.49 164.64,75.49 161.36,0 252.17,-113.78 272.4,-341.32l-381.8 0 0 -292.09 381.8 0c-19.69,-220.99 -111.04,-331.48 -275.68,-331.48zm2478.95 32.82l-546.44 0 0 1316.05 -543.16 0 0 -1316.05 -538.79 0 0 -416.8 1628.39 0 0 416.8zm1152.51 1316.05c-19.71,-35 -36.65,-86.42 -51.43,-154.25 -99.55,124.71 -238.49,187.07 -416.81,187.07 -163.54,0 -302.48,-49.23 -416.8,-148.23 -114.32,-99.01 -171.21,-223.72 -171.21,-373.6 0,-188.16 69.47,-330.37 208.41,-426.65 138.94,-96.27 340.78,-144.4 605.51,-144.4l166.84 0 0 -91.89c0,-159.73 -68.93,-239.58 -206.76,-239.58 -128,0 -192.55,63.45 -192.55,189.8l-539.88 0c0,-167.38 71.12,-303.03 213.88,-407.5 142.76,-104.48 324.37,-156.44 545.89,-156.44 220.99,0 395.48,54.15 524.02,161.9 127.99,107.76 193.63,256 196.92,443.61l0 767.43c2.19,159.17 26.8,281.15 73.84,365.38l0 27.35 -539.87 0zm-338.59 -351.16c67.28,0 123.06,-14.23 167.92,-43.21 44.3,-29 76.03,-61.82 95.18,-98.46l0 -278.42 -156.99 0c-188.17,0 -282.25,84.79 -282.25,254.34 0,49.24 16.42,89.16 49.78,119.8 32.82,30.63 75.49,45.95 126.36,45.95zm2915.44 -252.71l-205.12 0 0 603.87 -539.88 0 0 -603.87 -200.2 0 -296.46 603.87 -641.08 0 515.81 -926.6 -536.6 -806.25 674.44 0 328.74 623.56 155.35 0 0 -623.56 539.88 0 0 623.56 160.26 0 330.38 -623.56 674.44 0 -539.88 809.54 15.86 -7.66 519.1 930.97 -660.21 0 -294.83 -603.87z"/>
  <path class="fil1" d="M9154.93 13723.48c-409.99,-382.85 -844.44,-662.53 -1303.26,-836.26 -458.87,-171.1 -901.45,-244.39 -1325.05,-217.25 -439.85,32.61 -689.66,279.67 -746.67,741.27 -59.7,461.55 32.6,798.25 274.27,1012.76 187.32,162.91 488.74,287.82 906.86,374.66 418.12,84.21 863.39,133.04 1333.13,141.23 344.83,5.4 681.53,-10.87 1007.35,-48.88 325.83,-40.75 616.32,-122.17 868.86,-249.8 217.19,-116.76 401.85,-295.95 556.57,-540.36 152.1,-247.07 236.26,-526.7 252.54,-844.39l105.89 46.16c97.76,583.77 -97.76,1143.07 -583.77,1683.41 -488.74,540.31 -1213.69,814.57 -2174.84,822.71 -572.9,2.68 -1056.23,-100.48 -1447.21,-312.28 -390.98,-211.74 -697.8,-502.29 -920.41,-871.53 -247.08,-420.86 -361.17,-882.46 -344.83,-1387.47 16.27,-505.01 162.9,-980.15 439.86,-1422.74 247.07,-393.72 575.57,-711.41 985.61,-953.02l0 -1539.52 -901.45 -38c-203.66,-5.47 -344.83,86.89 -429,274.22 -84.16,187.32 -141.18,423.58 -171.04,708.66l-84.17 -5.46 0 -1178.35c0,-160.19 59.69,-393.71 179.19,-703.21 116.77,-306.82 431.73,-461.6 939.42,-461.6l467.05 0 0 -1411.88c-274.27,24.42 -610.96,43.42 -1012.76,51.56 -95.03,2.73 -138.5,-21.69 -135.77,-73.3 2.73,-51.61 35.29,-81.47 100.44,-89.61 806.43,-65.15 1680.69,-149.31 2628.3,-252.48 944.87,-103.17 1843.6,-629.92 2698.86,-1580.26 2.73,-2.68 54.34,2.73 152.09,21.74 304.09,176.46 556.58,428.99 760.23,757.55 200.92,328.5 328.55,678.79 385.58,1053.45 46.14,328.55 29.82,654.38 -46.21,977.47 -76.02,323.1 -228.06,594.64 -456.14,809.11 -168.32,160.18 -434.39,279.68 -795.55,363.85 -363.79,84.16 -686.94,141.17 -966.57,168.37 -19,2.67 -19,19 -5.45,43.42 13.59,27.13 27.14,40.74 43.47,40.74 154.72,13.54 374.65,13.54 659.78,5.4 282.36,-8.14 543.04,21.74 779.24,92.3 448,143.91 665.2,448.05 654.38,912.32l-54.34 2788.49c-279.67,-24.42 -564.76,-32.6 -849.85,-24.42 -287.81,8.14 -583.76,70.57 -885.12,181.87 -236.21,89.62 -480.6,214.52 -730.41,380.17 -249.8,165.58 -518.56,361.1 -809.1,589.18zm-2386.64 -2503.4c100.44,-43.42 198.2,-81.44 290.55,-111.3 390.98,-122.18 803.65,-152.06 1238.1,-95.03 434.4,59.69 833.57,198.19 1200.09,412.71l0 -2609.29 -619.06 19 0 1726.85c-342.09,-13.6 -648.91,27.14 -923.13,119.44 -274.27,95.02 -513.21,179.24 -716.81,252.53 -162.92,59.75 -320.42,154.78 -469.74,285.09zm2109.68 -2544.09c228.08,-8.19 434.45,-21.73 619.06,-40.74l0 -2522.4 19.01 -13.59c-244.35,62.47 -456.14,114.03 -638.07,149.36l0 2427.37zm860.72 -2636.43l0 2576.68c2.73,-2.72 8.14,-5.45 13.6,-5.45 537.57,-51.56 893.27,-230.75 1069.73,-534.89 176.5,-304.1 247.12,-608.19 217.25,-909.55 -29.88,-301.41 -154.77,-594.63 -371.98,-879.72 -217.25,-285.09 -491.47,-377.43 -819.97,-279.67 -19.01,5.41 -35.33,10.86 -51.61,16.28 -19,8.13 -38.01,13.59 -57.02,16.32zm0 2791.16l0 2761.34c323.1,241.66 570.17,534.88 735.82,874.3l35.28 -43.47c2.73,-437.12 8.14,-882.39 10.87,-1341.26 2.72,-458.86 8.14,-901.45 13.59,-1333.18 0,-133.04 -48.87,-306.82 -143.9,-526.75 -97.77,-217.2 -314.96,-347.51 -651.66,-390.98zm5422.24 2964.99l545.71 450.73 445.32 -445.33 -32.61 -2503.39 -958.42 -953.01 0 3451zm993.7 249.8l-1582.93 1686.1 -1086.05 -1023.63 -43.47 -4694.51c610.96,-29.88 1126.84,-124.9 1544.96,-290.54 475.15,-187.33 923.15,-456.14 1338.59,-809.11l1335.86 1221.83c141.18,130.3 260.63,152.04 358.38,62.47 97.76,-89.62 230.8,-184.65 399.12,-287.82 13.6,-8.13 27.19,-2.73 46.2,21.7 16.28,24.46 19.01,40.73 10.82,48.87 -133.04,124.9 -274.22,282.41 -420.86,469.74 -146.59,187.32 -219.92,437.12 -219.92,746.67l0 2823.76 551.21 491.48 382.84 -342.11 108.57 122.18 -1631.8 1439.02 -1086.05 -1023.63 -5.47 -662.47zm8332.89 298.64c-629.92,21.73 -1186.54,122.21 -1669.82,298.68 -610.91,219.93 -1069.78,562.03 -1371.19,1020.9 -35.28,21.73 -62.43,21.73 -84.16,0l-963.88 -879.72c-162.92,-143.91 -331.24,-225.35 -505.02,-244.35 -130.31,-8.13 -244.35,19 -342.11,81.43 -100.48,65.2 -192.78,124.9 -279.67,181.92 -13.55,8.19 -27.15,-2.68 -40.74,-35.28 -16.28,-29.88 -19.01,-51.61 -10.82,-59.75 274.22,-219.93 472.42,-401.85 589.18,-540.3 116.77,-138.49 176.45,-301.4 176.45,-488.73l0 -2978.55 -602.72 -434.45 -336.69 312.29 -116.77 -116.77 1591.08 -1612.8 1140.39 1029.03 0 953.02 1830.01 -2006.52 727.68 912.33c76.02,95.02 206.37,135.77 388.3,124.9 181.87,-10.87 355.64,-67.89 524.01,-171.05 8.14,-8.14 24.43,0 43.42,21.68 19.01,24.47 21.74,40.75 13.61,48.88 -133.05,124.9 -285.09,236.26 -450.73,333.96 -165.65,97.76 -249.81,301.42 -249.81,610.92l0 3638.33zm-1675.28 116.76l-38.01 -3736.09 -407.26 -355.65 -705.94 719.49 0 2582.15 1151.21 790.1zm4803.19 -665.2l545.71 450.73 445.31 -445.33 -32.6 -2503.39 -958.42 -953.01 0 3451zm993.7 249.8l-1582.93 1686.1 -1086.06 -1023.63 -43.47 -4694.51c610.97,-29.88 1126.85,-124.9 1544.97,-290.54 475.14,-187.33 923.15,-456.14 1338.59,-809.11l1335.86 1221.83c141.18,130.3 260.63,152.04 358.38,62.47 97.76,-89.62 230.8,-184.65 399.12,-287.82 13.6,-8.13 27.19,-2.73 46.2,21.7 16.28,24.46 19.01,40.73 10.82,48.87 -133.05,124.9 -274.22,282.41 -420.86,469.74 -146.59,187.32 -219.93,437.12 -219.93,746.67l0 2823.76 551.22 491.48 382.84 -342.11 108.57 122.18 -1631.81 1439.02 -1086.06 -1023.63 -5.45 -662.47zm2663.62 -3641.06l1490.64 -1463.48 1124.06 963.88 0 651.65 1436.31 -1572.06c92.34,-100.49 149.36,-103.22 171.1,-10.87 13.54,46.15 38,122.17 78.69,228.06 38.02,105.9 86.9,211.79 146.64,314.96 73.3,133.05 160.18,238.94 257.95,317.69 95.03,78.71 192.78,65.15 293.22,-35.33 51.61,-54.28 92.35,-222.61 127.64,-507.69 2.72,-19.06 21.73,-29.88 62.41,-35.34 40.74,-2.73 59.75,2.74 59.75,21.73 5.47,361.12 -54.28,692.35 -181.91,991.03 -127.58,301.42 -276.95,510.48 -450.73,632.65 -228.07,160.19 -518.57,228.07 -868.85,209.06 -352.98,-19.01 -627.2,-236.2 -825.4,-654.33l-306.82 314.96 0 2712.46 1132.22 841.66 752.13 -814.52 111.31 116.72 -1800.19 2068.99 -1379.28 -958.48c-95.02,-67.88 -230.79,-122.16 -407.3,-168.32 -176.46,-46.14 -374.66,54.29 -589.18,298.68 -13.55,8.14 -27.14,2.69 -43.41,-19 -19.01,-21.73 -21.74,-40.74 -13.61,-57.02 97.77,-149.36 209.07,-279.67 333.97,-396.43 124.9,-116.77 187.38,-317.69 187.38,-608.19l0 -3079.03 -491.47 -488.73 -295.96 312.27 -111.31 -127.63zm7683.92 3472.69l553.9 486.01 382.84 -336.64 108.63 122.17 -1634.54 1444.48 -1080.65 -1034.5 -46.15 -3760.49 -401.85 -355.7 -336.7 317.68 -111.29 -119.49 1572.06 -1634.54 947.61 1053.51c78.75,86.88 171.05,114.02 279.67,78.74 105.9,-35.27 244.34,-103.17 412.72,-206.37 8.14,-5.42 24.42,2.72 43.41,24.46 19.01,21.73 21.74,38 13.61,46.14 -133.05,124.91 -285.09,252.54 -450.73,385.58 -168.32,133.03 -252.54,355.64 -252.54,662.47l0 2826.49zm-2117.82 -6204.15c507.74,-225.34 882.45,-597.36 1118.66,-1115.92 43.42,-100.49 81.48,-100.49 116.76,0 143.91,431.71 515.88,803.69 1118.66,1115.92 67.89,40.74 67.89,81.43 0,122.17 -578.35,377.44 -950.34,752.09 -1118.66,1118.66 -35.28,73.29 -73.34,73.29 -116.76,0 -323.09,-486.01 -695.08,-860.72 -1118.66,-1118.66 -81.43,-43.41 -81.43,-84.16 0,-122.17zm5435.79 6122.72l545.7 450.73 445.33 -445.33 -32.62 -2503.39 -958.41 -953.01 0 3451zm993.7 249.8l-1582.93 1686.1 -1086.06 -1023.63 -43.46 -4694.51c610.96,-29.88 1126.83,-124.9 1544.96,-290.54 475.14,-187.33 923.15,-456.14 1338.59,-809.11l1335.86 1221.83c141.18,130.3 260.62,152.04 358.38,62.47 97.76,-89.62 230.8,-184.65 399.12,-287.82 13.6,-8.13 27.19,-2.73 46.2,21.7 16.27,24.46 19.01,40.73 10.82,48.87 -133.05,124.9 -274.22,282.41 -420.86,469.74 -146.59,187.32 -219.93,437.12 -219.93,746.67l0 2823.76 551.21 491.48 382.85 -342.11 108.57 122.18 -1631.81 1439.02 -1086.05 -1023.63 -5.46 -662.47z"/>
  <path class="fil1" d="M15993.75 5445.89c63.23,-9.62 110.39,-20.33 143.6,-29.98 33.2,-9.65 53.58,-26.79 63.23,-49.33 8.59,-22.49 13.95,-55.71 16.08,-98.58 3.23,-52.52 5.35,-115.75 6.41,-187.57 1.12,-71.78 2.18,-145.73 3.24,-222.92 1.06,-76.07 2.13,-154.31 2.13,-232.56 0,-78.25 0,-147.91 0,-211.14 0,-11.78 -1.07,-28.91 -3.19,-50.34 -3.24,-21.43 -12.89,-39.68 -31.09,-55.76 -20.37,-20.37 -46.1,-35.38 -77.19,-47.16 -31.08,-11.77 -65.35,-23.55 -100.73,-35.38 -5.37,-7.48 -5.37,-23.55 -1.07,-48.23 3.24,-23.55 8.59,-37.5 16.08,-42.85 85.72,-9.65 173.62,-28.92 263.66,-56.77 88.96,-27.9 158.61,-55.76 208.95,-82.55l11.84 18.2c0,7.53 0,20.38 0,37.51 0,18.25 -1.07,38.62 -2.18,61.11 -1.06,22.5 -2.12,45.04 -2.12,66.47 0,21.44 0,39.63 0,54.64 0,5.36 3.23,8.59 8.59,10.72 5.36,3.23 9.6,2.12 14.96,-3.23 108.27,-85.74 205.78,-147.91 294.74,-185.41 87.91,-37.51 160.79,-56.77 218.62,-56.77 88.96,0 166.15,23.55 231.5,69.66 65.41,47.15 116.82,107.16 154.32,180.05 5.36,7.47 13.96,8.53 26.79,3.18 97.56,-78.19 192.94,-139.31 285.09,-185.41 92.2,-44.99 174.68,-67.48 247.58,-67.48 146.83,0 261.53,52.47 345.13,156.44 82.5,105.04 124.3,256.17 124.3,452.3 0,50.34 1.05,109.28 2.12,175.75 1.11,67.54 1.11,132.9 1.11,198.25 0,65.4 0,128.64 0,188.64 0,61.11 0,110.39 0,147.9 0,12.84 3.19,27.85 9.61,43.92 6.47,16.08 16.07,27.91 28.96,35.39 22.5,12.84 48.23,22.5 79.31,28.96 30.02,6.42 70.72,12.84 121.11,20.33 2.13,5.35 3.19,12.89 2.13,22.54 -1.07,10.71 -3.19,22.49 -4.3,34.26 -1.07,12.89 -4.25,24.67 -7.48,34.33 -4.3,9.6 -7.49,16.07 -9.66,19.26 -35.38,0 -82.49,-2.13 -141.48,-5.36 -58.94,-4.3 -128.59,-6.42 -206.84,-6.42 -95.38,0 -171.46,1.06 -226.09,2.12 -55.76,1.12 -107.22,4.3 -155.43,9.66 -5.37,-5.36 -8.55,-23.56 -9.67,-55.71 -1.06,-31.08 2.18,-49.33 9.67,-54.68 35.38,-5.37 63.23,-9.62 83.59,-14.97 20.38,-5.36 39.63,-10.76 60.01,-18.25 27.89,-10.71 46.09,-28.91 53.57,-55.69 7.54,-26.85 11.83,-69.71 15.02,-129.71 0,-50.4 1.06,-111.46 2.17,-182.17 1.06,-69.71 1.06,-139.37 1.06,-207.95 0,-67.53 -1.06,-131.83 -3.23,-190.77 -3.19,-58.94 -6.42,-102.87 -11.78,-130.77 -5.35,-29.97 -13.95,-63.23 -27.85,-98.56 -13.96,-35.38 -34.32,-66.47 -61.11,-94.33 -26.79,-26.79 -60,-50.39 -99.68,-69.64 -40.69,-18.25 -90.02,-27.91 -147.9,-27.91 -50.35,0 -103.93,10.77 -160.75,32.2 -56.81,21.44 -113.57,55.7 -171.44,103.92 -5.37,2.18 -7.54,5.36 -7.54,10.72 0,5.36 0,9.66 0,15.01 5.36,35.39 8.6,75.01 11.77,118.99 2.18,43.93 3.24,95.39 3.24,153.26 0,50.34 0,106.1 0,166.09 0,61.12 0,121.12 0,182.17 0,61.12 0,117.93 0,171.51 0,54.65 1.06,101.8 3.24,142.54 0,27.86 5.35,48.23 17.13,60.01 11.79,12.89 25.74,23.6 43.93,31.08 24.66,7.49 49.28,12.89 71.83,18.25 22.49,5.35 52.52,9.6 90.02,14.97 7.48,7.52 9.66,26.79 6.42,56.8 -4.3,31.09 -9.65,48.23 -17.14,53.59 -52.51,-3.19 -109.33,-5.36 -170.44,-7.48 -61.06,-3.24 -131.77,-4.3 -212.2,-4.3 -57.88,0 -122.17,2.12 -191.82,6.42 -70.72,3.23 -124.3,5.36 -159.68,5.36 -7.53,-5.36 -10.72,-22.5 -10.72,-53.59 0,-30.01 3.19,-49.28 10.72,-56.8 33.2,-5.37 61.06,-9.62 83.61,-12.84 22.49,-3.24 44.98,-9.67 67.47,-17.14 25.73,-7.53 42.92,-20.37 51.46,-38.62 8.6,-17.14 13.95,-47.16 17.14,-90.02 2.17,-44.99 4.3,-106.1 5.36,-183.24 1.11,-77.18 2.17,-156.49 2.17,-236.86 0,-80.38 -1.06,-154.32 -3.23,-223.97 -3.19,-69.71 -6.43,-117.93 -11.78,-145.78 -5.36,-31.09 -13.95,-62.17 -25.73,-95.39 -12.84,-32.14 -32.15,-62.17 -56.82,-90.02 -25.68,-27.85 -57.87,-50.39 -95.38,-68.59 -37.51,-17.13 -84.67,-25.73 -139.31,-25.73 -42.87,0 -92.15,9.66 -147.89,27.85 -55.76,19.31 -108.23,49.33 -158.62,88.96 -12.84,12.89 -24.67,25.73 -34.28,39.68 -9.65,13.9 -15,31.09 -15,51.41 0,60.05 0,131.83 0,214.37 0,83.6 0,167.21 0,251.87 0,84.67 0,165.05 0,238.99 0,73.95 1.05,133.96 3.17,178.99 0,25.68 5.37,48.22 16.08,68.59 9.65,20.32 31.09,34.27 64.35,41.76 14.96,5.4 35.33,9.65 59.99,12.89 24.68,3.22 52.52,7.47 83.61,12.84 7.48,7.52 9.65,25.72 7.48,54.68 -3.23,28.91 -7.48,48.23 -15.01,55.71 -42.86,0 -95.38,-2.13 -158.62,-5.36 -63.23,-4.3 -133.95,-6.42 -212.2,-6.42 -98.61,0 -172.57,2.12 -222.91,6.42 -50.39,3.23 -99.68,5.36 -147.89,5.36 -9.67,-7.48 -15.02,-26.8 -15.02,-57.88 0,-29.97 5.35,-47.16 15.02,-52.51zm3549.56 -1304.27c-91.09,0 -166.1,38.56 -226.15,114.63 -61.06,77.19 -96.44,184.35 -106.1,320.48 0,5.35 2.18,10.71 5.37,17.13 3.22,6.42 7.52,9.66 12.88,9.66 31.04,2.11 77.14,2.11 140.37,1.06 63.24,-1.06 128.59,-2.12 197.19,-5.36 67.52,-2.12 130.76,-4.3 188.64,-7.49 57.88,-3.22 96.44,-6.41 116.81,-11.77 12.89,-11.83 19.3,-23.61 19.3,-33.26 -5.35,-48.22 -16.06,-95.38 -34.31,-143.6 -18.19,-48.22 -40.69,-91.09 -69.65,-130.77 -28.92,-39.63 -64.31,-70.71 -106.1,-95.39 -41.81,-23.55 -87.91,-35.32 -138.25,-35.32zm658.03 1039.55c7.52,7.53 12.88,15.01 15.01,22.54 3.23,12.84 2.16,32.15 -3.19,56.77 -5.36,25.72 -9.66,40.74 -15.01,46.09 -42.87,48.23 -90.03,88.97 -140.42,124.35 -50.34,35.33 -102.86,65.36 -156.44,88.91 -54.7,24.67 -108.28,41.81 -160.8,53.58 -52.52,10.72 -100.74,16.13 -143.6,16.13 -191.83,0 -345.08,-60.06 -461.9,-181.16 -78.24,-78.25 -132.89,-170.39 -166.14,-277.56 -33.22,-107.21 -49.29,-215.42 -49.29,-323.65 0,-166.15 32.15,-305.46 95.38,-418.03 63.23,-112.51 142.54,-200.36 237.93,-265.77 57.87,-37.51 125.4,-68.59 202.54,-91.08 76.12,-22.5 144.72,-34.28 205.77,-34.28 91.09,0 168.27,18.2 232.57,54.64 64.29,36.45 116.81,81.44 158.62,133.96 41.8,53.58 72.89,111.45 94.32,174.68 21.43,63.23 36.44,121.12 43.92,173.63 5.36,18.25 23.61,32.15 55.76,41.81 3.24,7.48 0,22.49 -8.59,44.98 -9.65,22.54 -16.08,36.44 -21.43,41.81 -39.63,12.88 -98.57,23.6 -176.82,32.15 -78.25,8.59 -165.03,17.18 -259.36,24.66 -95.38,7.53 -191.87,13.95 -289.38,17.13 -98.62,3.24 -186.46,6.48 -264.71,9.66 -15.02,5.36 -22.5,18.25 -22.5,40.74 5.36,65.35 20.37,133.95 47.16,204.72 26.8,70.71 62.12,130.72 107.17,181.11 58.93,57.87 121.1,99.68 186.46,126.47 65.41,26.79 140.42,39.63 226.15,39.63 76.07,0 148.96,-11.78 219.68,-36.45 69.71,-23.56 140.42,-64.29 211.14,-122.17zm1096.36 -351.51c0,-2.17 -2.13,-5.35 -5.36,-10.71 -3.18,-5.36 -7.48,-6.43 -12.84,-4.3 -35.39,12.84 -75.01,26.79 -118.98,41.8 -43.93,15.02 -87.85,30.03 -131.78,44.99 -43.98,15.01 -83.61,30.02 -118.99,45.04 -35.38,16.07 -62.17,30.02 -80.37,41.8 -7.53,5.36 -16.07,21.43 -24.67,49.28 -8.54,27.85 -12.84,51.46 -12.84,71.83 0,73.95 23.55,135.01 71.78,183.24 48.22,49.33 112.57,73.95 192.94,73.95 24.62,0 55.71,-5.37 92.15,-14.97 36.44,-9.65 69.65,-24.66 100.74,-45.04 22.54,-12.84 35.38,-41.79 40.74,-86.79 3.24,-20.36 5.35,-49.33 6.41,-85.77 1.07,-36.44 1.07,-75.01 1.07,-115.75 0,-39.63 0,-78.2 0,-113.59 0,-35.38 0,-59.99 0,-75.01zm4.3 -267.94c0,-37.51 -3.19,-76.08 -10.72,-115.76 -7.49,-39.63 -23.55,-75.01 -46.1,-107.16 -33.21,-48.22 -73.95,-83.61 -124.29,-108.27 -50.4,-23.56 -105.04,-35.33 -162.92,-35.33 -42.86,0 -76.07,4.3 -99.68,12.83 -24.61,8.59 -41.8,17.14 -51.4,24.67 -20.37,15.02 -45.05,49.28 -75.06,101.8 -31.1,52.52 -58.95,109.34 -83.56,170.4 -3.24,5.36 -10.72,5.36 -22.54,0 -12.84,-5.36 -25.73,-11.78 -37.51,-19.26 -12.84,-7.53 -24.61,-16.07 -34.28,-27.9 -10.71,-11.78 -16.06,-21.44 -16.06,-28.92 3.18,-11.77 7.47,-30.02 13.9,-52.51 6.46,-22.49 15.01,-46.1 24.66,-70.71 9.66,-23.62 19.31,-45.05 27.86,-64.31 8.59,-18.24 16.06,-30.02 21.43,-35.38 39.68,-27.85 83.6,-54.69 131.82,-79.31 48.22,-24.67 94.33,-47.16 140.42,-66.47 44.99,-18.19 87.85,-33.2 128.59,-44.98 39.68,-11.78 71.84,-17.14 94.33,-17.14 82.53,0 155.38,17.14 217.55,52.47 61.11,35.38 113.63,84.67 156.49,147.9 33.21,52.52 55.71,111.45 68.6,175.8 11.77,64.3 18.19,130.72 18.19,198.25 0,50.39 0,105.04 -1.06,162.91 -1.07,57.88 -3.23,115.76 -6.42,173.63 -3.24,57.88 -4.3,113.58 -5.36,166.1 -1.11,53.58 -2.17,99.68 -2.17,137.19 0,39.68 9.66,75.01 28.96,105.03 18.2,31.09 56.77,46.1 114.64,46.1 30.03,0 53.63,-1.06 71.83,-4.3 18.2,-2.11 37.51,-7.48 60,-15 0,5.35 0,12.89 0,22.49 0,9.65 0,21.42 -1.06,34.31 -1.07,12.84 -3.18,24.67 -5.36,35.38 -3.18,11.79 -5.36,18.21 -8.55,21.44 -45.03,50.35 -97.55,84.66 -156.49,103.93 -58.93,18.24 -110.39,27.9 -153.26,27.9 -52.52,0 -95.37,-9.66 -126.46,-27.9 -31.09,-19.27 -53.58,-42.87 -66.47,-69.66 -7.48,-12.84 -12.84,-27.85 -16.08,-46.09 -4.24,-17.14 -8.54,-33.22 -13.9,-49.29 0,-2.12 -2.17,-4.3 -5.35,-5.36 -4.3,-1.06 -7.54,-1.06 -9.66,2.13 -95.38,61.11 -182.22,108.26 -258.29,143.65 -77.19,35.33 -141.49,52.52 -191.83,52.52 -35.38,0 -70.76,-8.6 -107.16,-25.73 -37.56,-18.25 -70.77,-40.74 -100.79,-68.59 -37.51,-42.87 -68.54,-93.26 -92.15,-150.08 -24.67,-56.76 -36.45,-116.82 -36.45,-182.17 0,-18.25 2.18,-38.57 7.54,-61.11 5.35,-22.49 11.78,-43.92 19.26,-64.3 7.53,-20.36 15.01,-38.57 22.49,-54.64 7.53,-16.07 13.95,-27.85 19.31,-35.38 30.03,-18.2 78.25,-37.51 143.6,-57.87 65.41,-20.38 134.01,-41.81 205.78,-64.31 71.82,-22.49 141.48,-43.92 210.08,-65.35 67.53,-21.43 118.93,-40.74 154.31,-58.99 5.37,-2.12 9.66,-7.48 15.02,-17.14 5.35,-8.54 7.48,-15 7.48,-20.36 5.36,-18.21 7.53,-36.45 6.47,-55.71 -1.11,-18.24 -2.17,-34.32 -2.17,-46.09zm1606.53 -321.53c-48.22,0 -113.63,-1.06 -196.12,-2.13 -83.6,-1.06 -161.85,-2.12 -234.74,-2.12 -5.36,0 -8.54,2.12 -10.72,7.48 -3.19,5.36 -4.29,8.59 -4.29,11.77 0,46.11 -1.06,98.63 -2.12,158.62 -1.07,61.11 -2.13,123.24 -2.13,187.59 0,64.29 1.06,127.52 2.13,188.58 1.06,62.17 2.12,115.75 2.12,160.8 0,76.07 2.17,133.95 5.35,173.62 3.24,40.69 9.66,73.96 17.19,98.57 18.19,50.4 47.16,87.9 88.96,111.45 41.76,24.67 85.73,36.45 133.96,36.45 52.52,0 95.37,-5.36 128.59,-16.07 33.2,-9.66 68.58,-25.73 106.1,-48.23 2.16,2.13 3.23,8.6 3.23,20.38 0,11.77 -1.07,23.55 -3.23,35.38 -3.19,12.84 -4.3,25.67 -5.36,38.56 -1.07,12.84 -3.19,20.38 -6.43,22.49 -48.22,57.89 -107.15,99.69 -176.81,126.48 -70.77,26.79 -136.12,39.68 -197.24,39.68 -72.83,0 -138.24,-15.01 -196.12,-45.04 -58.93,-30.03 -103.92,-75.01 -136.12,-136.12 -25.67,-46.05 -40.69,-98.57 -46.05,-159.68 -5.35,-60 -7.53,-150.03 -7.53,-271.13 0,-52.52 0,-112.58 0,-180.05 0,-66.47 1.12,-132.89 2.18,-198.3 1.06,-65.36 2.12,-127.53 2.12,-185.41 0,-57.87 0,-106.1 0,-143.6 0,-18.2 -7.48,-28.92 -23.56,-34.27l-203.65 -15.02c-3.19,-11.82 0,-33.25 9.65,-64.29 8.6,-30.03 17.14,-50.4 24.67,-60.05 27.85,-5.36 61.06,-11.77 98.57,-19.26 37.5,-7.53 63.23,-15.01 79.31,-22.54 9.65,0 15.01,-8.55 15.01,-26.79l0 -321.53c15.01,-7.49 34.32,-18.2 56.81,-32.15 22.5,-13.9 44.99,-28.92 69.66,-47.16 23.6,-17.14 46.09,-34.28 67.53,-50.34 21.43,-16.08 37.51,-31.09 47.16,-43.93 10.71,-5.36 23.55,-7.53 38.56,-7.53 15.02,0 24.67,1.06 30.03,4.29 -5.36,33.21 -9.66,91.09 -12.89,173.63 -4.3,82.5 -6.42,190.76 -6.42,324.72 0,5.36 1.06,9.65 4.3,15.01 2.12,5.35 5.35,8.59 10.71,8.59 46.11,0 92.15,-1.11 140.37,-2.17 48.28,-1.07 93.26,-3.19 136.13,-4.29 42.87,-1.07 80.37,-3.19 113.63,-6.43 33.2,-2.12 56.76,-4.3 71.78,-6.41 -5.36,27.84 -10.73,62.17 -18.2,103.97 -7.53,41.8 -12.89,76.07 -16.08,103.93zm1817.67 -925.98c-72.88,0 -136.11,28.97 -190.81,87.9 -54.64,58.94 -81.43,145.73 -81.43,259.36 0,85.73 21.43,170.39 64.29,252.94 42.87,83.6 101.8,159.67 177.93,227.21 3.18,3.18 6.42,4.24 11.78,5.36 5.35,1.06 9.65,0 15.01,-5.36 95.38,-72.89 169.33,-147.9 221.85,-225.08 51.45,-76.09 77.13,-162.92 77.13,-258.31 0,-37.5 -6.41,-78.25 -19.25,-119.99 -12.89,-41.8 -31.09,-78.25 -54.64,-111.51 -24.67,-32.15 -55.76,-58.94 -93.27,-80.38 -37.5,-21.42 -80.37,-32.14 -128.59,-32.14zm-215.42 1081.41c-2.18,0 -5.37,-1.06 -10.72,-2.18 -5.36,-1.06 -8.6,-1.06 -11.78,2.18 -72.89,65.36 -136.12,130.71 -188.64,197.18 -52.52,67.53 -79.31,155.38 -79.31,263.65 0,78.25 15.01,147.91 43.93,211.14 28.95,63.23 68.58,117.88 121.1,162.91 51.46,46.05 111.46,80.37 179,103.92 67.52,24.67 140.36,36.45 218.61,36.45 91.14,0 183.29,-21.43 278.66,-63.24 94.33,-41.79 175.76,-102.86 243.29,-183.23 7.48,-11.83 9.65,-20.37 4.29,-25.73 -65.41,-55.75 -133.99,-113.63 -205.77,-172.56 -71.83,-58.94 -143.61,-118.94 -214.37,-180.05 -70.72,-60 -138.25,-120.05 -202.55,-178.99 -64.29,-58.94 -123.22,-116.82 -175.74,-171.45zm284.02 -1202.52c70.71,0 136.07,10.71 195.01,33.26 58.98,22.49 110.39,54.64 153.26,96.44 41.8,41.81 75.06,91.09 99.67,145.73 24.67,55.76 36.45,116.82 36.45,182.22 0,50.35 -8.54,96.45 -24.67,139.31 -16.07,42.87 -42.86,85.73 -79.3,128.64 -37.52,42.87 -85.73,87.86 -145.73,136.08 -61.11,48.22 -136.13,101.85 -227.21,162.91 -9.66,5.36 -11.78,10.71 -4.29,18.25 25.72,27.85 65.35,65.36 117.87,111.45 52.52,47.17 112.57,98.57 177.93,153.26 65.35,55.7 133.95,111.46 205.77,168.23 71.82,56.81 140.42,109.33 205.78,157.54 9.65,9.67 17.14,9.67 22.49,0 40.74,-57.87 80.37,-128.59 117.87,-212.19 37.56,-82.54 69.71,-161.85 94.33,-237.92 9.65,-24.67 13.95,-51.46 12.89,-79.31 -1.07,-27.86 -19.31,-48.22 -54.7,-61.06 -20.31,-7.54 -47.15,-15.02 -80.37,-22.54 -34.27,-7.49 -71.77,-12.84 -112.51,-18.2 -5.36,0 -7.53,-5.37 -8.59,-17.14 -1.07,-11.83 -2.13,-23.61 -2.13,-36.44 0,-11.83 1.06,-23.61 4.3,-35.39 2.12,-11.77 5.35,-18.2 10.72,-21.42 27.85,0 75.01,2.11 140.36,5.35 65.41,4.3 138.25,6.42 218.67,6.42 110.4,0 197.18,-2.12 260.42,-6.42 63.23,-3.24 105.04,-5.35 125.4,-5.35 5.36,7.47 8.55,26.78 9.61,56.81 1.12,31.09 -4.25,49.28 -13.9,56.76 -27.85,5.35 -55.75,9.65 -82.55,15.02 -27.85,5.35 -50.34,9.65 -68.59,15 -39.63,12.89 -70.71,28.97 -92.15,49.29 -21.43,20.37 -40.73,43.97 -58.93,71.83 -67.53,118.93 -126.47,223.97 -175.8,316.17 -49.29,92.15 -96.45,168.27 -141.44,228.27 -3.23,3.23 -3.23,7.48 0,12.84 2.13,6.47 4.25,9.65 7.49,9.65 52.52,40.74 109.32,82.54 170.39,126.47 60.05,43.92 116.82,86.84 169.34,128.59 52.51,41.81 100.73,80.43 142.54,115.76 41.8,35.38 70.76,63.23 87.9,83.6 0,20.37 -6.43,45.04 -18.25,75.02 -12.84,31.08 -27.85,62.17 -43.92,93.26 -16.08,31.08 -33.22,59.99 -50.35,86.78 -18.25,26.79 -31.09,45.04 -38.61,54.7 -5.37,5.35 -15.02,8.54 -29.98,9.65 -15.02,1.06 -24.67,0 -30.03,-5.36 -12.84,-22.54 -31.08,-47.16 -54.64,-71.83 -24.67,-25.72 -43.97,-46.1 -58.99,-61.1l-453.3 -363.29c-3.24,-5.36 -7.54,-5.36 -15.02,0 -128.59,156.44 -259.35,264.71 -393.36,324.72 -133.94,61.11 -265.77,91.08 -397.6,91.08 -108.22,0 -205.77,-16.07 -293.62,-48.22 -88.97,-33.21 -163.98,-79.31 -225.09,-138.25 -62.17,-58.94 -110.4,-129.65 -144.67,-212.2 -34.32,-81.43 -51.45,-170.39 -51.45,-265.77 0,-50.39 7.52,-99.68 23.6,-146.84 14.96,-46.1 41.75,-93.26 81.43,-141.48 38.57,-48.22 91.09,-99.68 156.5,-155.38 65.36,-54.7 147.89,-116.82 245.4,-184.35 7.48,-7.53 9.65,-13.95 4.3,-19.3 -63.23,-72.9 -114.69,-150.03 -154.32,-230.4 -40.74,-80.43 -61.12,-176.87 -61.12,-287.27 0,-85.72 16.08,-165.03 49.29,-236.8 32.15,-71.83 75.07,-132.94 129.7,-183.29 54.64,-50.39 116.81,-90.02 187.53,-118.98 70.77,-28.92 144.72,-42.87 222.97,-42.87zm3217.32 1020.3c-50.4,0 -103.98,8.59 -158.62,26.79 -55.75,18.24 -97.55,36.44 -125.4,56.81 -7.49,5.36 -15.02,11.77 -20.37,20.37 -6.42,9.65 -11.79,21.43 -17.14,36.45 -3.24,20.36 -4.3,63.23 -4.3,129.65 0,67.53 0,140.42 0,219.73 0,79.3 1.06,157.55 2.18,233.62 1.06,77.19 3.18,135.06 5.36,172.57 3.18,73.95 9.6,122.17 21.43,145.72 11.77,24.67 25.73,45.05 42.86,62.18 46.1,37.51 96.44,63.24 152.2,77.19 54.64,13.9 107.16,21.43 157.5,21.43 58.99,0 111.46,-9.65 159.73,-28.97 48.23,-18.19 93.21,-52.52 136.07,-102.86 42.87,-48.22 76.13,-112.57 100.74,-192.94 23.61,-80.37 35.38,-165.03 35.38,-253.99 0,-106.1 -11.77,-193.95 -34.27,-264.72 -22.54,-69.66 -51.45,-130.77 -86.83,-181.11 -52.52,-67.53 -110.4,-114.69 -171.46,-140.42 -62.17,-24.61 -127.53,-37.5 -195.06,-37.5zm203.6 -215.39c95.38,0 178.99,18.2 249.75,54.64 70.72,36.45 129.66,83.61 177.88,142.55 33.26,35.33 60.05,73.94 81.48,116.81 21.43,42.87 38.57,85.72 51.41,128.59 11.82,42.87 20.37,84.67 25.73,124.35 5.36,40.68 7.53,77.14 7.53,110.39 0,166.1 -31.09,306.52 -92.2,422.23 -62.17,116.86 -143.6,211.13 -244.34,284.02 -39.63,31.08 -84.67,58.93 -133.95,83.6 -49.33,24.67 -98.63,47.17 -149.02,65.36 -50.34,19.31 -99.62,34.33 -147.84,43.98 -48.28,9.6 -91.14,15.01 -128.64,15.01 -63.24,0 -122.18,-5.41 -177.89,-15.01 -55.74,-9.65 -108.26,-22.54 -158.61,-37.51 -20.37,-5.36 -42.91,-8.6 -69.7,-11.82 -26.79,-2.13 -61.06,3.22 -103.93,15 -5.36,0 -10.71,-2.12 -17.19,-7.48 -6.41,-5.36 -9.6,-9.65 -9.6,-15.01 2.13,-48.22 4.25,-97.55 7.48,-148.96 2.12,-51.46 4.3,-111.46 5.36,-181.11 1.06,-69.71 2.12,-151.14 2.12,-246.52 0,-94.32 0,-207.9 0,-341.9 0,-115.75 0,-238.99 0,-370.82 0,-130.76 -1.06,-256.12 -3.18,-376.17 -3.24,-118.98 -5.36,-226.14 -7.53,-319.35 -3.19,-93.26 -5.36,-159.73 -8.55,-200.43 -2.16,-33.25 -8.59,-55.74 -18.24,-69.69 -9.61,-13.91 -29.98,-25.68 -61.07,-36.4 -20.36,-7.53 -47.16,-12.89 -80.36,-18.25 -34.33,-5.36 -70.77,-9.65 -108.28,-15.01 -7.47,-9.65 -10.71,-26.79 -9.65,-51.41 1.12,-23.6 7.53,-39.68 17.18,-47.15 48.23,-3.24 99.64,-8.6 155.38,-16.08 54.65,-7.53 109.34,-16.08 163.98,-27.9 54.65,-10.72 105.04,-21.43 153.26,-33.21 48.22,-11.78 87.9,-23.55 121.12,-36.44 5.35,0 10.71,6.41 17.12,20.36 6.43,13.96 8.6,23.56 5.37,28.92 -7.49,12.89 -15.02,28.97 -20.37,47.16 -6.42,19.31 -11.79,53.63 -15.01,101.85 -4.25,49.28 -6.43,120 -7.49,213.26 -1.06,93.26 -2.13,219.73 -2.13,378.35l0 412.61c0,5.36 2.13,8.54 7.49,9.6 5.35,1.11 9.65,1.11 15.02,-2.12 87.84,-52.52 180.04,-98.62 275.42,-136.12 95.38,-37.51 173.63,-56.77 234.69,-56.77zm1534.76 143.61c-91.08,0 -166.09,38.56 -226.14,114.63 -61.07,77.19 -96.45,184.35 -106.1,320.48 0,5.35 2.18,10.71 5.35,17.13 3.24,6.42 7.54,9.66 12.89,9.66 31.04,2.11 77.14,2.11 140.38,1.06 63.23,-1.06 128.59,-2.12 197.18,-5.36 67.53,-2.12 130.76,-4.3 188.64,-7.49 57.87,-3.22 96.44,-6.41 116.82,-11.77 12.89,-11.83 19.3,-23.61 19.3,-33.26 -5.35,-48.22 -16.07,-95.38 -34.32,-143.6 -18.2,-48.22 -40.69,-91.09 -69.65,-130.77 -28.91,-39.63 -64.3,-70.71 -106.1,-95.39 -41.8,-23.55 -87.9,-35.32 -138.25,-35.32zm658.02 1039.55c7.54,7.53 12.89,15.01 15.01,22.54 3.24,12.84 2.18,32.15 -3.17,56.77 -5.36,25.72 -9.66,40.74 -15.02,46.09 -42.86,48.23 -90.02,88.97 -140.41,124.35 -50.36,35.33 -102.88,65.36 -156.45,88.91 -54.69,24.67 -108.27,41.81 -160.79,53.58 -52.52,10.72 -100.74,16.13 -143.61,16.13 -191.82,0 -345.08,-60.06 -461.89,-181.16 -78.25,-78.25 -132.89,-170.39 -166.16,-277.56 -33.2,-107.21 -49.28,-215.42 -49.28,-323.65 0,-166.15 32.15,-305.46 95.39,-418.03 63.23,-112.51 142.54,-200.36 237.92,-265.77 57.88,-37.51 125.41,-68.59 202.54,-91.08 76.13,-22.5 144.72,-34.28 205.78,-34.28 91.08,0 168.27,18.2 232.57,54.64 64.29,36.45 116.81,81.44 158.61,133.96 41.81,53.58 72.89,111.45 94.33,174.68 21.43,63.23 36.44,121.12 43.92,173.63 5.36,18.25 23.6,32.15 55.75,41.81 3.24,7.48 0,22.49 -8.59,44.98 -9.66,22.54 -16.07,36.44 -21.44,41.81 -39.62,12.88 -98.56,23.6 -176.8,32.15 -78.25,8.59 -165.04,17.18 -259.36,24.66 -95.39,7.53 -191.88,13.95 -289.39,17.13 -98.61,3.24 -186.46,6.48 -264.71,9.66 -15.01,5.36 -22.5,18.25 -22.5,40.74 5.37,65.35 20.38,133.95 47.17,204.72 26.79,70.71 62.12,130.72 107.15,181.11 58.95,57.87 121.12,99.68 186.47,126.47 65.41,26.79 140.42,39.63 226.16,39.63 76.07,0 148.95,-11.78 219.67,-36.45 69.7,-23.56 140.42,-64.29 211.13,-122.17zm930.28 -1039.55c-91.09,0 -166.1,38.56 -226.16,114.63 -61.05,77.19 -96.43,184.35 -106.1,320.48 0,5.35 2.18,10.71 5.37,17.13 3.23,6.42 7.52,9.66 12.89,9.66 31.04,2.11 77.13,2.11 140.36,1.06 63.24,-1.06 128.59,-2.12 197.19,-5.36 67.53,-2.12 130.76,-4.3 188.64,-7.49 57.88,-3.22 96.44,-6.41 116.81,-11.77 12.89,-11.83 19.31,-23.61 19.31,-33.26 -5.36,-48.22 -16.07,-95.38 -34.31,-143.6 -18.2,-48.22 -40.7,-91.09 -69.66,-130.77 -28.92,-39.63 -64.3,-70.71 -106.1,-95.39 -41.81,-23.55 -87.9,-35.32 -138.24,-35.32zm658.01 1039.55c7.54,7.53 12.89,15.01 15.02,22.54 3.24,12.84 2.17,32.15 -3.19,56.77 -5.35,25.72 -9.65,40.74 -15.01,46.09 -42.86,48.23 -90.03,88.97 -140.42,124.35 -50.34,35.33 -102.86,65.36 -156.44,88.91 -54.7,24.67 -108.27,41.81 -160.79,53.58 -52.52,10.72 -100.75,16.13 -143.6,16.13 -191.84,0 -345.09,-60.06 -461.91,-181.16 -78.25,-78.25 -132.89,-170.39 -166.14,-277.56 -33.21,-107.21 -49.29,-215.42 -49.29,-323.65 0,-166.15 32.15,-305.46 95.39,-418.03 63.23,-112.51 142.54,-200.36 237.92,-265.77 57.88,-37.51 125.41,-68.59 202.55,-91.08 76.12,-22.5 144.7,-34.28 205.77,-34.28 91.09,0 168.27,18.2 232.57,54.64 64.29,36.45 116.81,81.44 158.62,133.96 41.79,53.58 72.88,111.45 94.31,174.68 21.44,63.23 36.45,121.12 43.93,173.63 5.36,18.25 23.6,32.15 55.76,41.81 3.22,7.48 0,22.49 -8.6,44.98 -9.66,22.54 -16.07,36.44 -21.43,41.81 -39.63,12.88 -98.56,23.6 -176.81,32.15 -78.25,8.59 -165.04,17.18 -259.36,24.66 -95.38,7.53 -191.88,13.95 -289.38,17.13 -98.63,3.24 -186.47,6.48 -264.72,9.66 -15.02,5.36 -22.49,18.25 -22.49,40.74 5.36,65.35 20.36,133.95 47.15,204.72 26.79,70.71 62.13,130.72 107.17,181.11 58.94,57.87 121.11,99.68 186.47,126.47 65.41,26.79 140.42,39.63 226.14,39.63 76.07,0 148.97,-11.78 219.68,-36.45 69.71,-23.56 140.42,-64.29 211.13,-122.17zm1191.75 -1183.16c35.39,0 69.71,6.42 103.98,20.33 33.21,13.95 57.88,35.38 72.89,63.23 3.18,5.35 4.29,13.95 4.29,27.9 0,13.9 -1.11,24.62 -4.29,32.15 -2.17,12.83 -7.54,29.97 -16.08,51.4 -9.65,21.44 -19.31,43.98 -30.02,67.53 -11.78,24.67 -23.56,47.16 -36.45,69.66 -12.83,22.54 -24.61,39.68 -34.26,49.33 -2.18,3.19 -7.54,6.42 -15.02,9.6 -7.48,4.3 -12.84,6.48 -15.01,6.48 -35.38,-31.09 -73.95,-57.88 -116.82,-82.55 -42.86,-23.55 -85.72,-35.38 -128.59,-35.38 -37.5,0 -73.94,16.07 -109.33,49.33 -35.38,33.21 -66.47,69.66 -91.09,109.28 -5.35,12.89 -11.78,31.09 -19.3,54.7 -7.49,24.61 -11.78,49.28 -11.78,73.95 0,65.36 0,136.07 0,212.19 0,76.07 1.06,147.91 2.12,217.56 1.11,69.65 3.23,130.76 4.29,184.34 1.07,54.65 1.07,90.03 1.07,108.23 3.23,33.25 9.65,58.98 21.43,77.18 11.83,19.31 31.09,34.27 58.99,43.93 35.33,9.65 72.83,17.18 113.58,22.54 39.68,5.35 81.43,9.6 124.35,14.97 5.35,9.65 6.41,28.95 4.24,56.8 -3.18,27.86 -9.6,46.11 -19.26,53.59 -12.89,0 -35.38,-1.07 -68.59,-2.13 -33.26,-1.06 -70.76,-2.16 -113.63,-3.23 -42.87,-1.06 -87.85,-3.18 -133.95,-4.3 -46.1,-1.06 -88.96,-2.12 -126.47,-2.12 -30.03,0 -63.23,1.06 -99.67,2.12 -37.52,1.12 -72.9,3.24 -108.23,4.3 -35.38,1.07 -67.53,2.17 -97.56,3.23 -31.08,1.06 -54.63,2.13 -72.88,2.13 -5.37,-7.48 -7.48,-26.8 -8.54,-55.71 -1.07,-28.96 1.06,-47.16 8.54,-54.68 22.54,-2.13 48.27,-5.37 76.12,-10.72 27.85,-5.36 51.45,-11.79 71.78,-19.26 20.37,-7.53 35.38,-18.25 45.03,-32.15 9.65,-13.95 17.14,-38.62 22.49,-73.95 3.24,-15.02 5.36,-45.03 6.43,-88.96 1.11,-43.98 2.17,-95.39 3.23,-154.32 1.07,-59 2.13,-123.29 2.13,-191.88 0,-67.48 0,-133.95 0,-199.31 0,-70.76 0,-132.94 0,-185.41 0,-52.52 -1.06,-91.13 -4.25,-113.62 -5.36,-27.86 -19.31,-53.59 -42.92,-78.25 -24.61,-23.55 -79.31,-50.34 -165.03,-80.37 0,-9.66 2.17,-25.73 6.41,-46.1 3.24,-20.37 7.54,-32.15 12.89,-37.5 33.22,-2.13 70.72,-8.55 113.59,-19.27 42.86,-9.65 85.77,-21.42 128.64,-34.31 42.86,-11.78 83.6,-25.73 123.23,-40.75 38.57,-14.96 70.72,-29.97 95.39,-44.99 12.83,0 19.3,5.36 19.3,15.02 0,11.77 -1.06,31.09 -2.17,55.7 -1.06,25.73 -2.12,52.52 -3.18,81.49 -1.12,28.91 -2.18,57.87 -2.18,85.72 0,27.85 0,50.34 0,67.53 0,12.84 6.47,15.02 19.32,7.48 35.38,-44.98 72.88,-88.96 113.57,-130.77 39.68,-41.79 81.48,-77.13 124.34,-107.15 63.24,-48.23 127.53,-71.78 192.89,-71.78z"/>
 </g>
</svg>
